<svg width="2370" height="1180" viewBox="0 0 2370 1180" fill="none" xmlns="http://www.w3.org/2000/svg">
<g clip-path="url(#clip0_1739_19)">
<path d="M1504.37 716.34C1494.61 706.589 1486.87 695.01 1481.59 682.266C1476.31 669.521 1473.59 655.861 1473.59 642.065C1473.59 628.269 1476.31 614.609 1481.59 601.864C1486.87 589.12 1494.61 577.541 1504.37 567.79L1726.64 345.52C1746.34 325.822 1773.06 314.757 1800.91 314.758C1828.77 314.759 1855.49 325.826 1875.18 345.525C1894.88 365.224 1905.95 391.941 1905.95 419.799C1905.95 447.656 1894.88 474.372 1875.18 494.07L1652.91 716.34C1643.16 726.097 1631.58 733.838 1618.84 739.118C1606.09 744.399 1592.43 747.118 1578.64 747.118C1564.85 747.118 1551.19 744.399 1538.44 739.118C1525.7 733.838 1514.12 726.097 1504.37 716.34Z" fill="#FF8A03"/>
<path d="M1737.26 780.53C1727.5 770.779 1719.76 759.201 1714.48 746.457C1709.2 733.714 1706.48 720.055 1706.48 706.26C1706.48 692.466 1709.2 678.806 1714.48 666.063C1719.76 653.319 1727.5 641.741 1737.26 631.99L2189.94 179.31C2209.64 159.612 2236.36 148.547 2264.21 148.548C2292.07 148.549 2318.79 159.616 2338.49 179.315C2358.18 199.014 2369.25 225.731 2369.25 253.589C2369.25 281.446 2358.18 308.162 2338.48 327.86L1885.8 780.53C1876.05 790.287 1864.47 798.028 1851.73 803.309C1838.98 808.589 1825.32 811.308 1811.53 811.308C1797.74 811.308 1784.08 808.589 1771.33 803.309C1758.59 798.028 1747.01 790.287 1737.26 780.53Z" fill="#1CA6B8"/>
<path d="M1667.08 1148.67C1657.32 1138.92 1649.58 1127.34 1644.3 1114.6C1639.02 1101.85 1636.3 1088.19 1636.3 1074.4C1636.3 1060.6 1639.02 1046.94 1644.3 1034.19C1649.58 1021.45 1657.32 1009.87 1667.08 1000.12L2119.76 547.44C2139.46 527.741 2166.18 516.675 2194.04 516.676C2221.9 516.677 2248.62 527.745 2268.31 547.445C2288.01 567.145 2299.08 593.864 2299.08 621.724C2299.08 649.583 2288.01 676.301 2268.31 696L1815.63 1148.68C1805.88 1158.44 1794.3 1166.18 1781.56 1171.46C1768.81 1176.74 1755.15 1179.46 1741.35 1179.46C1727.56 1179.46 1713.9 1176.74 1701.15 1171.46C1688.41 1166.18 1676.83 1158.44 1667.08 1148.68" fill="#333333"/>
<path d="M2086.29 4.1927e-07C2109.89 -0.00197738 2132.95 6.99342 2152.57 20.1015C2172.19 33.2096 2187.49 51.8416 2196.52 73.6413C2205.55 95.4409 2207.91 119.429 2203.31 142.572C2198.71 165.715 2187.34 186.973 2170.66 203.658C2153.97 220.343 2132.71 231.705 2109.57 236.308C2086.43 240.911 2062.44 238.548 2040.64 229.517C2018.84 220.486 2000.21 205.194 1987.1 185.573C1973.99 165.953 1967 142.886 1967 119.29C1967.04 87.6645 1979.62 57.3457 2001.98 34.9831C2024.35 12.6205 2054.66 0.0396928 2086.29 4.1927e-07ZM2086.29 234.5C2109.08 234.502 2131.35 227.747 2150.3 215.088C2169.25 202.43 2184.02 184.438 2192.74 163.386C2201.46 142.334 2203.74 119.169 2199.3 96.8198C2194.85 74.4706 2183.88 53.9412 2167.77 37.8278C2151.66 21.7144 2131.13 10.7407 2108.78 6.29446C2086.43 1.84825 2063.27 4.1292 2042.21 12.8489C2021.16 21.5686 2003.17 36.3353 1990.51 55.2817C1977.85 74.2281 1971.09 96.5032 1971.09 119.29C1971.12 149.833 1983.27 179.116 2004.87 200.714C2026.47 222.313 2055.75 234.463 2086.29 234.5Z" fill="#FF8A03"/>
<path d="M2086.29 13.4004C2107.24 13.3984 2127.71 19.6077 2145.13 31.2429C2162.54 42.8781 2176.12 59.4168 2184.14 78.7673C2192.15 98.1178 2194.25 119.411 2190.17 139.954C2186.08 160.498 2176 179.368 2161.19 194.179C2146.38 208.991 2127.51 219.078 2106.96 223.165C2086.42 227.252 2065.13 225.155 2045.78 217.14C2026.42 209.125 2009.88 195.552 1998.25 178.136C1986.61 160.721 1980.4 140.246 1980.4 119.3C1980.43 91.2238 1991.59 64.3046 2011.44 44.4506C2031.3 24.5965 2058.21 13.4295 2086.29 13.4004ZM2086.29 221.1C2106.43 221.102 2126.11 215.133 2142.86 203.946C2159.6 192.76 2172.65 176.86 2180.36 158.256C2188.07 139.652 2190.08 119.181 2186.15 99.4307C2182.23 79.6806 2172.53 61.5388 2158.29 47.2999C2144.05 33.0609 2125.91 23.3642 2106.16 19.4362C2086.41 15.5081 2065.94 17.5251 2047.33 25.2321C2028.73 32.9391 2012.83 45.9899 2001.64 62.734C1990.46 79.4781 1984.49 99.1634 1984.49 119.3C1984.52 146.29 1995.26 172.164 2014.34 191.249C2033.43 210.333 2059.3 221.069 2086.29 221.1Z" fill="#FF8A03"/>
<path d="M2086.29 26.79C2104.59 26.7881 2122.47 32.2122 2137.69 42.3766C2152.9 52.541 2164.76 66.989 2171.77 83.8934C2178.77 100.798 2180.6 119.399 2177.03 137.345C2173.46 155.292 2164.65 171.776 2151.71 184.714C2138.78 197.653 2122.29 206.464 2104.35 210.033C2086.4 213.602 2067.8 211.769 2050.89 204.766C2033.99 197.763 2019.54 185.904 2009.38 170.69C1999.21 155.475 1993.79 137.588 1993.79 119.29C1993.82 94.7656 2003.57 71.2533 2020.91 53.9119C2038.25 36.5705 2061.77 26.8165 2086.29 26.79ZM2086.29 207.7C2103.78 207.702 2120.87 202.519 2135.41 192.805C2149.95 183.092 2161.28 169.285 2167.98 153.13C2174.67 136.975 2176.42 119.199 2173.01 102.048C2169.6 84.8977 2161.18 69.1436 2148.82 56.7783C2136.45 44.4129 2120.7 35.9917 2103.55 32.5795C2086.4 29.1674 2068.62 30.9176 2052.47 37.6089C2036.31 44.3001 2022.51 55.6319 2012.79 70.171C2003.08 84.7102 1997.89 101.804 1997.89 119.29C1997.92 142.728 2007.24 165.199 2023.81 181.773C2040.38 198.347 2062.85 207.671 2086.29 207.7Z" fill="#FF8A03"/>
<path d="M2086.29 40.1904C2101.94 40.1885 2117.23 44.8265 2130.24 53.518C2143.25 62.2095 2153.4 74.5641 2159.39 89.0194C2165.37 103.475 2166.94 119.381 2163.89 134.728C2160.84 150.074 2153.31 164.171 2142.24 175.236C2131.18 186.301 2117.08 193.836 2101.74 196.89C2086.39 199.943 2070.48 198.377 2056.03 192.389C2041.57 186.402 2029.22 176.262 2020.52 163.253C2011.83 150.243 2007.19 134.947 2007.19 119.3C2007.21 98.3282 2015.55 78.2216 2030.38 63.3911C2045.21 48.5605 2065.32 40.2169 2086.29 40.1904ZM2086.29 194.31C2101.12 194.31 2115.62 189.912 2127.96 181.671C2140.29 173.43 2149.9 161.716 2155.58 148.012C2161.26 134.307 2162.74 119.227 2159.85 104.679C2156.95 90.1301 2149.81 76.7664 2139.32 66.2774C2128.83 55.7885 2115.47 48.6454 2100.92 45.7515C2086.37 42.8576 2071.29 44.3429 2057.59 50.0195C2043.88 55.696 2032.17 65.309 2023.93 77.6427C2015.69 89.9764 2011.29 104.477 2011.29 119.31C2011.32 139.194 2019.23 158.255 2033.29 172.314C2047.35 186.374 2066.41 194.284 2086.29 194.31Z" fill="#FF8A03"/>
<path d="M2086.29 53.5898C2099.29 53.5879 2111.99 57.44 2122.8 64.6591C2133.61 71.8782 2142.03 82.14 2147.01 94.1468C2151.98 106.154 2153.28 119.366 2150.75 132.113C2148.21 144.86 2141.96 156.57 2132.77 165.76C2123.58 174.951 2111.87 181.21 2099.12 183.747C2086.38 186.283 2073.16 184.982 2061.16 180.009C2049.15 175.036 2038.89 166.614 2031.66 155.807C2024.44 145.001 2020.59 132.296 2020.59 119.3C2020.61 101.881 2027.54 85.1809 2039.86 72.8628C2052.17 60.5446 2068.87 53.6137 2086.29 53.5898ZM2086.29 180.91C2098.48 180.912 2110.39 177.299 2120.53 170.529C2130.66 163.759 2138.56 154.135 2143.23 142.875C2147.89 131.615 2149.11 119.225 2146.74 107.271C2144.36 95.3168 2138.49 84.3362 2129.87 75.7179C2121.25 67.0996 2110.27 61.2307 2098.32 58.8534C2086.36 56.4761 2073.97 57.6972 2062.71 62.3623C2051.45 67.0274 2041.83 74.927 2035.06 85.0618C2028.29 95.1967 2024.68 107.112 2024.68 119.3C2024.7 135.634 2031.2 151.294 2042.75 162.844C2054.3 174.394 2069.96 180.891 2086.29 180.91Z" fill="#FF8A03"/>
<path d="M2086.29 67C2096.64 66.996 2106.75 70.0609 2115.36 75.8068C2123.96 81.5527 2130.67 89.7216 2134.63 99.2803C2138.6 108.839 2139.63 119.358 2137.62 129.507C2135.6 139.655 2130.62 148.978 2123.3 156.295C2115.99 163.613 2106.66 168.596 2096.52 170.615C2086.37 172.634 2075.85 171.597 2066.29 167.637C2056.73 163.677 2048.56 156.971 2042.81 148.367C2037.06 139.763 2034 129.647 2034 119.3C2034.02 105.436 2039.53 92.1438 2049.33 82.3394C2059.13 72.535 2072.43 67.0185 2086.29 67ZM2086.29 167.52C2095.83 167.522 2105.15 164.695 2113.08 159.398C2121.01 154.1 2127.2 146.569 2130.85 137.758C2134.5 128.946 2135.45 119.25 2133.59 109.895C2131.73 100.541 2127.14 91.9476 2120.4 85.2033C2113.65 78.459 2105.06 73.8663 2095.7 72.0061C2086.35 70.1458 2076.65 71.1015 2067.84 74.7524C2059.03 78.4033 2051.5 84.5854 2046.2 92.5166C2040.9 100.448 2038.08 109.772 2038.08 119.31C2038.1 132.091 2043.18 144.344 2052.22 153.382C2061.26 162.42 2073.51 167.504 2086.29 167.52Z" fill="#FF8A03"/>
<path d="M2086.29 80.3896C2093.99 80.3896 2101.51 82.6717 2107.91 86.9472C2114.31 91.2227 2119.29 97.2996 2122.24 104.409C2125.18 111.519 2125.95 119.343 2124.45 126.891C2122.95 134.438 2119.25 141.372 2113.8 146.813C2108.36 152.255 2101.43 155.961 2093.88 157.462C2086.33 158.963 2078.51 158.193 2071.4 155.248C2064.29 152.303 2058.21 147.316 2053.94 140.917C2049.66 134.518 2047.38 126.995 2047.38 119.3C2047.4 108.987 2051.51 99.1043 2058.8 91.8124C2066.09 84.5205 2075.98 80.4134 2086.29 80.3896ZM2086.29 154.11C2093.18 154.112 2099.91 152.071 2105.64 148.246C2111.37 144.42 2115.83 138.982 2118.47 132.619C2121.1 126.256 2121.79 119.254 2120.45 112.499C2119.11 105.744 2115.79 99.5385 2110.92 94.6682C2106.05 89.7979 2099.85 86.4814 2093.09 85.1382C2086.34 83.795 2079.33 84.4854 2072.97 87.1221C2066.61 89.7588 2061.17 94.2233 2057.34 99.9509C2053.52 105.679 2051.48 112.412 2051.48 119.3C2051.49 128.528 2055.16 137.374 2061.69 143.899C2068.22 150.425 2077.06 154.096 2086.29 154.11Z" fill="#FF8A03"/>
<path d="M2086.29 93.7803C2091.34 93.7783 2096.27 95.2733 2100.47 98.0763C2104.67 100.879 2107.94 104.864 2109.87 109.527C2111.81 114.19 2112.31 119.322 2111.33 124.273C2110.35 129.224 2107.92 133.772 2104.35 137.342C2100.78 140.912 2096.23 143.344 2091.28 144.329C2086.33 145.315 2081.2 144.81 2076.54 142.879C2071.87 140.947 2067.89 137.676 2065.08 133.479C2062.28 129.283 2060.78 124.348 2060.78 119.3C2060.79 112.536 2063.48 106.051 2068.26 101.267C2073.04 96.4833 2079.53 93.7909 2086.29 93.7803ZM2086.29 140.72C2090.53 140.724 2094.68 139.471 2098.2 137.118C2101.73 134.765 2104.48 131.419 2106.1 127.503C2107.73 123.587 2108.16 119.277 2107.33 115.118C2106.5 110.959 2104.46 107.139 2101.47 104.141C2098.47 101.142 2094.65 99.0997 2090.49 98.2723C2086.33 97.4449 2082.02 97.8696 2078.11 99.4925C2074.19 101.115 2070.84 103.864 2068.49 107.39C2066.13 110.915 2064.88 115.061 2064.88 119.3C2064.89 124.977 2067.15 130.419 2071.16 134.434C2075.17 138.449 2080.61 140.71 2086.29 140.72Z" fill="#FF8A03"/>
<path d="M2086.29 107.18C2088.69 107.178 2091.03 107.887 2093.03 109.217C2095.02 110.548 2096.58 112.44 2097.49 114.655C2098.41 116.869 2098.65 119.306 2098.19 121.658C2097.72 124.01 2096.57 126.17 2094.87 127.866C2093.18 129.562 2091.02 130.718 2088.67 131.186C2086.32 131.655 2083.88 131.415 2081.66 130.498C2079.45 129.581 2077.56 128.028 2076.22 126.034C2074.89 124.041 2074.18 121.697 2074.18 119.3C2074.18 116.088 2075.46 113.008 2077.73 110.736C2080 108.464 2083.08 107.185 2086.29 107.18ZM2086.29 127.32C2087.87 127.32 2089.42 126.85 2090.73 125.971C2092.05 125.092 2093.08 123.843 2093.68 122.381C2094.29 120.919 2094.44 119.311 2094.14 117.759C2093.83 116.207 2093.07 114.782 2091.95 113.663C2090.83 112.544 2089.4 111.782 2087.85 111.473C2086.3 111.165 2084.69 111.323 2083.23 111.929C2081.77 112.534 2080.52 113.56 2079.64 114.875C2078.76 116.191 2078.29 117.737 2078.29 119.32C2078.29 121.441 2079.13 123.476 2080.63 124.977C2082.13 126.477 2084.17 127.32 2086.29 127.32Z" fill="#FF8A03"/>
</g>
<defs>
<clipPath id="clip0_1739_19">
<rect width="2369.25" height="1179.43" fill="white"/>
</clipPath>
</defs>
</svg>
