<svg xmlns="http://www.w3.org/2000/svg" viewBox="0 0 2369.25 1179.43"><defs><style>.cls-1{fill:#ff8a03;}.cls-2{fill:#1ca6b8;}.cls-3{fill:#333;}.cls-4{fill:none;}</style></defs><title>mrl-bg-right2</title><g id="Layer_2" data-name="Layer 2"><g id="Layer_1-2" data-name="Layer 1"><path class="cls-1" d="M1504.37,716.34h0a105,105,0,0,1,0-148.55l222.27-222.27a105,105,0,0,1,148.54,148.55L1652.91,716.34a105,105,0,0,1-148.54,0"/><path class="cls-2" d="M153,580.55a153,153,0,1,0-153-153,153,153,0,0,0,153,153"/><path class="cls-2" d="M1737.26,780.53h0a105,105,0,0,1,0-148.54l452.68-452.68a105,105,0,0,1,148.54,148.55L1885.8,780.53a105,105,0,0,1-148.54,0"/><path class="cls-3" d="M1667.08,1148.67h0a105,105,0,0,1,0-148.55l452.68-452.68A105,105,0,0,1,2268.31,696l-452.68,452.68a105,105,0,0,1-148.55,0"/><path class="cls-1" d="M2086.29,0A119.3,119.3,0,1,1,1967,119.29,119.44,119.44,0,0,1,2086.29,0m0,234.5a115.21,115.21,0,1,0-115.2-115.21,115.34,115.34,0,0,0,115.2,115.21"/><path class="cls-1" d="M2086.29,13.4A105.9,105.9,0,1,1,1980.4,119.3,106,106,0,0,1,2086.29,13.4m0,207.7a101.81,101.81,0,1,0-101.8-101.8,101.92,101.92,0,0,0,101.8,101.8"/><path class="cls-1" d="M2086.29,26.79a92.51,92.51,0,1,1-92.5,92.5,92.6,92.6,0,0,1,92.5-92.5m0,180.91a88.41,88.41,0,1,0-88.4-88.41,88.51,88.51,0,0,0,88.4,88.41"/><path class="cls-1" d="M2086.29,40.19a79.11,79.11,0,1,1-79.1,79.11,79.2,79.2,0,0,1,79.1-79.11m0,154.12a75,75,0,1,0-75-75,75.1,75.1,0,0,0,75,75"/><path class="cls-1" d="M2086.29,53.59a65.71,65.71,0,1,1-65.7,65.71,65.79,65.79,0,0,1,65.7-65.71m0,127.32a61.62,61.62,0,1,0-61.61-61.61,61.68,61.68,0,0,0,61.61,61.61"/><path class="cls-1" d="M2086.29,67A52.31,52.31,0,1,1,2034,119.3,52.36,52.36,0,0,1,2086.29,67m0,100.52a48.22,48.22,0,1,0-48.21-48.21,48.27,48.27,0,0,0,48.21,48.21"/><path class="cls-1" d="M2086.29,80.39a38.91,38.91,0,1,1-38.91,38.91,39,39,0,0,1,38.91-38.91m0,73.72a34.82,34.82,0,1,0-34.81-34.81,34.86,34.86,0,0,0,34.81,34.81"/><path class="cls-1" d="M2086.29,93.78a25.52,25.52,0,1,1-25.51,25.52,25.55,25.55,0,0,1,25.51-25.52m0,46.94a21.43,21.43,0,1,0-21.41-21.42,21.45,21.45,0,0,0,21.41,21.42"/><path class="cls-1" d="M2086.29,107.18a12.12,12.12,0,1,1-12.11,12.12,12.13,12.13,0,0,1,12.11-12.12m0,20.14a8,8,0,1,0-8-8,8,8,0,0,0,8,8"/><rect class="cls-4" x="688" width="1681.25" height="1179.43"/></g></g></svg>