<svg width="306" height="306" viewBox="0 0 306 306" fill="none" xmlns="http://www.w3.org/2000/svg">
<path d="M153 306C183.261 306 212.842 297.027 238.002 280.215C263.163 263.403 282.773 239.508 294.354 211.551C305.934 183.594 308.964 152.83 303.06 123.151C297.157 93.4722 282.585 66.2102 261.187 44.8127C239.79 23.4153 212.528 8.84345 182.849 2.93991C153.17 -2.96362 122.407 0.0663109 94.4494 11.6465C66.4923 23.2267 42.597 42.8371 25.7851 67.9978C8.97329 93.1586 0 122.74 0 153C0 193.578 16.1196 232.494 44.8127 261.187C73.5057 289.881 112.422 306 153 306" fill="#1CA6B8"/>
</svg>
