<svg xmlns="http://www.w3.org/2000/svg" xmlns:xlink="http://www.w3.org/1999/xlink" viewBox="0 0 238.59 238.59"><defs><style>.cls-1{fill:none;}.cls-2{clip-path:url(#clip-path);}.cls-3{fill:#f1881a;}</style><clipPath id="clip-path" transform="translate(0 0)"><rect class="cls-1" width="238.59" height="238.59"/></clipPath></defs><title>cropcircles</title><g id="Layer_2" data-name="Layer 2"><g id="Layer_1-2" data-name="Layer 1"><g class="cls-2"><path class="cls-3" d="M119.29,0A119.3,119.3,0,1,1,0,119.29,119.44,119.44,0,0,1,119.29,0m0,234.5A115.21,115.21,0,1,0,4.09,119.29,115.34,115.34,0,0,0,119.29,234.5" transform="translate(0 0)"/><path class="cls-3" d="M119.29,13.4A105.9,105.9,0,1,1,13.4,119.3,106,106,0,0,1,119.29,13.4m0,207.7A101.81,101.81,0,1,0,17.49,119.3a101.92,101.92,0,0,0,101.8,101.8" transform="translate(0 0)"/><path class="cls-3" d="M119.29,26.8a92.5,92.5,0,1,1-92.5,92.5,92.6,92.6,0,0,1,92.5-92.5m0,180.9a88.41,88.41,0,1,0-88.4-88.4,88.51,88.51,0,0,0,88.4,88.4" transform="translate(0 0)"/><path class="cls-3" d="M119.29,40.19a79.11,79.11,0,1,1-79.1,79.11,79.2,79.2,0,0,1,79.1-79.11m0,154.12a75,75,0,1,0-75-75,75.1,75.1,0,0,0,75,75" transform="translate(0 0)"/><path class="cls-3" d="M119.29,53.59a65.71,65.71,0,1,1-65.7,65.71,65.79,65.79,0,0,1,65.7-65.71m0,127.32A61.62,61.62,0,1,0,57.68,119.3a61.68,61.68,0,0,0,61.61,61.61" transform="translate(0 0)"/><path class="cls-3" d="M119.29,67A52.31,52.31,0,1,1,67,119.3,52.36,52.36,0,0,1,119.29,67m0,100.52A48.22,48.22,0,1,0,71.08,119.3a48.27,48.27,0,0,0,48.21,48.21" transform="translate(0 0)"/><path class="cls-3" d="M119.29,80.39A38.91,38.91,0,1,1,80.38,119.3a39,39,0,0,1,38.91-38.91m0,73.72A34.82,34.82,0,1,0,84.48,119.3a34.85,34.85,0,0,0,34.81,34.81" transform="translate(0 0)"/><path class="cls-3" d="M119.29,93.78A25.52,25.52,0,1,1,93.78,119.3a25.55,25.55,0,0,1,25.51-25.52m0,46.94A21.43,21.43,0,1,0,97.88,119.3a21.45,21.45,0,0,0,21.41,21.42" transform="translate(0 0)"/><path class="cls-3" d="M119.29,107.18a12.12,12.12,0,1,1-12.11,12.12,12.13,12.13,0,0,1,12.11-12.12m0,20.14a8,8,0,1,0-8-8,8,8,0,0,0,8,8" transform="translate(0 0)"/></g></g></g></svg>