<svg width="1065" height="403" viewBox="0 0 1065 403" fill="none" xmlns="http://www.w3.org/2000/svg">
<mask id="mask0_1876_8" style="mask-type:alpha" maskUnits="userSpaceOnUse" x="0" y="0" width="1065" height="403">
<rect width="1065" height="403" fill="#D9D9D9"/>
</mask>
<g mask="url(#mask0_1876_8)">
<path d="M418.313 157.553C405.836 189.861 369.338 158.763 368.22 157.553C341.87 204.107 267.476 156.621 267.29 156.621C262.821 159.88 252.672 167.05 247.83 170.029C236.448 177.025 224.294 182.68 211.611 186.882C202.985 189.749 194.043 191.562 184.982 192.282C176.348 193.429 167.57 192.795 159.19 190.42C152.841 188.498 147.254 184.635 143.213 179.375C139.171 174.115 136.879 167.721 136.658 161.091C136.016 150.18 138.712 139.333 144.386 129.992C154.17 115.116 165.163 101.071 177.254 88C174.088 90.0484 169.525 92.3761 166.546 94.3314C152.796 102.879 140.661 113.785 130.699 126.547C121.224 138.685 114.318 152.624 110.401 167.515C105.395 189.55 103.855 212.231 105.839 234.74C108.446 258.576 122.971 315 176.974 315C259.096 315 266.545 191.444 267.104 184.647C268.004 190.888 270.373 196.826 274.015 201.973C277.657 207.12 282.468 211.33 288.053 214.256C315.986 227.571 359.468 194.144 368.407 178.595C368.358 181.893 369.063 185.159 370.467 188.144C371.87 191.128 373.936 193.754 376.507 195.82C391.87 205.131 413.006 181.668 416.916 169.843C418.257 165.926 418.733 161.765 418.313 157.646" fill="#2F2D31"/>
<path d="M479.409 302.152C475.81 301.525 472.38 300.159 469.335 298.139C466.29 296.12 463.697 293.492 461.719 290.42L464.791 286.975C470.099 294.517 473.357 296.938 479.223 297.869C480.845 298.191 482.516 298.157 484.123 297.772C485.731 297.386 487.235 296.657 488.534 295.635C489.599 294.82 490.486 293.798 491.142 292.629C491.799 291.46 492.21 290.17 492.352 288.838C492.509 287.602 492.418 286.347 492.082 285.148C491.746 283.948 491.173 282.828 490.396 281.854C487.554 278.878 484.214 276.42 480.527 274.592C476.908 272.76 473.477 270.577 470.285 268.074C467.961 266.263 466.135 263.893 464.978 261.184C463.839 258.515 463.422 255.593 463.767 252.711C463.938 250.601 464.548 248.551 465.558 246.691C466.568 244.83 467.956 243.202 469.633 241.911C471.361 240.616 473.329 239.677 475.423 239.15C477.517 238.622 479.695 238.516 481.83 238.838C484.363 239.033 486.831 239.729 489.093 240.886C492.053 242.537 494.551 244.907 496.355 247.776L492.724 250.663C492.037 249.568 491.291 248.511 490.489 247.497C488.331 244.942 485.254 243.337 481.923 243.028C480.678 242.77 479.392 242.786 478.154 243.075C476.916 243.365 475.756 243.92 474.754 244.704C473.255 246.098 472.298 247.978 472.054 250.011C471.901 251.167 472.005 252.342 472.36 253.452C472.714 254.563 473.309 255.582 474.102 256.436C477.044 259.363 480.401 261.842 484.065 263.791C487.696 265.791 491.209 267.998 494.586 270.402C496.868 272.155 498.663 274.463 499.8 277.106C501.058 280.038 501.508 283.252 501.104 286.417C500.922 288.847 500.222 291.21 499.049 293.346C497.877 295.482 496.26 297.342 494.307 298.8C490.05 301.845 484.762 303.083 479.596 302.245" fill="#2F2D31"/>
<path d="M562.001 302.155C558.556 293.403 557.159 290.144 557.159 290.144L552.69 279.53H531.647L523.361 302.155H517.867L544.217 238.469H547.383L573.919 302.155H562.001ZM541.982 253.646L532.672 275.619H551.293L541.982 253.646Z" fill="#2F2D31"/>
<path d="M638.231 302.155C634.693 293.403 633.297 290.144 633.297 290.144L628.827 279.53H607.785L599.033 302.155H593.539L619.889 238.469H623.055L650.056 302.155H638.231ZM618.12 253.366L608.809 275.34H626.872L618.12 253.366Z" fill="#2F2D31"/>
<path d="M718.859 293.588C716.46 296.137 713.538 298.138 710.293 299.454C707.314 300.681 704.182 301.495 700.982 301.874C697.025 302.303 693.045 302.49 689.064 302.433H672.305V238.653H690.275C697.72 238.249 705.148 239.722 711.876 242.936C716.893 245.47 720.994 249.506 723.608 254.482C726.254 259.698 727.565 265.488 727.425 271.335C727.488 275.613 726.795 279.868 725.377 283.904C724.16 287.395 722.189 290.574 719.604 293.215M707.686 249.268C705.565 246.935 702.868 245.201 699.865 244.24C696.183 243.324 692.392 242.916 688.599 243.03H682.733V298.057H690.927C695.242 298.232 699.549 297.536 703.589 296.009C707.118 294.32 709.949 291.456 711.597 287.908C714.023 282.996 715.176 277.553 714.949 272.08C714.981 267.506 714.322 262.955 712.993 258.579C711.963 255.068 710.075 251.868 707.5 249.268" fill="#2F2D31"/>
<path d="M750.875 302.437V285.305V255.044V238.75H761.862V255.044V285.305V302.437H750.875Z" fill="#2F2D31"/>
<path d="M819.32 277.204V302.437H808.333V277.763L784.031 238.75H797.625L817.085 272.269L836.452 238.75H842.597L819.32 277.204Z" fill="#2F2D31"/>
<path d="M887.669 302.155C884.131 293.403 882.734 290.144 882.734 290.144L878.358 279.53H857.222L848.47 302.155H842.977L869.326 238.469H872.492L899.494 302.155H887.669ZM867.837 253.646L858.526 275.619H877.148L867.837 253.646Z" fill="#2F2D31"/>
<path d="M942.234 242.94H933.203V285.025V302.437H922.216V285.025V242.94H914.301H896.797L896.983 238.75H958.808L958.901 242.94H942.234Z" fill="#2F2D31"/>
<path d="M497.059 155.876C497.787 155.97 498.526 155.894 499.219 155.654C499.913 155.415 500.541 155.018 501.055 154.495C501.569 153.971 501.955 153.336 502.183 152.639C502.41 151.942 502.473 151.201 502.366 150.475C502.368 149.041 501.818 147.661 500.83 146.621C499.842 145.581 498.492 144.96 497.059 144.889C496.323 144.814 495.58 144.905 494.884 145.156C494.189 145.407 493.558 145.811 493.04 146.339C492.521 146.866 492.128 147.503 491.889 148.203C491.65 148.903 491.571 149.648 491.659 150.382C491.553 151.12 491.618 151.873 491.85 152.581C492.083 153.29 492.476 153.935 492.998 154.466C493.521 154.998 494.159 155.402 494.864 155.646C495.568 155.891 496.319 155.969 497.059 155.876" fill="#2F2D31"/>
<path d="M539.342 166.214V180.553C539.342 188.56 535.897 192.471 529.007 192.471H481.708C472.397 192.471 466.345 184.37 466.345 171.242C466.196 166.813 467.363 162.439 469.697 158.672V158.114H464.11C461.658 162.889 460.441 168.203 460.572 173.57C460.572 188.746 468.3 198.523 480.404 198.523H531.614C533.717 198.649 535.822 198.31 537.78 197.53C539.737 196.75 541.498 195.549 542.938 194.011C544.378 192.473 545.462 190.636 546.112 188.632C546.762 186.628 546.962 184.505 546.698 182.415V149.361L537.387 151.782L539.342 166.214Z" fill="#2F2D31"/>
<path d="M512.067 155.876C512.798 155.966 513.54 155.889 514.236 155.649C514.933 155.41 515.565 155.015 516.086 154.494C516.607 153.973 517.002 153.341 517.241 152.644C517.48 151.948 517.558 151.206 517.467 150.475C517.48 149.754 517.35 149.037 517.085 148.366C516.82 147.695 516.426 147.082 515.924 146.563C515.423 146.045 514.824 145.63 514.162 145.342C513.5 145.055 512.788 144.901 512.067 144.889C511.331 144.814 510.588 144.905 509.892 145.156C509.196 145.407 508.566 145.811 508.048 146.339C507.529 146.866 507.136 147.503 506.897 148.203C506.658 148.903 506.579 149.648 506.667 150.382C506.56 151.12 506.626 151.873 506.858 152.581C507.091 153.29 507.483 153.935 508.006 154.466C508.529 154.998 509.167 155.402 509.872 155.646C510.576 155.891 511.327 155.969 512.067 155.876" fill="#2F2D31"/>
<path d="M598.489 207.929C597.749 207.835 596.998 207.914 596.293 208.158C595.589 208.403 594.951 208.806 594.428 209.338C593.905 209.87 593.513 210.515 593.28 211.223C593.048 211.932 592.982 212.684 593.089 213.422C592.987 214.197 593.052 214.985 593.279 215.733C593.506 216.481 593.891 217.172 594.406 217.759C594.922 218.347 595.557 218.818 596.269 219.14C596.981 219.463 597.754 219.63 598.535 219.63C599.317 219.63 600.09 219.463 600.802 219.14C601.514 218.818 602.149 218.347 602.664 217.759C603.18 217.172 603.564 216.481 603.792 215.733C604.019 214.985 604.084 214.197 603.982 213.422C603.982 212.701 603.84 211.987 603.564 211.32C603.288 210.654 602.883 210.048 602.373 209.538C601.863 209.028 601.258 208.623 600.591 208.347C599.925 208.071 599.21 207.929 598.489 207.929" fill="#2F2D31"/>
<path d="M613.684 207.929C612.944 207.835 612.193 207.914 611.489 208.158C610.784 208.403 610.146 208.806 609.623 209.338C609.101 209.87 608.708 210.515 608.475 211.223C608.243 211.932 608.178 212.684 608.284 213.422C608.284 214.855 608.853 216.228 609.866 217.241C610.878 218.254 612.252 218.823 613.684 218.823C615.116 218.823 616.49 218.254 617.503 217.241C618.516 216.228 619.084 214.855 619.084 213.422C619.085 211.981 618.519 210.598 617.509 209.571C616.498 208.543 615.125 207.953 613.684 207.929" fill="#2F2D31"/>
<path d="M628.56 166.208V180.547C628.56 188.555 625.208 192.465 618.318 192.465H578.374C571.577 192.465 568.225 188.555 568.225 180.547V124.123L558.914 126.451L560.59 140.324V182.596C560.59 193.303 565.618 198.703 575.581 198.703H621.204C623.3 198.815 625.394 198.466 627.34 197.68C629.285 196.893 631.035 195.69 632.464 194.153C633.894 192.617 634.969 190.786 635.614 188.789C636.258 186.792 636.456 184.678 636.195 182.596V149.356L626.884 151.776L628.56 166.208Z" fill="#2F2D31"/>
<path d="M930.528 140.791V180.548C930.528 188.556 927.176 192.466 920.193 192.466H902.502C895.612 192.466 892.26 188.649 892.26 180.828V149.357L882.949 151.778L884.904 166.489V180.362C884.904 188.277 881.645 192.094 875.035 192.094C872.703 191.911 870.439 191.225 868.398 190.084C866.357 188.943 864.587 187.373 863.21 185.483V154.292L855.668 156.247V180.362C855.668 188.277 852.316 192.094 845.519 192.094C843.391 191.889 841.325 191.266 839.44 190.259C837.554 189.252 835.886 187.882 834.532 186.228C834.582 185.329 834.582 184.427 834.532 183.528V154.292L827.084 156.247V180.548C827.084 188.556 823.732 192.466 816.841 192.466H751.665C748.895 192.487 746.146 191.982 743.565 190.977L765.073 169.375C764.888 166.727 764.085 164.16 762.726 161.88C761.368 159.599 759.492 157.67 757.252 156.247C751.647 151.794 744.67 149.425 737.513 149.543C730.325 149.404 723.303 151.702 717.587 156.061C715.312 157.463 713.4 159.383 712.009 161.664C710.617 163.946 709.785 166.524 709.58 169.189V169.189C722.429 182.318 728.947 188.928 730.902 190.697C728.283 191.686 725.507 192.191 722.708 192.187H685.465V173.565C685.671 166.844 683.531 160.26 679.412 154.943C677.621 152.584 675.293 150.685 672.621 149.406C669.949 148.127 667.011 147.504 664.049 147.588V147.588L663.025 155.781H663.677C665.041 155.008 666.578 154.592 668.146 154.571C674.012 154.571 677.457 161.74 677.457 172.448V191.07V192.932H647.755L646.266 199.17H723.732C728.545 198.892 733.243 197.591 737.513 195.353C741.72 197.517 746.375 198.666 751.106 198.705H819.449C821.502 198.843 823.561 198.541 825.488 197.819C827.415 197.096 829.166 195.97 830.622 194.515C831.75 193.35 832.664 191.994 833.322 190.511C835.003 192.999 837.262 195.044 839.904 196.471C842.547 197.898 845.496 198.664 848.499 198.705C851.478 198.887 854.432 198.07 856.895 196.384C859.357 194.697 861.186 192.237 862.093 189.394C863.685 192.155 865.96 194.461 868.698 196.091C871.437 197.721 874.549 198.621 877.735 198.705C879.791 198.813 881.845 198.46 883.746 197.67C885.647 196.881 887.347 195.675 888.722 194.142C890.167 195.712 891.947 196.937 893.929 197.727C895.911 198.516 898.045 198.851 900.174 198.705H923.172C925.279 198.828 927.387 198.489 929.347 197.709C931.308 196.93 933.075 195.73 934.522 194.194C935.969 192.659 937.061 190.824 937.722 188.82C938.384 186.817 938.598 184.692 938.349 182.597V124.031L929.038 126.452L930.528 140.791ZM723.081 160.623C727.232 157.907 732.086 156.461 737.047 156.461C742.008 156.461 746.862 157.907 751.013 160.623C752.429 161.489 753.61 162.689 754.454 164.117C755.298 165.546 755.779 167.159 755.855 168.817L737.233 187.439L729.784 180.176L718.053 168.817C718.208 167.157 718.742 165.556 719.614 164.135C720.486 162.715 721.672 161.513 723.081 160.623" fill="#2F2D31"/>
<path d="M960.038 124.123L949.609 124.961L951.285 138.183V198.703H958.92V138.183L960.038 124.123Z" fill="#2F2D31"/>
</g>
</svg>
