<svg width="318" height="403" viewBox="0 0 318 403" fill="none" xmlns="http://www.w3.org/2000/svg">
<mask id="mask0_1876_12" style="mask-type:alpha" maskUnits="userSpaceOnUse" x="0" y="0" width="318" height="403">
<rect width="318" height="403" fill="#D9D9D9"/>
</mask>
<g mask="url(#mask0_1876_12)">
<path d="M253.7 3.01062H46.4023C45.4822 2.98432 44.5662 3.14288 43.7085 3.47692C42.8508 3.81095 42.0688 4.31367 41.4088 4.95531C40.7488 5.59696 40.2243 6.36449 39.8662 7.21247C39.5081 8.06045 39.3238 8.97165 39.3242 9.89213V356.72C39.4089 358.499 40.1801 360.176 41.4757 361.398C42.7713 362.621 44.4903 363.293 46.2713 363.274H253.7C255.476 363.277 257.186 362.599 258.478 361.38C259.77 360.161 260.546 358.494 260.647 356.72V9.89213C260.546 8.11865 259.77 6.45106 258.478 5.23211C257.186 4.01316 255.476 3.33546 253.7 3.33831" fill="#1D252C"/>
<path d="M252.771 4.52232H47.2435C45.5053 4.52232 43.8383 5.21281 42.6092 6.44189C41.3802 7.67097 40.6897 9.33796 40.6897 11.0761V355.283C40.6897 357.021 41.3802 358.688 42.6092 359.917C43.8383 361.146 45.5053 361.836 47.2435 361.836H252.771C254.509 361.836 256.176 361.146 257.405 359.917C258.635 358.688 259.325 357.021 259.325 355.283V11.3383C259.325 9.60011 258.635 7.93312 257.405 6.70404C256.176 5.47496 254.509 4.78448 252.771 4.78448M252.771 0.262342C254.271 0.245001 255.76 0.525466 257.15 1.08749C258.541 1.64951 259.807 2.48192 260.873 3.53649C261.94 4.59107 262.787 5.84683 263.365 7.23105C263.943 8.61526 264.24 10.1004 264.24 11.6004V355.283C264.24 356.783 263.943 358.268 263.365 359.652C262.787 361.036 261.94 362.292 260.873 363.347C259.807 364.401 258.541 365.234 257.15 365.796C255.76 366.358 254.271 366.638 252.771 366.621H47.2435C45.749 366.629 44.2676 366.342 42.8845 365.776C41.5013 365.211 40.2436 364.377 39.1838 363.323C38.124 362.269 37.283 361.017 36.7091 359.637C36.1352 358.257 35.8398 356.777 35.8398 355.283V11.3383C35.8398 9.84382 36.1352 8.36409 36.7091 6.9842C37.283 5.60431 38.124 4.35148 39.1838 3.29778C40.2436 2.24408 41.5013 1.41029 42.8845 0.844368C44.2676 0.278444 45.749 -0.00844913 47.2435 0.000189434L252.771 0.262342Z" fill="#D7282F"/>
<path d="M125.219 325.917C124.367 324.934 123.777 324.541 123.187 324.541C122.883 324.546 122.584 324.619 122.311 324.755C122.039 324.891 121.801 325.087 121.614 325.327C120.894 326.048 120.173 327.163 119.058 328.342C116.633 330.772 114.56 333.53 112.898 336.534C112.507 337.263 112.283 338.069 112.242 338.894C112.198 339.406 112.337 339.917 112.636 340.336H113.094C114.274 340.336 115.388 338.697 117.027 335.945C118.665 333.192 119.517 331.488 120.107 330.571C120.697 329.653 121.746 327.621 122.663 327.359C123.581 327.097 123.908 328.342 124.891 329.85C125.567 330.778 126.118 331.792 126.53 332.864H124.891C122.36 333.176 119.924 334.025 117.748 335.355C117.484 335.507 117.266 335.727 117.116 335.992C116.966 336.257 116.89 336.558 116.896 336.862C116.886 337.372 117.074 337.865 117.42 338.238H118.01C121.215 337.014 124.5 336.007 127.841 335.224L129.02 337.124C129.295 337.491 129.651 337.788 130.061 337.993C130.47 338.197 130.922 338.304 131.38 338.304C131.38 338.304 131.38 338.304 131.38 337.911C130.881 335.515 129.826 333.27 128.299 331.357C126.464 328.539 125.219 326.442 124.433 325.459" fill="white"/>
<path d="M143.074 329.727C142.282 329.413 141.436 329.258 140.584 329.268H139.666C139.104 329.285 138.562 329.477 138.115 329.818C137.668 330.159 137.34 330.631 137.176 331.169C137.119 331.538 137.119 331.914 137.176 332.283C137.176 332.938 137.176 333.725 138.159 333.79C138.821 333.746 139.468 333.567 140.059 333.266L142.025 332.414H142.615C142.687 332.379 142.765 332.361 142.845 332.361C142.924 332.361 143.002 332.379 143.074 332.414C143.658 332.868 144.054 333.521 144.188 334.249C144.248 334.419 144.248 334.604 144.188 334.773C143.667 335.566 143.026 336.274 142.287 336.87C141.195 337.576 139.918 337.941 138.617 337.919C138.321 337.951 138.022 337.908 137.747 337.793C137.472 337.679 137.23 337.496 137.044 337.264C136.142 335.669 135.711 333.851 135.799 332.021C135.799 328.613 135.799 326.122 135.799 324.418C135.929 321.828 135.14 319.275 133.571 317.209C133.254 316.887 132.839 316.679 132.391 316.619C131.836 316.665 131.319 316.923 130.949 317.34C130.562 317.797 130.353 318.379 130.36 318.978C130.365 319.526 130.499 320.065 130.753 320.551C132.045 323.038 132.93 325.715 133.374 328.482C133.702 331.234 134.03 333.987 134.423 336.739C134.577 337.451 134.895 338.117 135.349 338.685C135.804 339.254 136.384 339.709 137.044 340.016C137.929 340.426 138.888 340.65 139.863 340.672C141.501 340.657 143.098 340.155 144.45 339.23C145.705 338.475 146.638 337.285 147.072 335.887C147.159 335.433 147.159 334.966 147.072 334.511C147.072 333.569 146.774 332.651 146.22 331.89C145.483 330.879 144.486 330.087 143.336 329.596" fill="white"/>
<path d="M143.074 329.727C142.282 329.413 141.436 329.258 140.584 329.268H139.666C139.104 329.285 138.562 329.477 138.115 329.818C137.668 330.159 137.34 330.631 137.176 331.169C137.119 331.538 137.119 331.914 137.176 332.283C137.176 332.938 137.176 333.725 138.159 333.79C138.821 333.746 139.468 333.567 140.059 333.266L142.025 332.414H142.615C142.687 332.379 142.765 332.361 142.845 332.361C142.924 332.361 143.002 332.379 143.074 332.414C143.658 332.868 144.054 333.521 144.188 334.249C144.248 334.419 144.248 334.604 144.188 334.773C143.667 335.566 143.026 336.274 142.287 336.87C141.195 337.576 139.918 337.941 138.617 337.919C138.321 337.951 138.022 337.908 137.747 337.793C137.472 337.679 137.23 337.496 137.044 337.264C136.142 335.669 135.711 333.851 135.799 332.021C135.799 328.613 135.799 326.122 135.799 324.418C135.929 321.828 135.14 319.275 133.571 317.209C133.254 316.887 132.839 316.679 132.391 316.619C131.836 316.665 131.319 316.923 130.949 317.34C130.562 317.797 130.353 318.379 130.36 318.978C130.365 319.526 130.499 320.065 130.753 320.551C132.045 323.038 132.93 325.715 133.374 328.482C133.702 331.234 134.03 333.987 134.423 336.739C134.577 337.451 134.895 338.117 135.349 338.685C135.804 339.254 136.384 339.709 137.044 340.016C137.929 340.426 138.888 340.65 139.863 340.672C141.501 340.657 143.098 340.155 144.45 339.23C145.705 338.475 146.638 337.285 147.072 335.887C147.159 335.433 147.159 334.966 147.072 334.511C147.072 333.569 146.774 332.651 146.22 331.89C145.483 330.879 144.486 330.087 143.336 329.596" fill="white"/>
<path d="M238.052 329.727C237.28 329.422 236.457 329.266 235.627 329.268H234.644C234.094 329.298 233.566 329.496 233.132 329.836C232.698 330.176 232.38 330.641 232.219 331.169C232.162 331.538 232.162 331.914 232.219 332.283C232.219 332.938 232.219 333.725 233.137 333.79C233.798 333.737 234.443 333.559 235.037 333.266C235.696 333.042 236.333 332.757 236.938 332.414H237.593C237.653 332.379 237.721 332.361 237.79 332.361C237.859 332.361 237.927 332.379 237.987 332.414C238.441 332.924 238.717 333.568 238.773 334.249C238.802 334.422 238.802 334.6 238.773 334.773C238.226 335.567 237.563 336.274 236.807 336.87C235.715 337.576 234.437 337.941 233.137 337.919C232.85 337.952 232.56 337.909 232.295 337.794C232.03 337.679 231.801 337.496 231.629 337.264C230.727 335.669 230.296 333.851 230.384 332.021C230.384 328.613 230.384 326.122 230.384 324.418C230.481 321.832 229.695 319.29 228.156 317.209C227.822 316.873 227.382 316.665 226.911 316.619C226.374 316.668 225.879 316.927 225.534 317.34C225.128 317.791 224.896 318.372 224.879 318.978C224.909 319.531 225.066 320.069 225.338 320.551C226.63 323.038 227.515 325.715 227.959 328.482C227.959 331.234 228.615 333.987 229.008 336.739C229.147 337.457 229.459 338.13 229.915 338.7C230.372 339.271 230.96 339.723 231.629 340.016C232.508 340.442 233.471 340.666 234.447 340.672C236.105 340.647 237.72 340.146 239.101 339.23C240.321 338.438 241.244 337.262 241.722 335.887C241.809 335.433 241.809 334.966 241.722 334.511C241.722 333.569 241.424 332.651 240.87 331.89C240.131 330.855 239.106 330.058 237.921 329.596" fill="white"/>
<path d="M187.526 326.908C186.815 325.769 185.878 324.788 184.773 324.025C183.023 322.176 180.726 320.935 178.22 320.486C177.65 320.467 177.095 320.667 176.668 321.045C176.241 321.422 175.976 321.95 175.926 322.517V323.042C176.104 323.254 176.324 323.427 176.572 323.551C176.82 323.675 177.091 323.747 177.368 323.763H178.678L181.562 325.073C183.638 326.078 185.305 327.768 186.281 329.858C186.527 330.46 186.639 331.108 186.608 331.758C186.701 332.256 186.701 332.767 186.608 333.266C185.635 335.231 184.376 337.042 182.873 338.64C182.152 339.492 180.579 340.999 178.22 343.293V343.686C178.186 343.859 178.186 344.037 178.22 344.21H178.744C181.371 343.198 183.647 341.445 185.298 339.164C187.142 337.591 188.408 335.447 188.895 333.072C189.381 330.697 189.061 328.228 187.985 326.056" fill="white"/>
<path d="M179.045 338.574C179.151 338.614 179.268 338.614 179.373 338.574C179.685 337.893 179.863 337.159 179.897 336.411V331.561C179.897 328.481 179.897 326.253 179.045 325.335C178.193 324.418 178.718 325.335 178.652 325.008C178.403 324.968 178.148 324.989 177.908 325.069C177.668 325.149 177.452 325.285 177.276 325.466C177.228 325.638 177.228 325.819 177.276 325.991C177.026 328.185 177.182 330.406 177.735 332.544C177.592 334.623 177.998 336.703 178.914 338.574C178.964 338.603 179.021 338.618 179.078 338.618C179.136 338.618 179.192 338.603 179.242 338.574" fill="white"/>
<path d="M207.188 338.111C206.995 337.879 206.747 337.699 206.467 337.586C205.746 337.586 205.222 337.586 204.96 336.669C204.698 335.751 204.239 334.572 203.911 333.916C203.65 333.299 203.225 332.765 202.682 332.372C202.139 331.979 201.499 331.743 200.831 331.688C200.256 331.707 199.703 331.914 199.258 332.278C198.013 333.261 196.899 334.571 195.719 335.62C195.161 336.236 194.386 336.612 193.556 336.669C193.396 335.494 193.396 334.304 193.556 333.13V332.212C193.68 330.475 194.01 328.759 194.539 327.1C195.054 325.351 195.361 323.547 195.457 321.726V320.481C195.064 319.694 194.539 319.236 193.949 319.301C193.36 319.367 192.639 320.415 192.508 321.726C192.508 325.986 192.049 329.066 191.918 330.77C191.787 332.474 191.918 333.851 191.525 334.571C191.492 335.139 191.492 335.708 191.525 336.276C191.419 336.949 191.419 337.634 191.525 338.307C191.661 338.782 191.944 339.202 192.332 339.507C192.72 339.813 193.194 339.989 193.687 340.011C194.03 340.11 194.393 340.11 194.736 340.011C195.751 339.271 196.695 338.437 197.554 337.521C198.409 336.689 199.306 335.902 200.241 335.161C200.537 334.974 200.875 334.862 201.224 334.834C201.683 334.834 202.535 334.834 202.666 335.62C202.847 336.136 203 336.661 203.125 337.193C203.846 339.683 204.698 341.322 205.877 341.912H206.402C207.123 341.912 207.778 341.256 208.171 340.208C208.564 339.159 208.171 340.208 208.171 339.88C208.197 339.597 208.197 339.312 208.171 339.028C208.208 338.855 208.208 338.677 208.171 338.504" fill="white"/>
<path d="M225.56 334.635L223.921 333.848C222.938 333.39 222.742 333.39 222.545 333.39C221.484 333.473 220.476 333.886 219.661 334.569L216.45 336.929C215.414 337.693 214.318 338.372 213.173 338.96H212.452C212.306 338.976 212.159 338.947 212.03 338.876C211.901 338.806 211.797 338.698 211.731 338.567C211.731 337.387 212.321 336.601 213.763 336.011L215.86 335.225C216.675 334.905 217.364 334.33 217.826 333.586V333.193C217.804 332.66 217.646 332.141 217.367 331.686H216.974C215.197 331.864 213.545 332.679 212.321 333.979C211.533 334.501 210.868 335.187 210.37 335.99C209.872 336.794 209.554 337.695 209.437 338.633C209.36 339.364 209.449 340.104 209.699 340.795C209.895 341.108 210.165 341.368 210.485 341.551C210.805 341.734 211.166 341.835 211.535 341.844C212.902 341.783 214.232 341.377 215.401 340.664L218.678 338.37C219.694 337.558 220.792 336.855 221.955 336.273H222.807C222.887 336.227 222.977 336.203 223.069 336.203C223.161 336.203 223.252 336.227 223.331 336.273C223.658 336.634 223.944 337.029 224.183 337.453C224.642 338.108 225.035 338.567 225.691 338.567C226.346 338.567 226.805 338.108 227.395 337.387V337.06C227.382 336.507 227.223 335.968 226.936 335.497C226.648 335.025 226.241 334.637 225.756 334.373" fill="white"/>
<path d="M165.7 333.194L163.865 332.342C163.458 332.127 163.013 331.993 162.554 331.949C161.478 331.995 160.444 332.386 159.605 333.063L156.394 335.422C155.374 336.21 154.276 336.891 153.117 337.454C152.882 337.525 152.631 337.525 152.396 337.454C152.396 337.454 151.806 337.454 151.675 336.995C151.544 336.536 150.954 334.439 152.462 333.849C153.969 333.259 152.462 330.179 150.823 331.686C150.154 332.368 149.657 333.199 149.372 334.11C149.087 335.022 149.023 335.988 149.185 336.929C149.179 337.682 149.359 338.425 149.709 339.092C149.919 339.397 150.191 339.654 150.507 339.846C150.823 340.038 151.177 340.161 151.544 340.206C152.903 340.158 154.221 339.726 155.345 338.961C156.547 338.299 157.687 337.531 158.753 336.667C159.762 335.864 160.862 335.183 162.03 334.636H162.423C162.595 334.588 162.776 334.588 162.948 334.636C163.341 335.094 163.603 335.553 163.865 335.881C163.998 336.175 164.198 336.435 164.448 336.64C164.698 336.844 164.992 336.988 165.307 337.061C165.897 337.061 166.356 336.602 167.011 335.881V335.488C166.993 334.945 166.832 334.417 166.544 333.956C166.257 333.496 165.852 333.12 165.373 332.866" fill="white"/>
<path d="M245.587 333.059C245.063 331.748 244.735 330.765 244.473 330.175C244.211 329.585 244.473 329.782 243.883 330.175C243.883 330.175 243.883 330.175 243.49 330.175C243.451 330.325 243.451 330.483 243.49 330.634C243.49 332.076 243.49 333.255 243.49 333.976C243.458 335.203 243.728 336.418 244.277 337.515H244.604H245.325C245.981 337.515 246.046 337.057 246.439 336.467C246.373 335.364 246.129 334.28 245.718 333.255" fill="white"/>
<path d="M241.595 326.384C242.005 326.338 242.398 326.202 242.749 325.987C243.1 325.772 243.4 325.483 243.627 325.139V324.746C243.565 324.415 243.431 324.102 243.234 323.828H242.906H242.513V323.37V322.976V322.518V321.993C242.258 321.908 241.982 321.908 241.727 321.993C241.47 321.917 241.197 321.917 240.94 321.993L240.154 322.649C239.714 323.168 239.44 323.807 239.367 324.484C239.403 325.061 239.661 325.601 240.088 325.991C240.25 326.185 240.45 326.343 240.675 326.455C240.901 326.568 241.147 326.633 241.399 326.647" fill="white"/>
<path d="M2.35547 64.5527C41.285 103.998 87.7573 135.202 139.003 156.306C239.604 196.612 310.254 193.335 310.254 193.335C310.254 193.335 224.53 212.341 162.006 268.704C121.29 305.899 86.4239 349.028 58.5872 396.635C58.5872 396.635 65.141 309.993 56.2934 239.015C45.8728 158.6 2.35547 64.5527 2.35547 64.5527Z" fill="#B3B6B9"/>
<path d="M57.9357 403H57.2148C56.8347 402.92 56.4777 402.754 56.1711 402.516C55.8645 402.277 55.6163 401.972 55.4453 401.623C55.1483 401.059 55.0123 400.424 55.0521 399.788C55.279 397.586 55.6291 395.398 56.1007 393.234C61.1751 359.239 63.6726 324.908 63.572 290.536C63.7042 263.164 60.4015 235.884 53.7413 209.334C39.3229 158.215 11.0759 92.2832 2.42491 72.0975C1.90061 70.7867 1.31076 69.6726 0.917534 68.755C0.371153 67.7684 0.0573287 66.67 0 65.5436C0.00296513 65.0224 0.144026 64.5113 0.408814 64.0623C0.673603 63.6133 1.05266 63.2425 1.50738 62.9877C1.93966 62.7195 2.44063 62.5828 2.94922 62.5944C3.7211 62.5904 4.46753 62.8703 5.04644 63.3809C5.61663 63.8107 6.12399 64.3181 6.55382 64.8883C7.53689 66.0024 8.65104 67.4443 10.0929 68.9516C45.2316 106.975 87.9384 137.225 135.467 157.756C186.758 179.172 241.702 190.477 297.281 191.049C301.198 191.072 305.113 190.897 309.012 190.525C310.979 190.525 312.617 190.132 313.993 190.132C314.728 189.978 315.487 189.978 316.222 190.132C316.659 190.311 317.044 190.596 317.341 190.963C317.639 191.329 317.84 191.765 317.926 192.229V192.557C317.899 193.022 317.759 193.473 317.52 193.873C317.28 194.272 316.947 194.608 316.549 194.85C315.888 195.176 315.181 195.397 314.452 195.506C313.01 195.834 311.241 196.03 309.34 196.423C286.861 201.011 209.132 218.837 155.391 269.236C113.905 308.428 72.092 375.932 62.9822 396.118C62.3097 398.245 61.3151 400.257 60.033 402.082C59.7745 402.365 59.461 402.593 59.1117 402.75C58.7624 402.908 58.3845 402.993 58.0013 403" fill="white"/>
<path d="M3.90749 71.2371C2.2035 67.2393 0.827199 65.4042 2.33458 64.6833C3.84195 63.9624 4.56287 65.994 7.97086 69.6642C43.6126 107.983 86.8171 138.489 134.853 159.255C208.714 190.582 283.624 194.514 309.119 192.024C313.313 191.696 316.066 191.106 316.262 192.679C316.459 194.252 313.182 194.383 309.184 195.235C286.574 199.954 208.387 217.584 154.252 268.704C112.504 308.026 70.822 373.237 61.7122 395.323C60.0737 399.256 59.2217 401.877 57.5177 401.877C55.8137 401.877 56.8623 398.928 57.5177 394.537C60.9912 369.567 74.0989 277.879 55.2894 209.457C41.1332 157.616 12.5585 91.7505 3.90749 71.2371Z" fill="#D7282F"/>
<path d="M100.47 186.654L99.9453 188.096L129.569 193.077L155.915 207.561L156.374 206.185L130.224 191.242" fill="white"/>
<path d="M155.927 207.555L129.712 193.071L100.089 188.09L98.5156 192.809C108.644 192.321 118.781 193.608 128.467 196.61C137.924 200.298 146.647 205.647 154.223 212.404" fill="#D7282F"/>
<path d="M128.516 196.216C118.894 192.551 108.512 191.334 98.3032 192.677L93.5844 206.833C90.2603 216.694 89.4967 227.238 91.3653 237.476C93.2339 247.713 97.6735 257.307 104.267 265.358C114.455 263.147 123.911 258.377 131.743 251.496C139.575 244.616 145.525 235.853 149.03 226.035L154.142 212.076C146.991 204.737 138.146 199.268 128.385 196.15" fill="#1D252C"/>
<path d="M152.822 212.801C146.014 205.649 137.45 200.407 127.983 197.596C118.823 193.918 108.859 192.698 99.0811 194.057L94.8867 207.165C91.4971 216.679 90.6332 226.91 92.3792 236.857C94.1253 246.805 98.4216 256.13 104.848 263.921C114.704 261.771 123.843 257.13 131.393 250.44C138.943 243.751 144.651 235.237 147.973 225.712" fill="#FFF200"/>
<path d="M100.461 186.722L100.985 185.018L130.871 189.474L156.955 204.482L156.365 206.186L130.215 191.244" fill="#009D57"/>
<path d="M105.92 244.39C105.92 244.39 105.527 244.39 105.33 244.39C105.181 244.435 105.021 244.435 104.872 244.39L103.954 243.866C103.426 243.67 102.844 243.67 102.316 243.866C102.054 244.008 101.83 244.21 101.66 244.455C101.66 244.455 101.267 245.111 101.66 245.438C101.688 245.921 101.872 246.381 102.185 246.749L102.709 247.339L103.43 247.994L104.085 248.519C104.085 248.519 105.068 249.305 104.937 250.157C104.874 250.43 104.752 250.686 104.579 250.906C104.405 251.126 104.186 251.305 103.935 251.43C103.685 251.555 103.41 251.624 103.13 251.63C102.85 251.637 102.572 251.581 102.316 251.468C101.976 251.505 101.632 251.47 101.307 251.364C100.982 251.259 100.683 251.086 100.429 250.858C100.175 250.629 99.9727 250.349 99.8348 250.036C99.6969 249.723 99.6266 249.385 99.6287 249.043C99.5287 248.745 99.5287 248.423 99.6287 248.126C99.6287 248.282 99.6908 248.432 99.8014 248.543C99.912 248.653 100.062 248.715 100.218 248.715C100.375 248.715 100.525 248.653 100.636 248.543C100.746 248.432 100.808 248.282 100.808 248.126C100.831 247.97 100.797 247.812 100.713 247.68C100.628 247.548 100.5 247.45 100.35 247.405C100.35 247.405 99.1699 247.405 98.7767 248.519C98.6535 248.909 98.6309 249.324 98.7112 249.725C98.7914 250.126 98.9717 250.5 99.2354 250.813C99.6446 251.28 100.162 251.64 100.743 251.861C101.33 251.937 101.925 251.937 102.512 251.861C102.974 251.794 103.41 251.607 103.778 251.32C104.146 251.033 104.432 250.654 104.61 250.223C104.819 249.889 104.93 249.503 104.93 249.109C104.93 248.714 104.819 248.328 104.61 247.994C104.453 247.762 104.278 247.543 104.085 247.339L103.233 246.553L102.578 245.963V245.504C102.578 245.504 102.119 244.849 102.578 244.455C103.037 244.062 103.954 244.455 103.954 244.455C104.364 244.712 104.72 245.046 105.003 245.438C105.277 245.788 105.478 246.189 105.593 246.618V247.077C105.534 246.62 105.534 246.158 105.593 245.701V244.783" fill="#1D252C"/>
<path d="M113.098 252.387C113.058 252.493 113.058 252.61 113.098 252.715C113.183 252.757 113.277 252.781 113.371 252.783C113.466 252.786 113.561 252.768 113.648 252.73C113.735 252.693 113.813 252.637 113.877 252.567C113.94 252.496 113.988 252.413 114.016 252.322C114.052 252.173 114.04 252.016 113.981 251.875C113.922 251.734 113.819 251.615 113.688 251.535C113.519 251.379 113.296 251.292 113.066 251.292C112.835 251.292 112.612 251.379 112.443 251.535C112.252 251.7 112.096 251.9 111.984 252.125C111.871 252.35 111.805 252.595 111.788 252.846C111.744 253.212 111.78 253.583 111.893 253.934C112.006 254.284 112.194 254.606 112.443 254.878C112.719 255.174 113.054 255.409 113.427 255.567C113.799 255.725 114.201 255.803 114.606 255.795C115.296 255.799 115.975 255.618 116.572 255.271C117.218 254.891 117.794 254.404 118.276 253.829L118.8 253.239H119.128C119.381 253.335 119.661 253.335 119.914 253.239C120.183 253.136 120.428 252.98 120.635 252.781C120.445 252.851 120.236 252.851 120.045 252.781H119.39L119.98 252.06L120.701 251.339C120.959 251.191 121.201 251.015 121.422 250.814C121.974 251.02 122.545 251.173 123.126 251.273H126.009C125.192 251.246 124.38 251.136 123.584 250.946C122.84 250.781 122.116 250.54 121.422 250.225L120.242 249.045H119.456H118.341H117.096C116.703 249.045 115.785 249.504 115.785 250.487C115.785 251.47 117.489 251.535 117.883 250.946C117.883 250.946 117.162 250.946 116.834 250.946C116.742 250.848 116.69 250.719 116.69 250.585C116.69 250.451 116.742 250.322 116.834 250.225C116.86 249.931 116.984 249.656 117.187 249.442C117.389 249.228 117.657 249.088 117.948 249.045C118.414 249.138 118.858 249.316 119.259 249.569L120.111 250.094H120.57H120.111C119.698 250.292 119.322 250.558 118.997 250.88L118.21 251.666H117.948H117.424C117.574 251.628 117.732 251.628 117.883 251.666C118.01 251.621 118.149 251.621 118.276 251.666C118.014 251.992 117.73 252.299 117.424 252.584C117.07 252.957 116.675 253.287 116.244 253.567C115.693 253.762 115.091 253.762 114.54 253.567C114.218 253.507 113.919 253.359 113.676 253.139C113.433 252.919 113.255 252.636 113.164 252.322C113.069 251.979 113.069 251.616 113.164 251.273C113.251 251.069 113.386 250.889 113.557 250.749" fill="#1D252C"/>
<path d="M126.642 199.626V200.019C126.642 200.019 126.249 200.019 126.249 200.347C126.204 200.474 126.204 200.613 126.249 200.74L126.576 201.133C126.576 201.133 126.904 201.133 127.035 201.133C127.101 200.964 127.101 200.777 127.035 200.609C127.035 200.215 127.035 200.15 127.035 199.626C127.035 199.101 127.035 199.626 127.035 199.626" fill="#1D252C"/>
<path d="M114.484 230.1C115.062 230.751 115.548 231.478 115.926 232.262C115.926 232.787 116.319 233.376 116.451 233.311C116.582 233.245 116.451 232.787 116.451 232.197C116.146 231.582 115.795 230.99 115.402 230.427C114.943 229.772 114.222 228.527 114.222 228.527L113.632 227.478L112.977 226.298L112.518 225.184L112.125 224.136C112.125 224.136 112.125 223.48 112.125 223.021C112.077 222.656 111.966 222.301 111.797 221.973C111.797 221.58 111.207 221.58 110.814 221.055C110.528 220.764 110.324 220.403 110.224 220.007V219.679L109.766 219.155L109.176 218.368V217.909H108.848H108.52C108.52 217.909 108.52 217.909 108.52 219.024C108.52 220.138 107.996 220.859 107.996 221.317C107.915 221.795 107.915 222.282 107.996 222.759V223.153C107.976 223.283 107.976 223.415 107.996 223.546C107.996 224.332 109.045 224.201 108.914 225.25C108.838 225.945 108.565 226.605 108.127 227.15C108.127 227.15 107.734 227.544 107.406 227.478C107.079 227.413 104.85 225.446 104.85 224.725C104.77 224.138 104.77 223.543 104.85 222.956C104.85 222.956 104.85 222.628 104.85 222.432C104.85 222.235 104.85 222.432 104.85 221.645C104.85 220.859 104.85 221.121 104.85 220.728V220.203V219.024V218.172C104.866 217.975 104.866 217.778 104.85 217.582C104.85 216.73 105.178 215.878 105.178 215.878V215.485H105.506H106.03C106.225 215.449 106.425 215.449 106.62 215.485C106.788 215.419 106.976 215.419 107.144 215.485H107.734C108.32 215.78 108.889 216.108 109.438 216.468L110.093 216.992C110.487 217.582 110.749 217.451 110.093 216.992C109.438 216.533 110.093 216.533 109.7 216.206C109.565 216.001 109.455 215.781 109.372 215.55L109.045 214.502V213.977H108.717H108.324C107.938 214.321 107.521 214.628 107.079 214.895C106.374 215.227 105.714 215.645 105.112 216.14C104.523 216.533 104.391 217.189 104.129 217.385C104 217.412 103.866 217.412 103.736 217.385C103.408 217.778 103.736 218.237 103.736 218.696C103.341 219.001 102.885 219.218 102.399 219.331C101.912 219.444 101.407 219.451 100.918 219.351C100.918 219.351 101.311 218.106 101.508 217.778L102.163 217.057V216.599V216.271C102.163 216.271 103.277 215.353 103.998 214.698L105.112 213.584L106.227 212.666L106.685 212.208L107.406 211.749L108.062 211.225H108.783C109.128 211.23 109.458 211.371 109.7 211.618C110.01 211.828 110.277 212.095 110.487 212.404C110.611 212.615 110.721 212.834 110.814 213.06L111.273 213.65C111.273 213.65 112.256 214.96 112.256 215.026V215.419C112.702 215.231 113.162 215.077 113.632 214.96C114.152 214.863 114.686 214.863 115.205 214.96H115.926C116.319 214.96 116.385 214.567 116.909 214.305C117.171 214.114 117.458 213.96 117.761 213.846C117.761 213.846 117.761 213.846 118.679 213.322C119.168 213.098 119.612 212.787 119.99 212.404L120.579 211.88L121.759 210.635C122.087 210.242 122.087 210.11 122.087 210.11C122.127 210.005 122.127 209.888 122.087 209.783C122.087 209.783 122.087 209.783 121.694 209.783C121.264 209.704 120.86 209.524 120.514 209.258L119.596 208.669C119.275 208.442 118.922 208.266 118.548 208.144H117.696C117.482 208.21 117.254 208.21 117.04 208.144H116.647H118.155H117.958V207.686C117.92 207.469 117.92 207.247 117.958 207.03H118.482C118.544 207.001 118.611 206.986 118.679 206.986C118.747 206.986 118.814 207.001 118.875 207.03H119.465C119.704 207.073 119.948 207.073 120.186 207.03H120.842C121.343 207.073 121.847 207.073 122.349 207.03C122.895 206.999 123.442 206.999 123.987 207.03H124.774H124.446L124.512 201.328C124.325 201.151 124.101 201.017 123.856 200.935H123.201H124.053H124.446C124.446 200.935 124.774 200.935 124.905 200.935C125.036 200.935 124.905 200.935 124.512 200.935C124.118 200.935 124.184 200.935 124.184 200.935H125.036L125.691 201.263L126.216 201.787L126.609 202.115C126.692 202.151 126.781 202.17 126.871 202.17C126.961 202.17 127.051 202.151 127.133 202.115C127.133 202.115 127.133 202.115 127.133 201.787C127.063 201.597 127.063 201.388 127.133 201.197C127.133 201.197 127.526 200.607 127.592 200.607C127.658 200.607 127.592 200.607 127.592 201.066C128.063 201.615 128.399 202.265 128.575 202.967C128.871 203.041 129.157 203.151 129.427 203.294C129.876 203.611 130.201 204.075 130.345 204.605L131.393 204.933C131.653 204.994 131.898 205.105 132.114 205.261C132.114 205.261 132.77 206.047 132.442 206.113C132.114 206.178 132.114 205.785 131.918 205.785C131.748 205.725 131.563 205.725 131.393 205.785C130.934 205.785 130.017 205.785 130.279 205.785L130.869 206.178L131.524 206.899L131.852 207.358H132.376L132.901 207.751C133.099 208.02 133.274 208.305 133.425 208.603L133.753 208.996C133.753 208.996 133.753 208.996 133.425 208.996C133.097 208.996 133.425 208.996 133.425 208.996C133.425 208.996 133.425 208.669 132.966 208.603C132.507 208.538 132.966 208.603 132.573 208.603H132.114C131.874 208.512 131.652 208.379 131.459 208.21C131.209 208.072 130.968 207.919 130.738 207.751C130.41 207.751 129.951 207.03 129.886 207.358C129.82 207.686 129.886 207.751 129.886 207.751V208.079V208.406C129.87 208.581 129.87 208.756 129.886 208.931C129.978 209.134 130.141 209.298 130.345 209.39L130.934 209.717C131.245 209.87 131.515 210.094 131.721 210.373C131.879 210.574 132.011 210.794 132.114 211.028V211.421V211.028H131.786H131.459H130.541C130.436 210.859 130.388 210.66 130.406 210.462C130.423 210.264 130.505 210.077 130.638 209.929C130.771 209.781 130.949 209.68 131.144 209.642C131.339 209.604 131.542 209.63 131.721 209.717C131.721 209.717 131.721 209.258 131.393 209.39C131.066 209.521 131.393 209.39 131.393 209.39V209.914H131.721C131.894 210.094 132.048 210.291 132.18 210.504H131.721L131.328 210.176H130.934H130.541C130.541 210.176 130.541 210.176 130.082 209.717C129.995 209.658 129.893 209.626 129.788 209.626C129.682 209.626 129.58 209.658 129.493 209.717C129.099 209.717 129.886 210.176 130.214 210.504C130.613 210.785 130.894 211.206 131 211.683C130.979 211.857 130.979 212.034 131 212.208C131.188 212.399 131.343 212.621 131.459 212.863C131.459 212.863 131.459 212.863 131.459 213.256C131.459 213.65 132.049 213.781 132.049 214.043C132.049 214.305 131.59 214.043 131.393 214.043C131.197 214.043 131.393 213.453 130.672 213.125L131.066 212.798L130.279 212.011C130.279 212.011 129.689 211.356 129.624 211.618V212.011L130.214 212.666C130.403 212.929 130.557 213.216 130.672 213.518V213.912C130.636 214.04 130.636 214.176 130.672 214.305C130.672 214.633 131.197 214.698 131.459 214.96C131.721 215.222 131.459 214.96 131.459 214.96H130.803C130.529 214.837 130.3 214.631 130.148 214.37C130.042 214.293 129.953 214.195 129.885 214.083C129.818 213.97 129.773 213.845 129.755 213.715H129.427C129.297 213.74 129.164 213.74 129.034 213.715H128.575C128.182 213.715 128.903 214.174 129.099 214.567C129.296 214.96 129.099 214.567 129.099 214.96V215.354L129.493 215.747C129.648 215.963 129.759 216.208 129.82 216.468V216.861V217.32V217.647V217.123H129.427L128.903 216.599C128.863 216.771 128.863 216.95 128.903 217.123C128.903 217.123 129.296 217.582 128.903 217.713C128.766 217.607 128.654 217.473 128.575 217.32L127.789 216.271C127.461 216.271 127.789 216.271 127.789 216.271H128.182C128.36 216.37 128.516 216.504 128.641 216.664V217.189C128.8 217.401 129 217.58 129.23 217.713H128.903H128.313L127.789 217.189C127.789 217.189 127.789 217.189 127.33 216.795C126.871 216.402 126.937 216.795 126.871 216.795H126.543H127.133C127.288 216.999 127.42 217.218 127.526 217.451V217.909H127.199H126.871H126.478H125.888H125.167C124.774 217.909 124.381 217.189 124.25 217.254C124.118 217.32 124.25 217.582 124.643 217.778C124.838 218 125.058 218.198 125.298 218.368L125.822 218.761C126.216 218.761 126.216 219.482 126.412 219.941C126.543 220.178 126.751 220.364 127.002 220.465C127.002 220.465 127.002 220.465 127.592 220.465C128.182 220.465 128.313 220.465 128.444 220.465H127.92C127.596 220.537 127.26 220.537 126.937 220.465C126.61 220.308 126.32 220.085 126.085 219.81H125.757C125.757 219.81 125.233 219.81 124.905 219.286C124.577 218.761 124.905 219.286 124.446 218.958C123.987 218.63 124.446 218.958 124.446 218.958C124.446 218.958 124.446 218.958 124.774 219.351L125.298 219.745L125.757 220.269C125.738 220.399 125.738 220.532 125.757 220.662L126.085 221.252L125.757 220.793L125.233 220.4C125.34 220.375 125.453 220.375 125.56 220.4V220.924C125.592 221.076 125.592 221.232 125.56 221.383C125.528 221.534 125.528 221.691 125.56 221.842C125.56 222.169 125.56 221.842 125.56 222.235V221.776L125.233 221.317C125.251 221.209 125.251 221.098 125.233 220.99H124.839H124.446C124.29 220.861 124.157 220.705 124.053 220.531C124.053 220.531 124.053 220.924 123.594 221.055C123.336 221.955 123.336 222.909 123.594 223.808C123.815 225.101 124.212 226.358 124.774 227.544L125.233 228.133C125.791 228.87 126.274 229.66 126.674 230.493C127.068 231.345 127.526 232.656 127.526 232.656L127.854 234.032C127.904 234.577 127.904 235.125 127.854 235.67H128.444H129.689H130.607L131.197 235.343C131.675 235.076 132.098 234.72 132.442 234.294C132.737 233.843 132.979 233.359 133.163 232.852C133.414 232.311 133.591 231.737 133.687 231.148C133.687 231.148 133.687 229.903 134.015 229.444C134.038 229.051 134.038 228.657 134.015 228.265C134.015 228.265 134.015 227.675 134.015 227.281L134.342 226.298C134.473 225.939 134.626 225.589 134.801 225.25C135.108 224.821 135.46 224.426 135.85 224.07L136.636 223.546C137.076 223.261 137.565 223.061 138.078 222.956C138.471 222.956 139.061 222.563 139.258 222.956C139.454 223.349 139.258 222.956 138.799 223.284C138.168 223.585 137.574 223.959 137.029 224.398C136.585 224.741 136.207 225.163 135.915 225.643C135.71 225.96 135.576 226.318 135.522 226.692C136.15 226.469 136.763 226.206 137.357 225.905C138.078 225.446 138.93 224.594 139.127 224.66C139.323 224.725 139.127 224.988 139.127 225.119C138.917 225.427 138.675 225.713 138.406 225.971C138.098 226.284 137.744 226.549 137.357 226.757C136.95 226.962 136.592 227.253 136.309 227.609C135.935 227.949 135.701 228.417 135.653 228.92V229.313C135.653 229.313 136.767 228.92 137.357 228.396C137.947 227.871 138.078 227.544 138.406 227.347C138.734 227.15 138.406 227.871 138.406 228.199C138.051 228.693 137.606 229.115 137.095 229.444C136.671 229.67 136.345 230.043 136.178 230.493L135.784 231.345C135.59 231.829 135.458 232.335 135.391 232.852C135.436 233.31 135.436 233.771 135.391 234.229C135.109 235.231 134.593 236.152 133.884 236.916L132.901 237.636H132.049H130.869H130.148V238.161V239.078C130.12 239.348 130.005 239.601 129.82 239.799C129.82 239.799 129.82 239.799 129.427 240.389C129.034 240.979 129.427 241.176 129.099 241.7C128.772 242.224 129.099 241.241 129.099 240.979C129.006 240.503 129.006 240.013 129.099 239.537C129.136 239.32 129.136 239.099 129.099 238.882C129.166 238.602 129.166 238.31 129.099 238.03V237.702V238.095C129.128 238.357 129.128 238.62 129.099 238.882C128.975 239.234 128.798 239.565 128.575 239.865C128.367 240.213 128.101 240.524 127.789 240.782C127.48 241.095 127.126 241.36 126.74 241.569L125.822 242.224C125.364 242.683 125.822 243.011 125.364 243.011C124.905 243.011 125.364 242.617 125.364 242.355C125.322 242.262 125.301 242.162 125.301 242.06C125.301 241.959 125.322 241.858 125.364 241.765L125.888 241.241L126.412 240.782C126.752 240.44 127.059 240.067 127.33 239.668C127.542 239.331 127.676 238.95 127.723 238.554C127.596 238.509 127.457 238.509 127.33 238.554C127.33 238.554 127.33 238.554 126.937 239.209L126.543 239.734C126.378 239.93 126.246 240.151 126.15 240.389C126.094 240.152 126.094 239.905 126.15 239.668C126.15 239.668 126.15 239.34 126.15 239.144C126.278 238.868 126.432 238.605 126.609 238.357C126.609 238.357 126.609 237.899 127.068 237.44C127.118 237.246 127.118 237.043 127.068 236.85C126.959 237.102 126.828 237.343 126.674 237.571C126.275 238.167 125.763 238.679 125.167 239.078C124.612 239.447 124.019 239.755 123.398 239.996L121.956 240.455H120.71C120.376 240.629 120.067 240.85 119.793 241.11C119.49 241.453 119.326 241.897 119.334 242.355C119.252 242.633 119.252 242.929 119.334 243.207C119.334 243.207 119.334 243.6 119.334 243.928C119.334 244.256 119.334 243.928 119.334 243.928C119.371 244.057 119.371 244.193 119.334 244.321C119.334 244.321 119.334 244.715 119.334 244.846C119.185 244.891 119.025 244.891 118.875 244.846H118.351C116.824 245.098 115.371 245.68 114.091 246.55C113.632 246.55 114.091 246.877 113.37 247.205C112.649 247.533 112.649 247.205 112.322 247.205C111.994 247.205 112.322 248.254 111.535 248.319C110.409 248.322 109.319 247.927 108.455 247.205C108.455 246.746 109.176 246.484 109.372 246.353C109.569 246.222 111.207 246.025 111.732 245.37C112.256 244.715 111.732 245.37 112.649 244.846C113.947 244.425 115.217 243.921 116.451 243.338C116.796 243.212 117.11 243.01 117.368 242.748C117.437 242.666 117.475 242.561 117.475 242.454C117.475 242.346 117.437 242.241 117.368 242.159V241.503V240.192C117.368 240.192 117.368 239.537 117.368 239.144C117.368 238.751 117.368 237.768 117.368 237.768C117.338 237.309 117.338 236.85 117.368 236.391C117.587 235.549 117.99 234.766 118.548 234.097C119.334 233.114 119.859 233.114 120.907 231.738C120.907 231.738 121.3 230.821 120.907 230.821C120.514 230.821 120.907 231.279 120.448 231.541C119.99 231.804 118.875 232.918 118.023 233.966C117.535 234.538 117.178 235.209 116.975 235.932C116.896 236.366 116.896 236.81 116.975 237.243C116.975 237.243 116.975 237.768 116.975 238.095C116.975 238.423 116.975 238.751 116.975 238.751V239.799L116.582 240.258C116.582 240.258 116.582 240.258 115.926 240.258C115.551 240.141 115.197 239.964 114.878 239.734C113.363 238.623 111.682 237.76 109.897 237.178C109.526 237.214 109.153 237.214 108.783 237.178C108.455 237.178 108.324 236.719 107.931 236.653C107.21 236.653 107.406 237.571 106.095 236.653C104.785 235.736 104.457 235.277 104.785 235.015C105.112 234.753 105.506 235.015 106.292 234.622C107.025 234.713 107.748 234.867 108.455 235.08C108.455 235.08 109.176 235.08 109.635 235.08C110.093 235.08 110.552 235.539 110.552 235.539L111.928 236.129L114.55 237.047H115.271C115.271 237.047 115.73 237.047 115.926 236.653C115.965 236.503 115.965 236.345 115.926 236.195V235.736V234.753V233.573C115.903 233.115 115.903 232.655 115.926 232.197V230.755C115.889 230.297 115.889 229.837 115.926 229.379C116.035 228.815 116.258 228.28 116.582 227.806" fill="#1D252C"/>
<path d="M125.483 235.478C125.427 235.435 125.358 235.412 125.287 235.412C125.216 235.412 125.147 235.435 125.09 235.478C125.112 235.717 125.112 235.959 125.09 236.199C125.09 236.199 124.566 236.788 124.697 237.051C124.828 237.313 125.811 235.871 125.811 235.609C125.811 235.347 125.811 235.609 125.811 235.609" fill="white"/>
<path d="M113.051 246.422L114.362 245.898L115.672 245.242H115.148H114.82H114.165H113.706H113.313" fill="white"/>
<path d="M112.329 239.673H111.871L110.953 239.279L109.773 238.689C109.773 238.689 109.773 238.689 109.773 239.017C110.056 239.266 110.393 239.445 110.757 239.541H111.412H112.198" fill="white"/>
<path d="M121.766 213.452C122.56 213.081 123.307 212.619 123.994 212.075C124.584 211.486 125.305 209.978 124.846 210.306C124.387 210.634 124.191 211.223 123.666 211.682C123.059 212.283 122.401 212.831 121.7 213.321C121.7 213.321 121.373 213.321 121.7 213.321" fill="white"/>
<path d="M117.358 214.375H118.275L119.324 214.833C119.324 214.833 119.324 213.981 118.472 213.719C117.881 213.492 117.227 213.492 116.637 213.719" fill="white"/>
<path d="M111.828 216.269C111.828 216.269 112.484 215.81 112.877 215.482L113.794 214.893C113.423 214.969 113.081 215.151 112.811 215.417C112.484 215.417 111.894 216.269 111.894 216.4" fill="white"/>
<path d="M110.428 212.807C110.37 212.906 110.34 213.019 110.34 213.134C110.34 213.249 110.37 213.362 110.428 213.462C110.428 213.921 110.428 214.183 110.886 214.052C111.345 213.921 110.886 213.528 110.886 213.396V213.069" fill="white"/>
<path d="M102.11 216.802C102.11 216.802 102.11 216.802 101.782 217.13C101.455 217.457 101.782 217.13 101.782 217.13C101.782 217.13 101.782 217.13 101.782 216.736" fill="white"/>
<path d="M105.436 217.324C105.436 217.324 105.436 217.324 105.436 217.717C105.42 217.892 105.42 218.067 105.436 218.242C105.423 218.416 105.423 218.592 105.436 218.766C105.417 218.94 105.417 219.116 105.436 219.29C105.436 219.29 105.436 218.242 105.436 218.111C105.424 217.871 105.424 217.63 105.436 217.39" fill="white"/>
<path d="M109.736 218.505C109.353 218.143 109.002 217.748 108.688 217.325C108.688 217.325 108.098 216.866 108.36 216.801H108.819L109.212 217.194V217.718" fill="white"/>
<path d="M115.873 229.383C115.873 229.383 115.087 228.465 114.628 227.81C113.62 226.348 112.989 224.659 112.793 222.895C112.793 222.895 113.317 224.205 114.038 225.844C114.759 227.482 115.873 229.252 115.873 229.383Z" fill="white"/>
<path d="M120.773 229.385C120.315 229.385 119.79 230.171 120.118 230.433C120.446 230.696 120.446 229.975 120.773 229.778H121.494C122.084 229.778 121.494 229.319 120.773 229.778" fill="white"/>
<path d="M121.529 221.191C121.529 221.191 121.529 221.191 121.201 221.716C120.978 222.816 121.092 223.958 121.529 224.993C121.529 225.582 122.578 226.828 122.709 226.762C122.282 225.89 121.91 224.993 121.595 224.075C121.363 223.328 121.363 222.528 121.595 221.781C121.595 221.781 121.595 221.322 121.595 221.191" fill="white"/>
<path d="M122.957 203.168C122.455 203.204 121.951 203.204 121.449 203.168C121.948 203.249 122.457 203.249 122.957 203.168C123.295 203.091 123.609 202.933 123.874 202.709C123.874 202.709 123.874 202.709 123.874 202.709H123.022" fill="white"/>
<path d="M129.695 203.165H130.089C130.089 203.165 130.089 202.837 130.089 202.771" fill="white"/>
<path d="M125.05 207.632C125.05 207.632 125.64 207.632 125.836 207.632C125.979 207.562 126.094 207.447 126.164 207.305C126.164 207.305 126.164 207.305 126.164 207.305C126.164 207.305 124.984 207.698 124.984 207.763" fill="white"/>
<path d="M125.517 206.313C125.845 205.985 124.796 206.313 124.337 206.313H123.551C123.551 206.313 124.01 206.641 124.337 206.313L124.927 205.92H125.451" fill="white"/>
<path d="M124.498 207.955C124.847 208.131 125.224 208.242 125.612 208.283H125.94C125.35 208.283 124.367 208.283 124.367 208.283" fill="white"/>
<path d="M108.154 211.027C108.154 211.027 108.154 211.027 107.761 211.027C107.368 211.027 106.385 212.076 106.516 212.273C106.647 212.469 107.63 211.552 107.892 211.421C107.921 211.359 107.936 211.292 107.936 211.224C107.936 211.156 107.921 211.089 107.892 211.027" fill="white"/>
<path d="M117.066 236.462C116.879 236.876 116.768 237.32 116.738 237.773C116.738 238.232 117.066 237.249 117.263 236.921C117.459 236.593 117.263 236.528 117.787 236.266C118.311 236.003 117.787 235.741 117.066 236.266" fill="white"/>
<path d="M125.494 203.628C125.421 203.597 125.343 203.581 125.265 203.581C125.186 203.581 125.108 203.597 125.035 203.628C125.035 203.628 125.035 203.628 125.035 203.628C125.035 203.628 125.363 203.628 125.494 203.628C125.625 203.628 125.494 203.628 125.494 204.021C125.494 204.414 125.494 204.414 125.822 204.021C126.149 203.628 125.822 204.021 125.822 204.021C125.822 204.021 125.822 203.562 125.822 203.431C125.822 203.3 125.822 203.431 125.822 203.431" fill="white"/>
<path d="M129.224 205.984V206.312H129.683C130.01 206.312 129.683 206.312 130.141 206.312C129.926 206.264 129.702 206.264 129.486 206.312C129.486 206.312 129.093 205.984 129.027 206.312" fill="white"/>
<path d="M129.844 204.673C129.844 204.673 130.171 205.001 130.171 204.673C130.171 204.346 130.171 204.346 130.171 204.346" fill="white"/>
<path d="M129.613 207.426C129.613 207.426 129.613 207.426 129.285 207.426H129.678C129.678 207.426 129.678 207.426 129.678 207.033" fill="white"/>
<path d="M129.387 208.351C129.387 208.351 129.78 208.679 129.845 208.351C129.882 208.201 129.882 208.043 129.845 207.893" fill="white"/>
<path d="M129.097 209.323C128.991 209.288 128.876 209.288 128.77 209.323H129.228C129.228 209.323 129.228 208.93 129.228 208.799" fill="white"/>
<path d="M128.706 210.373H128.312H128.64C128.64 210.373 129.033 210.701 129.099 210.373C129.138 210.222 129.138 210.065 129.099 209.914" fill="white"/>
<path d="M127.816 212.472H127.488C127.488 212.472 127.882 212.866 127.947 212.472C128.013 212.079 127.947 212.472 127.947 212.014" fill="white"/>
<path d="M128.306 211.428C128.237 211.388 128.158 211.366 128.077 211.366C127.997 211.366 127.917 211.388 127.848 211.428C127.848 211.428 127.848 211.428 127.848 211.428C127.933 211.578 128.044 211.711 128.175 211.821C128.175 211.821 128.7 212.214 128.765 211.821C128.802 211.648 128.802 211.47 128.765 211.297" fill="white"/>
<path d="M127.34 213.456H127.668C127.668 213.456 127.668 213.456 127.668 213.062" fill="white"/>
<path d="M103.405 214.639C103.405 214.639 103.405 214.639 103.405 215.032C103.405 215.425 103.732 215.032 103.732 215.032C103.732 215.032 104.125 215.032 103.732 214.573C103.339 214.114 103.732 214.573 103.273 214.573" fill="white"/>
<path d="M60.5733 75.8281L67.3238 94.441L74.9918 75.8281H82.3976L90 94.3754L96.816 75.8281H103.173L93.6046 98.0456H86.0677L78.6619 79.957L70.8628 98.0456H63.326L54.0195 75.8281" fill="white"/>
<path d="M123.269 75.5036C128.511 74.9884 133.769 76.3088 138.146 79.2393C139.194 80.2245 140.013 81.4277 140.545 82.7639C141.077 84.1002 141.31 85.5369 141.226 86.9728C141.303 88.7802 140.855 90.5711 139.936 92.1294C139.017 93.6878 137.667 94.9469 136.049 95.7549C131.944 97.6387 127.455 98.5364 122.941 98.3764C118.04 98.7509 113.143 97.6067 108.916 95.0995C107.725 94.1703 106.762 92.9825 106.098 91.626C105.454 90.1589 105.119 88.5749 105.115 86.9728C105.086 85.3524 105.469 83.7513 106.229 82.3196C106.9 80.8923 107.941 79.6704 109.244 78.7805C111.043 77.6151 113.043 76.7929 115.142 76.3556C117.893 75.7288 120.71 75.4426 123.531 75.5036M123.531 78.3218C121.665 78.0778 119.769 78.2383 117.971 78.7924C116.173 79.3466 114.515 80.2813 113.11 81.5331C111.971 83.0842 111.414 84.9867 111.538 86.9073C111.452 88.0446 111.619 89.1867 112.027 90.2517C112.435 91.3168 113.074 92.2785 113.897 93.0678C116.704 94.9716 120.09 95.8298 123.465 95.4928C125.321 95.7271 127.205 95.5617 128.991 95.0078C130.777 94.454 132.423 93.5243 133.82 92.2814C134.815 90.7223 135.275 88.882 135.131 87.0383C135.222 85.9429 135.095 84.8403 134.758 83.7941C134.42 82.748 133.879 81.7791 133.165 80.9433C130.244 78.9705 126.693 78.153 123.203 78.6495" fill="white"/>
<path d="M153.167 88.6055V98.3052H147.203V75.8256H164.309C167.8 75.7056 171.289 76.1032 174.664 77.0052C175.822 77.4841 176.854 78.2243 177.678 79.168C178.041 79.5407 178.327 79.9817 178.518 80.4654C178.709 80.9492 178.802 81.4661 178.793 81.9861C178.776 82.9583 178.476 83.9045 177.929 84.708C177.382 85.5116 176.611 86.1374 175.712 86.5083C174.2 87.1402 172.615 87.5805 170.993 87.819C172.88 88.1908 174.653 88.9988 176.171 90.1784C177.266 91.4358 177.891 93.0339 177.941 94.7006C177.941 96.0769 177.941 96.8633 178.268 97.191C178.444 97.5254 178.664 97.8341 178.924 98.1085H172.763C172.574 97.9132 172.458 97.6585 172.435 97.3876C172.203 96.5518 172.049 95.6961 171.977 94.8316C171.869 93.8084 171.506 92.8285 170.922 91.9814C170.339 91.1342 169.552 90.4468 168.634 89.9818C165.606 88.9234 162.398 88.4778 159.197 88.671M153.167 85.7874H163.85C166.052 85.9844 168.272 85.7846 170.404 85.1975C171.064 85.0265 171.65 84.6408 172.067 84.101C172.485 83.5613 172.712 82.8981 172.712 82.2155C172.712 81.533 172.485 80.8698 172.067 80.33C171.65 79.7903 171.064 79.4046 170.404 79.2335C168.259 78.7212 166.051 78.5225 163.85 78.6437H153.167V85.7874Z" fill="white"/>
<path d="M184.644 75.8281H190.673V88.9358C190.631 89.9988 190.764 91.0616 191.067 92.0816C191.293 92.8204 191.782 93.4503 192.443 93.8511C194.998 95.0509 197.82 95.5702 200.635 95.3585H208.631V98.3077H199.39C197.065 98.3933 194.737 98.2395 192.443 97.849C190.816 97.5917 189.256 97.0124 187.855 96.145C186.808 95.5566 185.963 94.6657 185.43 93.589C184.843 92.295 184.573 90.8794 184.644 89.4601" fill="white"/>
<path d="M212.996 75.823H227.349C230.284 75.7483 233.22 75.9017 236.131 76.2818C239.236 76.752 242.084 78.28 244.192 80.6073C245.577 82.3306 246.298 84.4931 246.224 86.7024C246.367 88.8584 245.805 91.0025 244.623 92.8112C243.44 94.6199 241.702 95.9952 239.67 96.7297C238.225 97.2196 236.731 97.5492 235.214 97.7128C232.885 97.9624 230.543 98.0718 228.201 98.0405H212.996M218.96 78.379V94.8946H228.529C231.678 95.1876 234.836 94.4269 237.507 92.7319C238.289 91.9838 238.899 91.0747 239.296 90.0676C239.692 89.0605 239.864 87.9794 239.801 86.899C239.877 85.6746 239.675 84.449 239.209 83.3139C238.744 82.1789 238.028 81.164 237.114 80.3452C236.166 79.5349 235.007 79.012 233.772 78.8378C231.884 78.565 229.972 78.4991 228.07 78.6412L218.96 78.379Z" fill="white"/>
<path d="M67.102 48.8921V58.9195H72.8038V64.097H53.8633V58.9195H58.9097V32.6387H54.9774V26.7402H230.816V32.6387H67.102V43.9768H70.8377V40.11H76.1463V52.5623H70.8377V48.8921" fill="#FFF200"/>
<path d="M218.377 43.5141L216.28 45.8735C215.202 47.1264 214.257 48.4882 213.461 49.9368V58.9811H216.28V64.1586H203.172V58.9811H205.728V41.6135H203.172V37.288H213.658V42.6621L214.379 41.679C214.966 40.8566 215.601 40.0688 216.28 39.3197C216.855 38.5687 217.587 37.9514 218.424 37.5102C219.262 37.069 220.184 36.8143 221.129 36.7637C224.341 36.7637 226.11 38.4677 226.11 41.2858V52.8861H218.704V43.1864" fill="#FFF200"/>
<path d="M244.715 26.8672H235.016V34.0764H244.715V26.8672Z" fill="#FFF200"/>
<path d="M128.985 43.5141C128.461 44.1039 127.805 44.9559 127.019 45.8079C125.976 47.0733 125.055 48.4338 124.266 49.8713V58.9811H126.691V64.1586H113.977V58.9811H116.598V41.6135H113.977V37.288H124.528V42.6621L125.315 41.679C125.73 40.8542 126.212 40.0651 126.757 39.3197C127.325 38.5768 128.047 37.9644 128.872 37.5235C129.697 37.0826 130.607 36.8235 131.541 36.7637C134.818 36.7637 136.653 38.4677 136.653 41.2858V52.8861H129.312V43.1864" fill="#FFF200"/>
<path d="M246.159 64.1578H233.117V58.9147H235.87V41.6126H233.117V37.2871H243.603V58.9147H246.159" fill="#FFF200"/>
<path d="M158.208 43.5141L156.308 45.8735C155.265 47.1389 154.344 48.4993 153.555 49.9368V58.9811H155.98V64.1586H143.266V58.9811H145.822V41.6135H143.266V37.288H153.555V42.6621L154.276 41.679C154.821 40.86 155.412 40.0723 156.046 39.3197C156.614 38.5768 157.336 37.9644 158.161 37.5235C158.986 37.0826 159.896 36.8235 160.83 36.7637C164.107 36.7637 165.876 38.4677 165.876 41.2858V52.8861H158.536V43.1864" fill="#FFF200"/>
<path fill-rule="evenodd" clip-rule="evenodd" d="M184.471 36.8958C191.483 36.8958 194.367 37.7478 194.301 42.5977V58.9822H196.923V64.1597H179.359C178.531 64.2523 177.693 64.1685 176.9 63.9138C176.107 63.6591 175.376 63.2393 174.757 62.6821C174.138 62.1249 173.644 61.4428 173.307 60.6808C172.971 59.9188 172.8 59.0942 172.805 58.2613V54.7222C172.805 51.5108 174.574 48.7582 180.145 48.6927H186.699V43.7118C186.699 41.2214 186.699 41.0247 184.077 41.0247C181.456 41.0247 180.932 41.0247 180.932 43.7118V45.8746H173.788V43.253C173.788 37.7478 176.803 36.6992 184.471 36.6992M180.342 57.5404C180.342 58.7856 180.866 59.6376 182.177 59.6376H184.602C185.781 59.6376 186.699 59.3099 186.699 57.5404V52.4284H182.177C181.915 52.436 181.658 52.4975 181.422 52.609C181.185 52.7206 180.974 52.8798 180.802 53.0766C180.629 53.2735 180.5 53.5038 180.42 53.7531C180.341 54.0025 180.315 54.2654 180.342 54.5256V57.5404Z" fill="#FFF200"/>
<path fill-rule="evenodd" clip-rule="evenodd" d="M97.1988 49.549V42.3398C97.1988 41.5534 96.74 41.1602 95.6259 41.0946H92.6766C91.3659 41.0946 91.0382 41.6189 91.0382 42.8641V49.418M94.5117 64.5573H93.7253C86.6471 64.5573 83.3047 63.5742 83.3047 58.0035V43.5851C83.3047 38.8008 85.6641 37.0312 93.5942 37.0312H94.6428C101.852 37.0312 104.998 38.6042 104.998 42.602V52.8915H90.9071V58.9865C90.9481 59.2329 91.0623 59.4613 91.2348 59.6419C91.2348 59.6419 92.2179 60.0351 94.184 60.0351C97.3954 60.0351 97.592 60.0351 97.592 57.5447V54.9232H104.867V58.9865C104.867 64.033 102.114 64.5573 94.3806 64.6884" fill="#FFF200"/>
</g>
</svg>
