<svg width="915" height="941" viewBox="0 0 915 941" fill="none" xmlns="http://www.w3.org/2000/svg">
<path d="M44.345 21.2776L227.094 249.963L329.903 167.636L212.975 21.2776H44.345ZM359.93 171.017L442.654 274.621L539.696 197.067H711.111C755.309 197.267 798.239 211.856 833.407 238.628C850.533 220.268 861.922 197.305 866.175 172.561C870.428 147.817 867.36 122.37 857.347 99.3458C847.335 76.3217 830.815 56.7241 809.816 42.9609C788.818 29.1977 764.256 21.8687 739.149 21.8742H547.253L359.93 171.017ZM284.365 582.649H430.325V311.807L284.365 428.536V582.649ZM554.213 582.649H711.111C747.89 582.902 783.883 572.002 814.343 551.388C844.803 530.773 868.301 501.411 881.738 467.172C895.174 432.934 897.92 395.428 889.611 359.598C881.303 323.769 862.331 291.298 835.197 266.468C808.393 288.421 774.79 300.372 740.144 300.273H555.207L554.213 582.649ZM849.714 251.752C879.702 279.591 900.589 315.833 909.641 355.738C918.693 395.642 915.489 437.349 900.448 475.403C885.407 513.456 859.23 546.083 825.342 569.015C791.453 591.946 751.432 604.114 710.514 603.927H531.543V278.399H739.149C767.328 278.573 794.784 269.49 817.3 252.548C786.292 230.486 749.165 218.667 711.111 218.742H547.253L451.802 294.904V603.927H263.087V417.599L426.149 287.348L343.226 184.34L223.912 279.99L0 5.73838e-06H223.316L346.607 154.313L539.696 5.73838e-06H738.553C767.714 -0.00805512 796.247 8.47652 820.666 24.4174C845.084 40.3583 864.332 63.0655 876.058 89.7654C887.784 116.465 891.481 146.002 886.697 174.769C881.912 203.535 868.854 230.285 849.117 251.752" fill="#004A6C"/>
<path d="M168.865 861.064L151.565 889.899L134.264 861.064H116.367L143.611 905.211V940.806H159.32V905.211L186.762 861.064H168.865Z" fill="#004A6C"/>
<path d="M406.649 892.485C396.905 889.9 390.74 888.11 390.541 881.747C390.541 869.616 415.398 873.395 426.534 879.161V864.645C409.83 856.691 375.229 855.498 374.633 881.548C374.621 887.141 376.625 892.551 380.277 896.787C383.929 901.024 388.985 903.802 394.519 904.615C404.064 907.399 417.188 908.393 417.984 916.348C418.779 924.302 412.813 927.484 405.058 927.484C395.64 927.223 386.373 925.058 377.815 921.12V934.642C394.519 944.784 434.091 945.381 433.892 916.944C433.892 898.649 419.177 894.871 407.444 891.888" fill="#004A6C"/>
<path d="M850.127 861.064L832.827 889.899L815.526 861.064H797.828L825.072 905.211V940.806H840.582V905.211L868.025 861.064H850.127Z" fill="#004A6C"/>
<path d="M603.938 915.94C604.103 913.334 603.236 910.767 601.524 908.795C599.813 906.823 597.394 905.604 594.791 905.4H569.934V925.286H594.791C596.062 925.235 597.311 924.931 598.463 924.391C599.615 923.851 600.648 923.086 601.5 922.141C602.352 921.196 603.007 920.091 603.426 918.889C603.845 917.687 604.019 916.414 603.938 915.144M569.934 875.373V891.083H592.405C597.575 891.083 600.955 888.696 600.955 883.526C600.955 878.356 598.569 874.975 592.405 874.975L569.934 875.373ZM619.648 917.332C619.6 920.5 618.91 923.626 617.621 926.521C616.332 929.416 614.47 932.02 612.147 934.175C609.824 936.331 607.089 937.994 604.106 939.063C601.123 940.133 597.954 940.587 594.791 940.399H555.02V860.856H593.2C596.174 860.723 599.145 861.187 601.937 862.222C604.728 863.256 607.284 864.84 609.453 866.879C611.622 868.919 613.36 871.372 614.565 874.095C615.77 876.817 616.416 879.754 616.466 882.731C616.516 885.644 615.853 888.525 614.537 891.124C613.22 893.723 611.288 895.962 608.91 897.645C612.107 899.897 614.728 902.871 616.559 906.326C618.39 909.782 619.38 913.62 619.449 917.53" fill="#004A6C"/>
<path d="M278.435 879.16L290.963 916.347H265.907L278.435 879.16ZM268.691 861.064L240.652 940.607H258.549L261.731 930.863H296.73L299.912 940.607H317.013L288.974 861.064H268.691Z" fill="#004A6C"/>
<path d="M711.107 879.16L723.436 916.347H698.579L711.107 879.16ZM701.164 861.064L673.324 940.607H690.227L693.608 930.863H728.407L731.788 940.607H748.89L720.652 861.064H701.164Z" fill="#004A6C"/>
<path d="M414.604 750.467C414.604 752.259 414.248 754.034 413.556 755.688C412.864 757.342 411.85 758.841 410.573 760.099C409.296 761.358 407.782 762.35 406.119 763.017C404.455 763.685 402.675 764.015 400.883 763.989H371.651C371.086 764.016 370.522 763.928 369.992 763.73C369.462 763.532 368.978 763.229 368.569 762.838C368.16 762.448 367.834 761.978 367.612 761.458C367.39 760.938 367.275 760.379 367.276 759.813V685.043H351.566V759.813C351.566 765.087 353.661 770.145 357.391 773.874C361.12 777.604 366.178 779.699 371.452 779.699H400.684C408.489 779.699 415.975 776.598 421.495 771.079C427.014 765.559 430.115 758.073 430.115 750.268V711.889H414.405L414.604 750.467Z" fill="#004A6C"/>
<path d="M300.493 726.805H287.169V721.038C287.205 718.877 287.836 716.768 288.994 714.944C290.152 713.119 291.791 711.65 293.732 710.698C296.484 709.448 299.537 709.009 302.53 709.432C305.524 709.854 308.335 711.121 310.634 713.084L319.782 700.158C315.214 696.382 309.665 693.983 303.784 693.244C297.903 692.504 291.934 693.454 286.573 695.982C282.031 698.22 278.196 701.671 275.494 705.952C272.792 710.234 271.326 715.18 271.261 720.243V741.918H300.493C302.012 741.71 303.558 741.829 305.027 742.269C306.496 742.708 307.854 743.457 309.009 744.465C310.165 745.473 311.091 746.716 311.726 748.112C312.36 749.508 312.689 751.024 312.689 752.557C312.689 754.09 312.36 755.606 311.726 757.002C311.091 758.397 310.165 759.641 309.009 760.649C307.854 761.657 306.496 762.406 305.027 762.845C303.558 763.284 302.012 763.404 300.493 763.196H145.782C143.999 763.223 142.229 762.891 140.576 762.221C138.923 761.551 137.422 760.556 136.161 759.295C134.9 758.034 133.905 756.533 133.235 754.88C132.565 753.227 132.233 751.457 132.26 749.674V721.038H116.352V750.469C116.404 758.258 119.521 765.714 125.029 771.222C130.537 776.73 137.993 779.848 145.782 779.9H300.493C307.137 779.324 313.324 776.278 317.831 771.363C322.339 766.448 324.84 760.021 324.84 753.352C324.84 746.683 322.339 740.257 317.831 735.342C313.324 730.427 307.137 727.381 300.493 726.805" fill="#004A6C"/>
<path d="M396.575 793.633C394.36 793.633 392.235 794.513 390.669 796.079C389.103 797.645 388.223 799.77 388.223 801.985C388.222 804.219 389.096 806.364 390.656 807.962C392.217 809.56 394.341 810.484 396.575 810.536C398.827 810.485 400.972 809.568 402.565 807.975C404.158 806.382 405.075 804.237 405.125 801.985C405.074 799.752 404.15 797.627 402.552 796.067C400.954 794.506 398.808 793.632 396.575 793.633" fill="#004A6C"/>
<path d="M213.609 793.633C211.376 793.632 209.23 794.506 207.632 796.067C206.034 797.627 205.111 799.752 205.059 801.985C205.059 804.253 205.959 806.428 207.563 808.031C209.167 809.635 211.342 810.536 213.609 810.536C215.877 810.536 218.052 809.635 219.656 808.031C221.259 806.428 222.16 804.253 222.16 801.985C222.108 799.752 221.185 797.627 219.587 796.067C217.989 794.506 215.843 793.632 213.609 793.633" fill="#004A6C"/>
<path d="M235.863 793.602C234.74 793.576 233.623 793.771 232.575 794.176C231.528 794.582 230.57 795.19 229.758 795.965C228.945 796.741 228.293 797.669 227.84 798.696C227.386 799.724 227.139 800.831 227.113 801.954C227.165 804.24 228.11 806.415 229.745 808.013C231.381 809.611 233.576 810.505 235.863 810.505C238.096 810.453 240.22 809.529 241.781 807.931C243.342 806.333 244.216 804.188 244.215 801.954C244.215 799.739 243.335 797.615 241.769 796.048C240.202 794.482 238.078 793.602 235.863 793.602Z" fill="#004A6C"/>
<path d="M852.12 711.889V750.467C852.147 752.25 851.815 754.02 851.145 755.673C850.475 757.326 849.48 758.827 848.219 760.088C846.958 761.349 845.457 762.344 843.804 763.014C842.151 763.684 840.381 764.016 838.598 763.989H809.366C808.801 764.016 808.236 763.928 807.707 763.73C807.177 763.532 806.693 763.229 806.283 762.838C805.874 762.448 805.549 761.978 805.327 761.458C805.105 760.938 804.99 760.379 804.991 759.813V685.043H789.281V759.813C789.281 765.087 791.376 770.145 795.106 773.874C798.835 777.604 803.893 779.699 809.167 779.699H838.399C846.204 779.699 853.69 776.598 859.209 771.079C864.729 765.559 867.83 758.073 867.83 750.268V711.889H852.12Z" fill="#004A6C"/>
<path d="M743.133 751.671C743.133 758.432 743.133 764 735.378 764H702.964V721.047H687.255V764H645.893V721.047H630.183V769.568C630.148 774.972 628.339 780.215 625.033 784.491C621.728 788.766 617.109 791.838 611.888 793.232C601.452 795.785 590.447 794.516 580.867 789.653C577.64 787.399 574.976 784.433 573.079 780.985C571.183 777.537 570.105 773.699 569.929 769.767V746.501H554.22V768.972C554.163 776.728 556.375 784.331 560.583 790.846C565.353 798.148 572.135 803.912 580.111 807.441C588.086 810.97 596.913 812.113 605.525 810.732C614.583 811.007 623.464 808.18 630.696 802.719C637.929 797.259 643.08 789.492 645.296 780.704H735.776C751.287 780.704 759.44 767.977 759.44 752.467V712.695H743.531L743.133 751.671Z" fill="#004A6C"/>
<path d="M844.941 793.602C843.818 793.576 842.701 793.771 841.653 794.176C840.606 794.582 839.648 795.19 838.836 795.965C838.023 796.741 837.372 797.669 836.918 798.696C836.464 799.724 836.217 800.831 836.191 801.954C836.243 804.24 837.188 806.415 838.823 808.013C840.459 809.611 842.655 810.505 844.941 810.505C847.174 810.453 849.298 809.529 850.859 807.931C852.42 806.333 853.294 804.188 853.293 801.954C853.293 799.739 852.413 797.615 850.847 796.048C849.281 794.482 847.156 793.602 844.941 793.602Z" fill="#004A6C"/>
<path d="M822.688 793.633C820.454 793.632 818.308 794.506 816.71 796.067C815.112 797.627 814.189 799.752 814.137 801.985C814.187 804.237 815.105 806.382 816.697 807.975C818.29 809.568 820.436 810.485 822.688 810.536C824.921 810.484 827.045 809.56 828.606 807.962C830.167 806.364 831.04 804.219 831.04 801.985C831.04 799.77 830.16 797.645 828.593 796.079C827.027 794.513 824.903 793.633 822.688 793.633Z" fill="#004A6C"/>
</svg>
