<svg xmlns="http://www.w3.org/2000/svg" xmlns:xlink="http://www.w3.org/1999/xlink" viewBox="0 0 89.54 35.39"><defs><style>.cls-1{fill:none;}.cls-2{clip-path:url(#clip-path);}.cls-3{fill:#333;}.cls-4{fill:#1ba6b8;}</style><clipPath id="clip-path"><rect class="cls-1" width="89.54" height="35.39"/></clipPath></defs><title>logo-miral-destinations</title><g id="Layer_2" data-name="Layer 2"><g id="Layer_1-2" data-name="Layer 1"><g class="cls-2"><path class="cls-3" d="M20.32,31.91h0a2,2,0,0,1-2-2V5.44a2,2,0,0,1,3.92,0V30a2,2,0,0,1-2,2"/><path class="cls-3" d="M2,31.91H2a2,2,0,0,1-2-2V5.44a2,2,0,1,1,3.91,0V30a2,2,0,0,1-1.95,2"/><path class="cls-3" d="M11.14,27.35h0a2,2,0,0,1-2-2V10a2,2,0,0,1,3.91,0V25.4a2,2,0,0,1-1.95,2"/><path class="cls-3" d="M13.39,2.26A2.26,2.26,0,1,1,11.14,0a2.25,2.25,0,0,1,2.25,2.26"/><path class="cls-4" d="M13.39,33.13a2.26,2.26,0,1,1-2.25-2.25,2.26,2.26,0,0,1,2.25,2.25"/><path class="cls-3" d="M41.28,6.2a1.25,1.25,0,0,0-1,.57l-3.89,6.16L32.46,6.77a1.26,1.26,0,0,0-1.05-.57,1.23,1.23,0,0,0-1.23,1.23V18.74a1,1,0,0,0,2,0v-8.6L36,16a.38.38,0,0,0,.33.18.39.39,0,0,0,.34-.18l3.8-5.9v8.61a1,1,0,0,0,1,1h0a1,1,0,0,0,1-1V7.43A1.24,1.24,0,0,0,41.28,6.2"/><path class="cls-3" d="M48.05,6.2a1,1,0,0,0-1,1v11.5a1,1,0,0,0,2,0V7.22a1,1,0,0,0-1-1"/><path class="cls-3" d="M73.19,7A1.31,1.31,0,0,0,72,6.2a1.29,1.29,0,0,0-1.2.8L65.87,18.37a1,1,0,0,0,.08.93,1,1,0,0,0,1.72-.15l1.19-2.78h6.19l1.18,2.78a1,1,0,0,0,.9.59h.07A1,1,0,0,0,78,19.3a1,1,0,0,0,.08-.93Zm-3.5,7.42L72,9.09l2.25,5.33Z"/><path class="cls-3" d="M59.08,6.2H53V18.72a1,1,0,1,0,2,0v-4H58l3.27,4.58a1,1,0,0,0,.83.43,1,1,0,0,0,.91-.56,1,1,0,0,0-.08-1.06l-2.58-3.59a4.24,4.24,0,0,0,2.95-4v0A4.24,4.24,0,0,0,59.08,6.2m-4,2h4a2.24,2.24,0,0,1,2.23,2.25v0a2.24,2.24,0,0,1-2.23,2.25h-4Z"/><path class="cls-3" d="M88.42,17.77h-4a1.28,1.28,0,0,1-.91-.38,1.25,1.25,0,0,1-.38-.91V7.19a1,1,0,0,0-1-1H82a1,1,0,0,0-.89,1V17a2.78,2.78,0,0,0,2.78,2.77h4.53a1,1,0,1,0,0-2"/><path class="cls-4" d="M30.12,23.21a.4.4,0,0,1,.39-.39h2a3.46,3.46,0,0,1,3.69,3.45v0a3.48,3.48,0,0,1-3.69,3.47h-2a.4.4,0,0,1-.39-.4ZM32.53,29a2.69,2.69,0,0,0,2.88-2.72v0a2.7,2.7,0,0,0-2.88-2.75H30.9V29Z"/><path class="cls-4" d="M40,29.88a2.55,2.55,0,0,1-2.56-2.67v0a2.53,2.53,0,0,1,2.46-2.67,2.41,2.41,0,0,1,2.38,2.6.36.36,0,0,1-.36.36h-3.7A1.78,1.78,0,0,0,40,29.21a2.08,2.08,0,0,0,1.48-.59.34.34,0,0,1,.22-.09.33.33,0,0,1,.33.33.31.31,0,0,1-.12.24,2.58,2.58,0,0,1-1.93.78m1.52-3a1.69,1.69,0,0,0-1.64-1.74,1.75,1.75,0,0,0-1.66,1.74Z"/><path class="cls-4" d="M43.34,29.21a.34.34,0,0,1-.14-.27.34.34,0,0,1,.34-.33.31.31,0,0,1,.19.06,2.94,2.94,0,0,0,1.63.54c.61,0,1.06-.31,1.06-.81v0c0-.52-.61-.71-1.28-.9S43.44,27,43.44,26v0a1.56,1.56,0,0,1,1.75-1.47,3.52,3.52,0,0,1,1.63.44.37.37,0,0,1,.19.32.32.32,0,0,1-.33.32.39.39,0,0,1-.17,0,2.89,2.89,0,0,0-1.34-.39c-.61,0-1,.31-1,.74v0c0,.49.63.68,1.32.88s1.64.55,1.64,1.47v0a1.61,1.61,0,0,1-1.82,1.54,3.55,3.55,0,0,1-2-.65"/><path class="cls-4" d="M48.73,28.4V25.31h-.42A.34.34,0,0,1,48,25a.34.34,0,0,1,.33-.34h.42V23.42a.37.37,0,0,1,.38-.38.39.39,0,0,1,.38.38v1.21h1.33a.35.35,0,0,1,.35.34.35.35,0,0,1-.35.34H49.49v3a.76.76,0,0,0,.87.85,2.16,2.16,0,0,0,.46-.07.33.33,0,0,1,.33.33.32.32,0,0,1-.22.3,1.93,1.93,0,0,1-.75.14,1.31,1.31,0,0,1-1.45-1.45"/><path class="cls-4" d="M52.47,23a.45.45,0,0,1,.9,0v.12a.45.45,0,0,1-.9,0ZM52.54,25a.39.39,0,0,1,.38-.39.38.38,0,0,1,.38.39v4.45a.37.37,0,0,1-.37.39.38.38,0,0,1-.39-.39Z"/><path class="cls-4" d="M55.08,25a.38.38,0,1,1,.76,0v.55a2,2,0,0,1,1.76-1,1.88,1.88,0,0,1,2,2.06v2.84a.38.38,0,0,1-.38.39.38.38,0,0,1-.38-.39V26.76a1.36,1.36,0,0,0-1.42-1.54,1.51,1.51,0,0,0-1.54,1.6v2.6a.38.38,0,0,1-.38.39.38.38,0,0,1-.38-.39Z"/><path class="cls-4" d="M60.8,28.27v0c0-1.08.89-1.65,2.19-1.65a5.81,5.81,0,0,1,1.58.21v-.17c0-.93-.57-1.4-1.53-1.4a3.22,3.22,0,0,0-1.33.29.36.36,0,0,1-.14,0,.33.33,0,0,1-.33-.32.35.35,0,0,1,.21-.32,4,4,0,0,1,1.67-.35,2.24,2.24,0,0,1,1.66.57,2.05,2.05,0,0,1,.52,1.5v2.8a.36.36,0,0,1-.36.38.35.35,0,0,1-.37-.36V29a2.27,2.27,0,0,1-1.86.88,1.73,1.73,0,0,1-1.91-1.6m3.78-.39v-.5a5.32,5.32,0,0,0-1.51-.22c-1,0-1.5.42-1.5,1.06v0c0,.65.6,1,1.29,1a1.55,1.55,0,0,0,1.72-1.38"/><path class="cls-4" d="M67.15,28.4V25.31h-.42A.34.34,0,0,1,66.4,25a.34.34,0,0,1,.33-.34h.42V23.42a.37.37,0,0,1,.38-.38.39.39,0,0,1,.38.38v1.21h1.33a.35.35,0,0,1,.35.34.35.35,0,0,1-.35.34H67.91v3a.76.76,0,0,0,.87.85,2.16,2.16,0,0,0,.46-.07.33.33,0,0,1,.33.33.32.32,0,0,1-.22.3,1.93,1.93,0,0,1-.75.14,1.31,1.31,0,0,1-1.45-1.45"/><path class="cls-4" d="M70.89,23a.45.45,0,0,1,.9,0v.12a.45.45,0,0,1-.9,0ZM71,25a.39.39,0,0,1,.38-.39.38.38,0,0,1,.38.39v4.45a.37.37,0,0,1-.37.39.38.38,0,0,1-.39-.39Z"/><path class="cls-4" d="M73.18,27.22v0a2.67,2.67,0,0,1,5.34,0v0a2.66,2.66,0,0,1-2.68,2.68,2.63,2.63,0,0,1-2.66-2.66m4.56,0v0a1.94,1.94,0,0,0-1.9-2,1.89,1.89,0,0,0-1.88,2v0a1.93,1.93,0,0,0,1.9,2,1.89,1.89,0,0,0,1.88-2"/><path class="cls-4" d="M79.91,25a.38.38,0,0,1,.37-.39.38.38,0,0,1,.39.39v.55a2,2,0,0,1,1.75-1,1.88,1.88,0,0,1,2,2.06v2.84a.39.39,0,1,1-.77,0V26.76a1.36,1.36,0,0,0-1.41-1.54,1.5,1.5,0,0,0-1.54,1.6v2.6a.38.38,0,1,1-.76,0Z"/><path class="cls-4" d="M85.74,29.21a.34.34,0,0,1-.14-.27.34.34,0,0,1,.34-.33.3.3,0,0,1,.18.06,2.94,2.94,0,0,0,1.63.54c.62,0,1.06-.31,1.06-.81v0c0-.52-.6-.71-1.28-.9S85.84,27,85.84,26v0a1.55,1.55,0,0,1,1.74-1.47,3.56,3.56,0,0,1,1.64.44.37.37,0,0,1,.19.32.33.33,0,0,1-.34.32.39.39,0,0,1-.17,0,2.86,2.86,0,0,0-1.34-.39c-.6,0-1,.31-1,.74v0c0,.49.63.68,1.32.88s1.65.55,1.65,1.47v0a1.62,1.62,0,0,1-1.83,1.54,3.51,3.51,0,0,1-2-.65"/></g></g></g></svg>