<svg xmlns="http://www.w3.org/2000/svg" xmlns:xlink="http://www.w3.org/1999/xlink" viewBox="0 0 137.54 50.79"><defs><style>.cls-1{fill:none;}.cls-2{clip-path:url(#clip-path);}.cls-3{fill:url(#linear-gradient);}.cls-4{clip-path:url(#clip-path-2);}.cls-5{fill:url(#linear-gradient-2);}.cls-6{clip-path:url(#clip-path-3);}.cls-7{fill:url(#linear-gradient-3);}.cls-8{fill:#170530;}.cls-9{clip-path:url(#clip-path-4);}</style><clipPath id="clip-path"><path class="cls-1" d="M11.14,8.4a6.25,6.25,0,0,0,.34,8.83l4,3.71a4.17,4.17,0,0,1,1.23,4l-1.2,5.34a6.21,6.21,0,0,0,1.37,5.47c1.86,1.84,4.7-.19,5.38-3.19l.16-.72a.84.84,0,0,1-1,.63.81.81,0,0,1-.61-.57.78.78,0,0,1,0-.43L22,26.12A9.64,9.64,0,0,0,19.18,17L16.51,14.5l-1.89-1.75c-2.26-2.08-2.59-5.54-.09-6.24A6.15,6.15,0,0,0,11.14,8.4"/></clipPath><linearGradient id="linear-gradient" x1="-321.96" y1="412.25" x2="-320.96" y2="412.25" gradientTransform="matrix(0, -29.91, -29.91, 0, 12345.32, -9592.46)" gradientUnits="userSpaceOnUse"><stop offset="0" stop-color="#170530"/><stop offset="0.04" stop-color="#26274b"/><stop offset="0.09" stop-color="#364c68"/><stop offset="0.15" stop-color="#446c81"/><stop offset="0.21" stop-color="#4f8797"/><stop offset="0.28" stop-color="#599ea8"/><stop offset="0.36" stop-color="#60aeb6"/><stop offset="0.46" stop-color="#65babf"/><stop offset="0.61" stop-color="#68c1c5"/><stop offset="1" stop-color="#69c3c6"/><stop offset="1" stop-color="#69c3c6"/></linearGradient><clipPath id="clip-path-2"><path class="cls-1" d="M14.55,6.5c-2.52.69-2.19,4.16.07,6.25l.54.5a.84.84,0,0,1,.76-1.42.79.79,0,0,1,.37.2l4,3.71a9.57,9.57,0,0,0,4.39,2.31,9.71,9.71,0,0,0,5-.19l3.47-1.08L35.58,16c2.94-.91,6.11.52,5.46,3a6.19,6.19,0,0,0,.06-3.88,6.26,6.26,0,0,0-7.83-4.12l-5.22,1.62A4.16,4.16,0,0,1,24,11.76L20,8.05a6.22,6.22,0,0,0-4.24-1.66,6.73,6.73,0,0,0-1.18.11"/></clipPath><linearGradient id="linear-gradient-2" x1="-322.41" y1="441.68" x2="-321.41" y2="441.68" gradientTransform="matrix(0, 29.91, 29.91, 0, -13182.84, 9640.64)" xlink:href="#linear-gradient"/><clipPath id="clip-path-3"><path class="cls-1" d="M37.39,15.74a6,6,0,0,0-1.81.28l-.7.22a.83.83,0,1,1,.49,1.59l-5.22,1.62A9.57,9.57,0,0,0,26,22.1a9.68,9.68,0,0,0-2.32,4.39L22.84,30l-.56,2.51c-.68,3-3.51,5-5.37,3.2A6.24,6.24,0,0,0,27.72,33l1.21-5.33a4.16,4.16,0,0,1,2.83-3.06L37,23A6.29,6.29,0,0,0,41,19.08c.52-2-1.37-3.34-3.65-3.34h0"/></clipPath><linearGradient id="linear-gradient-3" x1="-347.68" y1="426.57" x2="-346.68" y2="426.57" gradientTransform="matrix(-29.91, 0, 0, 29.91, -10354.02, -12730.92)" xlink:href="#linear-gradient"/><clipPath id="clip-path-4"><rect class="cls-1" x="8.79" y="6.39" width="128.75" height="41.93"/></clipPath></defs><title>logo-yas-asset-management</title><g id="Layer_2" data-name="Layer 2"><g id="Layer_1-2" data-name="Layer 1"><g class="cls-2"><rect class="cls-3" x="4.5" y="5.18" width="22.24" height="33.71" transform="translate(-5.83 5.62) rotate(-17.24)"/></g><g class="cls-4"><rect class="cls-5" x="17.4" y="-3.14" width="18.91" height="31.73" transform="translate(8.51 36.11) rotate(-77.24)"/></g><g class="cls-6"><rect class="cls-7" x="12.51" y="10.35" width="33.45" height="33.55" transform="translate(-10.53 30.17) rotate(-47.24)"/></g><polygon class="cls-8" points="39.72 39.17 37.86 42.07 35.99 39.19 35.98 39.17 34.7 39.17 37.31 43.14 37.31 46.27 38.37 46.27 38.37 43.14 40.95 39.17 39.72 39.17"/><g class="cls-9"><path class="cls-8" d="M43.85,41.89a2.08,2.08,0,0,0-1.59-.7,2.59,2.59,0,0,0,0,5.17,2.1,2.1,0,0,0,1.59-.7v.6h1v-5h-1Zm0,2.74a1.68,1.68,0,0,1-1.41.77,1.63,1.63,0,0,1,0-3.25,1.64,1.64,0,0,1,1.41.79Z"/><path class="cls-8" d="M47.75,43.3c-.57-.15-1-.27-1-.65s.31-.59.79-.59a2.3,2.3,0,0,1,1.43.53l0,0,.45-.78,0,0a2.64,2.64,0,0,0-1.8-.63c-1.13,0-1.9.62-1.9,1.54s.91,1.26,1.71,1.45c.6.14,1.12.27,1.12.71s-.38.61-.91.61A2.52,2.52,0,0,1,46,44.9l0,0-.43.78,0,0a3.2,3.2,0,0,0,2.06.72c1.11,0,1.92-.64,1.92-1.51,0-1.11-1-1.36-1.78-1.56"/><path class="cls-8" d="M55.52,39.17h-.89L51.8,46.26h1.12l.61-1.55h3.08l.61,1.55h1.15l-2.84-7.07ZM53.93,43.7l1.15-2.9,1.13,2.9Z"/><path class="cls-8" d="M60.7,43.3c-.57-.15-1.06-.27-1.06-.65s.31-.59.8-.59a2.32,2.32,0,0,1,1.43.53l0,0,.44-.78,0,0a2.65,2.65,0,0,0-1.8-.63c-1.14,0-1.9.62-1.9,1.54s.91,1.26,1.71,1.45c.59.14,1.11.27,1.11.71s-.38.61-.9.61a2.5,2.5,0,0,1-1.61-.6l0,0-.42.78,0,0a3.24,3.24,0,0,0,2.07.72c1.11,0,1.91-.64,1.91-1.51,0-1.11-1-1.36-1.77-1.56"/><path class="cls-8" d="M65,43.3C64.47,43.15,64,43,64,42.65s.31-.59.79-.59a2.3,2.3,0,0,1,1.43.53l0,0,.45-.78,0,0a2.64,2.64,0,0,0-1.8-.63c-1.13,0-1.9.62-1.9,1.54s.91,1.26,1.71,1.45c.6.14,1.12.27,1.12.71s-.38.61-.91.61a2.52,2.52,0,0,1-1.61-.6l0,0-.43.78,0,0a3.2,3.2,0,0,0,2.06.72c1.11,0,1.92-.64,1.92-1.51,0-1.11-1-1.36-1.78-1.56"/><path class="cls-8" d="M69.79,41.19a2.53,2.53,0,0,0-2.54,2.57,2.56,2.56,0,0,0,2.55,2.61A2.46,2.46,0,0,0,72,45.27l0,0-.82-.53,0,0a1.57,1.57,0,0,1-1.38.69A1.53,1.53,0,0,1,68.25,44h3.89v0c0-.11,0-.27,0-.38a2.35,2.35,0,0,0-2.37-2.38m-1.5,2a1.47,1.47,0,0,1,1.46-1.15,1.31,1.31,0,0,1,1.37,1.15Z"/><polygon class="cls-8" points="74.27 39.98 73.26 39.98 73.26 41.29 72.1 41.29 72.1 42.26 73.26 42.26 73.26 46.27 74.27 46.27 74.27 42.26 75.41 42.26 75.41 41.29 74.27 41.29 74.27 39.98"/><polygon class="cls-8" points="81.84 44.7 79.38 39.19 79.37 39.17 78.14 39.17 78.14 46.27 79.2 46.27 79.2 41.34 81.38 46.24 81.39 46.27 82.16 46.27 84.37 41.34 84.37 46.27 85.43 46.27 85.43 39.17 84.38 39.17 81.84 44.7"/><path class="cls-8" d="M90.25,41.89a2.1,2.1,0,0,0-1.59-.7,2.59,2.59,0,0,0,0,5.17,2.13,2.13,0,0,0,1.59-.7v.6h1v-5h-1Zm0,2.74a1.68,1.68,0,0,1-1.41.77,1.63,1.63,0,0,1,0-3.25,1.66,1.66,0,0,1,1.41.79Z"/><path class="cls-8" d="M94.83,41.19a1.94,1.94,0,0,0-1.55.71v-.61h-1v5h1V42.94a1.54,1.54,0,0,1,1.34-.75,1.23,1.23,0,0,1,1.24,1.37v2.7h1V43.43a2,2,0,0,0-2-2.24"/><path class="cls-8" d="M101.63,41.89a2.08,2.08,0,0,0-1.59-.7,2.59,2.59,0,0,0,0,5.17,2.1,2.1,0,0,0,1.59-.7v.6h1v-5h-1Zm0,2.74a1.68,1.68,0,0,1-1.41.77,1.63,1.63,0,0,1,0-3.25,1.64,1.64,0,0,1,1.41.79Z"/><path class="cls-8" d="M107.4,41.88a2.09,2.09,0,0,0-1.59-.69,2.55,2.55,0,0,0,0,5.09,2.13,2.13,0,0,0,1.59-.7V46A1.35,1.35,0,0,1,106,47.4a2.31,2.31,0,0,1-1.66-.62l0,0-.52.7,0,0a3,3,0,0,0,2.22.85,2.26,2.26,0,0,0,2.43-2.27V41.29h-1Zm0,2.69a1.69,1.69,0,0,1-1.41.75,1.59,1.59,0,1,1,0-3.18,1.68,1.68,0,0,1,1.41.77Z"/><path class="cls-8" d="M111.69,41.19a2.53,2.53,0,0,0-2.54,2.57,2.56,2.56,0,0,0,2.55,2.61,2.45,2.45,0,0,0,2.23-1.1l0,0-.82-.53,0,0a1.57,1.57,0,0,1-1.38.69A1.53,1.53,0,0,1,110.15,44H114v0c0-.11,0-.27,0-.38a2.35,2.35,0,0,0-2.38-2.38m-1.5,2a1.47,1.47,0,0,1,1.46-1.15A1.31,1.31,0,0,1,113,43.2Z"/><path class="cls-8" d="M120.52,41.19a2.2,2.2,0,0,0-1.66.83,1.67,1.67,0,0,0-1.56-.83,1.84,1.84,0,0,0-1.48.7v-.6h-1v5h1V42.87a1.34,1.34,0,0,1,1.19-.73,1.15,1.15,0,0,1,1.16,1.29v2.83h1V43.15a2.7,2.7,0,0,0,0-.28,1.55,1.55,0,0,1,1.23-.73,1.14,1.14,0,0,1,1.17,1.29v2.83h1v-3a1.93,1.93,0,0,0-2-2.08"/><path class="cls-8" d="M125.83,41.19a2.52,2.52,0,0,0-2.53,2.57,2.55,2.55,0,0,0,2.54,2.61,2.47,2.47,0,0,0,2.24-1.1l0,0-.82-.53,0,0a1.59,1.59,0,0,1-1.39.69A1.54,1.54,0,0,1,124.29,44h3.9v0c0-.11,0-.27,0-.38a2.35,2.35,0,0,0-2.38-2.38m-1.49,2a1.46,1.46,0,0,1,1.45-1.15,1.31,1.31,0,0,1,1.38,1.15Z"/><path class="cls-8" d="M131.51,41.19a1.94,1.94,0,0,0-1.54.71v-.61h-1v5h1V42.94a1.53,1.53,0,0,1,1.33-.75,1.23,1.23,0,0,1,1.25,1.37v2.7h1V43.43a2,2,0,0,0-2.05-2.24"/><polygon class="cls-8" points="135.98 39.98 134.97 39.98 134.97 41.29 133.82 41.29 133.82 42.26 134.97 42.26 134.97 46.27 135.98 46.27 135.98 42.26 137.12 42.26 137.12 41.29 135.98 41.29 135.98 39.98"/><path class="cls-8" d="M37,36.41h1.92V28.58H37.76v6.66h-.67a2,2,0,0,1-1.25-.32,1.36,1.36,0,0,1-.35-1.07V31.26H34.32V34a2.41,2.41,0,0,0,.56,1.74,2.83,2.83,0,0,0,2.13.68"/><path class="cls-8" d="M66.43,35.37v-2a2.44,2.44,0,0,0-.49-1.68,2.23,2.23,0,0,0-1.74-.63H61.65v-.41H60.48v3.53H44.24V30.66H42.92c-1.67,0-2.87.88-2.87,2.35,0,1.68,1.27,2.36,2.87,2.36h.14C43,36,42.65,36,42,36a4,4,0,0,1-1.22-.21L40.86,37a4,4,0,0,0,1.23.2c1.5,0,2-.75,2.13-1.84Zm-4.78-3.13h2.67a.92.92,0,0,1,.71.32,1.22,1.22,0,0,1,.23.77v.86H61.65ZM43.07,34.19h-.49A1.21,1.21,0,0,1,41.22,33a1.27,1.27,0,0,1,1.36-1.18h.49Z"/><path class="cls-8" d="M69.49,35.37a3,3,0,0,0,2.09-.61A2.44,2.44,0,0,0,72.2,33V29.13h.55V28H71V33a1,1,0,0,1-.35.87,1.48,1.48,0,0,1-.94.28H67.35l.14,1.18Z"/><rect class="cls-8" x="68.54" y="29.37" width="1.17" height="4.41"/><path class="cls-8" d="M69.79,28.3H68.72c0-.26.12-.41.45-.41h.36v-.38h-.42c-.66,0-1.06.28-1.06,1v.38h1.74Z"/><rect class="cls-8" x="74.25" y="28.58" width="1.17" height="6.78"/><path class="cls-8" d="M83,29.62a.6.6,0,1,0-.65-.6.6.6,0,0,0,.65.6"/><path class="cls-8" d="M82.32,35.37h1.34V30.24H82.48v.42h-.16c-1.8,0-2.86,1-2.86,2.35,0,1.59,1.19,2.36,2.86,2.36M82,31.83h.45v2.36H82A1.22,1.22,0,0,1,80.63,33,1.29,1.29,0,0,1,82,31.83"/><path class="cls-8" d="M81.14,29.62a.6.6,0,0,0,.65-.6.6.6,0,0,0-.65-.6.61.61,0,0,0-.66.6.6.6,0,0,0,.66.6"/><path class="cls-8" d="M85.09,37.21c1.19,0,1.67-.65,1.67-2.16V30.66H85.59v4.56c0,.57-.16.82-.63.82a2,2,0,0,1-.55-.08l.08,1.17a2.42,2.42,0,0,0,.6.08"/><rect class="cls-8" x="88.38" y="28.58" width="1.17" height="6.78"/><path class="cls-8" d="M94.6,33a2.49,2.49,0,0,0-.49-1.68,2.24,2.24,0,0,0-1.74-.62H92v1.17h.5a.91.91,0,0,1,.71.31,1.22,1.22,0,0,1,.23.77v1.28H90.51v1.18H94.6Z"/><path class="cls-8" d="M97.66,35.37a3,3,0,0,0,2.08-.61,2.41,2.41,0,0,0,.63-1.76V29.13h.55V28H99.2V33a1.07,1.07,0,0,1-.35.87,1.51,1.51,0,0,1-.95.28H95.52l.14,1.18Z"/><path class="cls-8" d="M97.69,37.06h-.35c-.33,0-.45-.16-.45-.42H98V36H96.22v.38c0,.76.4,1,1.06,1h.41Z"/><rect class="cls-8" x="96.71" y="29.37" width="1.17" height="4.41"/><path class="cls-8" d="M107.43,36.41h1.93v-1h.86a2.33,2.33,0,0,0,1.66-.72,1.84,1.84,0,0,0,1.67.8c1.45,0,2.17-.77,2.17-2.38v-3h-1.17v3.15a.94.94,0,0,1-1,1.06c-.63,0-1-.37-1.06-1.13V31.07h-1.17v2.08a1,1,0,0,1-1.1,1h-.86V30.66h-1.17v4.58h-.67a2,2,0,0,1-1.25-.32,1.32,1.32,0,0,1-.35-1.07V31.26h-1.17V34a2.41,2.41,0,0,0,.56,1.74,2.82,2.82,0,0,0,2.12.68"/><polygon class="cls-8" points="137.06 35.37 137.06 30.66 135.89 30.66 135.89 34.19 118.43 34.19 118.43 28.58 117.26 28.58 117.26 35.37 137.06 35.37"/><path class="cls-8" d="M134.42,36.55a.6.6,0,0,0,.65.6.6.6,0,0,0,.66-.6.66.66,0,0,0-1.31,0"/><path class="cls-8" d="M136.89,36a.6.6,0,0,0-.65.6.65.65,0,0,0,1.3,0,.6.6,0,0,0-.65-.6"/></g></g></g></svg>