<svg xmlns="http://www.w3.org/2000/svg" xmlns:xlink="http://www.w3.org/1999/xlink" viewBox="0 0 89.41 35.39"><defs><style>.cls-1{fill:none;}.cls-2{clip-path:url(#clip-path);}.cls-3{fill:#333;}.cls-4{fill:#f1881a;}</style><clipPath id="clip-path"><rect class="cls-1" width="89.41" height="35.39"/></clipPath></defs><title>logo-miral-experiences</title><g id="Layer_2" data-name="Layer 2"><g id="Layer_1-2" data-name="Layer 1"><g class="cls-2"><path class="cls-3" d="M20.32,31.91h0a2,2,0,0,1-2-2V5.44a2,2,0,1,1,3.91,0V30a2,2,0,0,1-1.95,2"/><path class="cls-3" d="M2,31.91H2a2,2,0,0,1-2-2V5.44a2,2,0,1,1,3.91,0V30a2,2,0,0,1-1.95,2"/><path class="cls-3" d="M11.14,27.35h0a2,2,0,0,1-2-2V10a2,2,0,0,1,3.91,0V25.4a2,2,0,0,1-1.95,2"/><path class="cls-4" d="M13.39,2.26A2.26,2.26,0,1,1,11.14,0a2.25,2.25,0,0,1,2.25,2.26"/><path class="cls-3" d="M13.39,33.13a2.26,2.26,0,1,1-2.25-2.25,2.26,2.26,0,0,1,2.25,2.25"/><path class="cls-3" d="M41.28,6.2a1.24,1.24,0,0,0-1,.58l-3.89,6.15L32.46,6.78a1.23,1.23,0,0,0-2.28.66v11.3a1,1,0,0,0,2,0v-8.6L36,16a.39.39,0,0,0,.33.19.4.4,0,0,0,.34-.19l3.8-5.9v8.61a1,1,0,0,0,1,1h0a1,1,0,0,0,1-1V7.44A1.25,1.25,0,0,0,41.28,6.2"/><path class="cls-3" d="M48.05,6.2a1,1,0,0,0-1,1V18.72a1,1,0,0,0,2,0V7.23a1,1,0,0,0-1-1"/><path class="cls-3" d="M73.19,7A1.31,1.31,0,0,0,72,6.2a1.29,1.29,0,0,0-1.2.8L65.87,18.37a1,1,0,0,0,.08.93,1,1,0,0,0,1.72-.15l1.19-2.78h6.19l1.18,2.78a1,1,0,0,0,.9.59h.07A1,1,0,0,0,78,19.3a1,1,0,0,0,.08-.93Zm-3.5,7.42L72,9.09l2.25,5.33Z"/><path class="cls-3" d="M59.08,6.2H53V18.72a1,1,0,1,0,2,0v-4H58l3.27,4.58a1,1,0,0,0,.83.43,1,1,0,0,0,.91-.56,1,1,0,0,0-.08-1.06l-2.58-3.59a4.24,4.24,0,0,0,2.95-4v0A4.24,4.24,0,0,0,59.08,6.2m-4,2h4a2.24,2.24,0,0,1,2.23,2.25v0a2.24,2.24,0,0,1-2.23,2.25h-4Z"/><path class="cls-3" d="M88.42,17.77h-4a1.28,1.28,0,0,1-.91-.38,1.25,1.25,0,0,1-.38-.91V7.19a1,1,0,0,0-1-1H82a1,1,0,0,0-.89,1V17a2.78,2.78,0,0,0,2.78,2.77h4.53a1,1,0,1,0,0-2"/><path class="cls-4" d="M30.12,29.36V23.21a.4.4,0,0,1,.39-.39h4.31a.36.36,0,1,1,0,.71H30.9V25.9h3.48a.36.36,0,0,1,.35.36.36.36,0,0,1-.35.36H30.9V29h4a.36.36,0,0,1,0,.72H30.51a.4.4,0,0,1-.39-.4"/><path class="cls-4" d="M36.58,29.21l1.67-2.06-1.57-1.93a.41.41,0,0,1-.12-.28.35.35,0,0,1,.36-.36.41.41,0,0,1,.33.18l1.48,1.88,1.47-1.87a.42.42,0,0,1,.33-.19.34.34,0,0,1,.34.35.37.37,0,0,1-.1.25l-1.59,1.95,1.66,2a.45.45,0,0,1,.11.28.35.35,0,0,1-.36.36.41.41,0,0,1-.33-.18l-1.56-2-1.55,2a.41.41,0,0,1-.32.19.35.35,0,0,1-.35-.35.33.33,0,0,1,.1-.25"/><path class="cls-4" d="M42.5,25a.38.38,0,1,1,.76,0v.69a2.32,2.32,0,0,1,2-1.14,2.51,2.51,0,0,1,2.45,2.66v0a2.51,2.51,0,0,1-2.45,2.67,2.33,2.33,0,0,1-2-1.09V31a.37.37,0,0,1-.37.38A.38.38,0,0,1,42.5,31Zm4.39,2.24v0a1.84,1.84,0,0,0-1.8-2,1.91,1.91,0,0,0-1.86,2v0a1.91,1.91,0,0,0,1.86,2,1.8,1.8,0,0,0,1.8-2"/><path class="cls-4" d="M51.43,29.88a2.55,2.55,0,0,1-2.56-2.67v0a2.53,2.53,0,0,1,2.46-2.67,2.42,2.42,0,0,1,2.38,2.6.36.36,0,0,1-.36.36H49.64a1.79,1.79,0,0,0,1.81,1.73,2.06,2.06,0,0,0,1.47-.59.33.33,0,0,1,.56.24.31.31,0,0,1-.12.24,2.6,2.6,0,0,1-1.93.78m1.51-3a1.68,1.68,0,0,0-1.63-1.74,1.77,1.77,0,0,0-1.67,1.74Z"/><path class="cls-4" d="M55.16,25a.38.38,0,1,1,.76,0v1a2.13,2.13,0,0,1,1.77-1.37.37.37,0,0,1,.37.39.38.38,0,0,1-.33.39,2.08,2.08,0,0,0-1.81,2.34v1.74a.38.38,0,1,1-.76,0Z"/><path class="cls-4" d="M59.27,23a.46.46,0,0,1,.91,0v.12a.46.46,0,0,1-.91,0ZM59.34,25a.39.39,0,0,1,.38-.39.38.38,0,0,1,.39.39v4.45a.38.38,0,0,1-.38.39.38.38,0,0,1-.39-.39Z"/><path class="cls-4" d="M64.22,29.88a2.55,2.55,0,0,1-2.56-2.67v0a2.54,2.54,0,0,1,2.46-2.67,2.41,2.41,0,0,1,2.38,2.6.36.36,0,0,1-.35.36H62.44a1.78,1.78,0,0,0,1.8,1.73,2.08,2.08,0,0,0,1.48-.59.34.34,0,0,1,.22-.09.33.33,0,0,1,.33.33.3.3,0,0,1-.11.24,2.6,2.6,0,0,1-1.94.78m1.52-3a1.69,1.69,0,0,0-1.64-1.74,1.76,1.76,0,0,0-1.66,1.74Z"/><path class="cls-4" d="M68,25a.39.39,0,0,1,.38-.39.38.38,0,0,1,.39.39v.55a1.94,1.94,0,0,1,1.75-1,1.88,1.88,0,0,1,2,2.06v2.84a.37.37,0,0,1-.37.39.38.38,0,0,1-.39-.39V26.76a1.36,1.36,0,0,0-1.42-1.54,1.5,1.5,0,0,0-1.53,1.6v2.6a.38.38,0,0,1-.38.39.38.38,0,0,1-.39-.39Z"/><path class="cls-4" d="M73.84,27.22v0a2.67,2.67,0,0,1,4.52-1.93.35.35,0,0,1,.11.26.36.36,0,0,1-.36.37.4.4,0,0,1-.25-.09,2,2,0,0,0-1.4-.61,1.89,1.89,0,0,0-1.83,2v0a1.91,1.91,0,0,0,1.88,2,2,2,0,0,0,1.43-.62.3.3,0,0,1,.22-.1.35.35,0,0,1,.34.35.34.34,0,0,1-.09.23,2.6,2.6,0,0,1-1.94.83,2.63,2.63,0,0,1-2.63-2.66"/><path class="cls-4" d="M82,29.88a2.55,2.55,0,0,1-2.56-2.67v0a2.53,2.53,0,0,1,2.46-2.67,2.41,2.41,0,0,1,2.38,2.6.36.36,0,0,1-.36.36H80.23A1.79,1.79,0,0,0,82,29.21a2.06,2.06,0,0,0,1.47-.59.33.33,0,0,1,.56.24.31.31,0,0,1-.12.24,2.58,2.58,0,0,1-1.93.78m1.51-3a1.67,1.67,0,0,0-1.63-1.74,1.77,1.77,0,0,0-1.67,1.74Z"/><path class="cls-4" d="M85.47,29.21a.34.34,0,0,1-.14-.27.34.34,0,0,1,.34-.33.31.31,0,0,1,.19.06,2.91,2.91,0,0,0,1.62.54c.62,0,1.06-.31,1.06-.81v0c0-.52-.6-.71-1.28-.9S85.57,27,85.57,26v0a1.55,1.55,0,0,1,1.74-1.47A3.56,3.56,0,0,1,89,25a.37.37,0,0,1,.19.32.33.33,0,0,1-.34.32.39.39,0,0,1-.17,0,2.82,2.82,0,0,0-1.34-.39c-.6,0-1,.31-1,.74v0c0,.49.64.68,1.32.88s1.65.55,1.65,1.47v0a1.62,1.62,0,0,1-1.83,1.54,3.54,3.54,0,0,1-2-.65"/></g></g></g></svg>