<svg xmlns="http://www.w3.org/2000/svg" xmlns:xlink="http://www.w3.org/1999/xlink" viewBox="0 0 226.72 45.77"><defs><style>.cls-1{fill:none;}.cls-2{clip-path:url(#clip-path);}.cls-3{fill:#333;}.cls-4{fill:#ff8a03;}.cls-5{fill:#1ca6b8;}</style><clipPath id="clip-path" transform="translate(0 0)"><rect class="cls-1" width="226.72" height="45.78"/></clipPath></defs><title>miral-logo-cms-inside</title><g id="Layer_2" data-name="Layer 2"><g id="Layer_1-2" data-name="Layer 1"><g class="cls-2"><path class="cls-3" d="M125.83,41.27h-.18a2.44,2.44,0,0,1-2.44-2.44V6.94a2.44,2.44,0,0,1,2.44-2.44h.18a2.44,2.44,0,0,1,2.44,2.44V38.83a2.44,2.44,0,0,1-2.44,2.44" transform="translate(0 0)"/><path class="cls-3" d="M102.08,41.27h-.18a2.44,2.44,0,0,1-2.44-2.44V6.94A2.44,2.44,0,0,1,101.9,4.5h.18a2.44,2.44,0,0,1,2.44,2.44V38.83a2.44,2.44,0,0,1-2.44,2.44" transform="translate(0 0)"/><path class="cls-3" d="M114,35.38h-.17a2.44,2.44,0,0,1-2.44-2.44V12.84a2.45,2.45,0,0,1,2.44-2.45H114a2.45,2.45,0,0,1,2.44,2.45v20.1A2.44,2.44,0,0,1,114,35.38" transform="translate(0 0)"/><path class="cls-4" d="M116.78,2.92A2.92,2.92,0,1,1,113.86,0a2.92,2.92,0,0,1,2.92,2.92" transform="translate(0 0)"/><path class="cls-5" d="M116.78,42.86a2.92,2.92,0,1,1-2.92-2.92,2.92,2.92,0,0,1,2.92,2.92" transform="translate(0 0)"/><path class="cls-3" d="M16.43,12.87a1.8,1.8,0,0,0-1.54.85L9.13,22.83,3.37,13.72a1.8,1.8,0,0,0-1.54-.85A1.83,1.83,0,0,0,0,14.69V31.42a1.49,1.49,0,0,0,3,0V18.7l5.63,8.72a.59.59,0,0,0,1,0l5.63-8.74V31.42a1.49,1.49,0,0,0,1.49,1.49h.05a1.49,1.49,0,0,0,1.49-1.49V14.69a1.83,1.83,0,0,0-1.83-1.82" transform="translate(0 0)"/><path class="cls-3" d="M26.44,12.87a1.52,1.52,0,0,0-1.52,1.51v17a1.52,1.52,0,1,0,3,0v-17a1.52,1.52,0,0,0-1.52-1.51" transform="translate(0 0)"/><path class="cls-3" d="M63.65,14a1.93,1.93,0,0,0-1.78-1.17A2,2,0,0,0,60.08,14L52.81,30.88A1.46,1.46,0,0,0,55.49,32l1.76-4.12H66.4L68.14,32a1.46,1.46,0,0,0,1.34.89h.1a1.46,1.46,0,0,0,1.34-2ZM58.47,25l3.37-7.88L65.18,25Z" transform="translate(0 0)"/><path class="cls-3" d="M42.78,12.87h-9V31.4a1.52,1.52,0,0,0,3,0V25.5h4.35L46,32.28a1.51,1.51,0,1,0,2.46-1.76L44.65,25.2a6.26,6.26,0,0,0,4.37-6v-.07a6.26,6.26,0,0,0-6.24-6.28m-6,3h6a3.31,3.31,0,0,1,3.29,3.33v.07a3.31,3.31,0,0,1-3.29,3.32h-6Z" transform="translate(0 0)"/><path class="cls-3" d="M86.31,30H80.19a1.89,1.89,0,0,1-1.9-1.91l0-13.74a1.46,1.46,0,0,0-1.47-1.46h-.15a1.53,1.53,0,0,0-1.31,1.53V28.8a4.12,4.12,0,0,0,4.11,4.11h6.82a1.47,1.47,0,0,0,0-2.93" transform="translate(0 0)"/><path class="cls-3" d="M193.29,32.9a2,2,0,1,0,2,2,2,2,0,0,0-2-2" transform="translate(0 0)"/><path class="cls-3" d="M199.85,32.9a2,2,0,1,0,2,2,2,2,0,0,0-2-2" transform="translate(0 0)"/><path class="cls-3" d="M155.26,9.53a1.61,1.61,0,0,0-1.61,1.61v16.5A5.37,5.37,0,0,1,148.92,33l-.51,0a5.26,5.26,0,0,1-5.25-5.25V24.09a1.6,1.6,0,1,0-3.2,0V27.6a8.62,8.62,0,0,0,8.12,8.64h.33a8.46,8.46,0,0,0,8.45-8.45V25.39h0V11.14a1.61,1.61,0,0,0-1.61-1.61" transform="translate(0 0)"/><path class="cls-3" d="M165.86,9.53a1.61,1.61,0,0,0-1.6,1.61V28.2a1.61,1.61,0,1,0,3.21,0V11.14a1.61,1.61,0,0,0-1.61-1.61" transform="translate(0 0)"/><path class="cls-3" d="M226.72,21.1a5.84,5.84,0,0,0-5.85-5.85h-2.51v0a6.83,6.83,0,0,0-6.59,6.83v4.57h-10.2c-2.39,0-3.41-1.05-3.41-3.51V18a1.65,1.65,0,0,0-1.29-1.64A1.61,1.61,0,0,0,194.94,18v5.17c0,2.46-1,3.51-3.43,3.51H178.1v-8.6a1.62,1.62,0,1,0-3.23,0V30.6A3.88,3.88,0,0,1,171,34.46h-1.74a1.62,1.62,0,1,0,0,3.23H171a7.1,7.1,0,0,0,7.1-7.09v-.79h13.41a6.46,6.46,0,0,0,5.16-2.09,5.76,5.76,0,0,0,4.9,2.09l19.82,0a5.33,5.33,0,0,0,5.33-5.33Zm-3.12,3.12a2.44,2.44,0,0,1-2.44,2.44h-6.27V22.1a3.73,3.73,0,0,1,3.52-3.72h2.07a3.12,3.12,0,0,1,3.12,3.11Z" transform="translate(0 0)"/></g></g></g></svg>