<svg xmlns="http://www.w3.org/2000/svg" xmlns:xlink="http://www.w3.org/1999/xlink" viewBox="0 0 102.5 150"><defs><style>.cls-1{fill:none;}.cls-2{clip-path:url(#clip-path);}.cls-3{fill:#333;}.cls-4{fill:#ff8a03;}.cls-5{fill:#1ca6b8;}</style><clipPath id="clip-path" transform="translate(0)"><rect class="cls-1" width="102.5" height="150"/></clipPath></defs><title>miral-logo</title><g id="Layer_2" data-name="Layer 2"><g id="Layer_1-2" data-name="Layer 1"><g class="cls-2"><path class="cls-3" d="M19.17,126.62a2.11,2.11,0,0,0-1.8,1l-6.72,10.63L3.93,127.61A2.13,2.13,0,0,0,0,128.75v19.51a1.74,1.74,0,0,0,3.48,0V133.43L10,143.59a.68.68,0,0,0,.58.32.7.7,0,0,0,.58-.32l6.56-10.19v14.86A1.74,1.74,0,0,0,19.5,150h.06a1.74,1.74,0,0,0,1.74-1.74V128.75a2.14,2.14,0,0,0-2.13-2.13" transform="translate(0)"/><path class="cls-3" d="M30.84,126.62a1.77,1.77,0,0,0-1.77,1.77v19.84a1.77,1.77,0,1,0,3.53,0V128.39a1.77,1.77,0,0,0-1.76-1.77" transform="translate(0)"/><path class="cls-3" d="M74.24,128a2.27,2.27,0,0,0-4.17,0L61.6,147.63A1.7,1.7,0,1,0,64.72,149l2-4.8H77.45l2,4.8A1.71,1.71,0,0,0,81,150h.12a1.69,1.69,0,0,0,1.56-2.37Zm-6,12.81,3.93-9.19L76,140.8Z" transform="translate(0)"/><path class="cls-3" d="M49.89,126.62H39.43v21.62a1.77,1.77,0,0,0,3.53,0v-6.89H48l5.64,7.91a1.76,1.76,0,1,0,2.86-2L52.08,141a7.32,7.32,0,0,0,5.09-7V134a7.32,7.32,0,0,0-7.28-7.33M43,130.07h6.93A3.87,3.87,0,0,1,53.74,134V134a3.86,3.86,0,0,1-3.85,3.87H43Z" transform="translate(0)"/><path class="cls-3" d="M100.79,146.58H93.53a2.22,2.22,0,0,1-2.22-2.22l0-16a1.71,1.71,0,0,0-1.71-1.71h-.17a1.77,1.77,0,0,0-1.53,1.78V145.2a4.8,4.8,0,0,0,4.79,4.8h8.08a1.71,1.71,0,1,0,0-3.42" transform="translate(0)"/><path class="cls-3" d="M63,113.74a2.33,2.33,0,1,0,2.31,2.31A2.33,2.33,0,0,0,63,113.74" transform="translate(0)"/><path class="cls-3" d="M70.76,113.74a2.33,2.33,0,1,0,2.31,2.31,2.33,2.33,0,0,0-2.31-2.31" transform="translate(0)"/><path class="cls-3" d="M18.08,86.13A1.91,1.91,0,0,0,16.17,88v19.49a6.35,6.35,0,0,1-5.6,6.37q-.3,0-.6,0a6.21,6.21,0,0,1-6.2-6.2v-4.39a1.89,1.89,0,1,0-3.78,0v4.15a10.19,10.19,0,0,0,9.6,10.21H10a10,10,0,0,0,10-10v-2.85h0V88a1.91,1.91,0,0,0-1.9-1.9" transform="translate(0)"/><path class="cls-3" d="M30.6,86.13A1.91,1.91,0,0,0,28.7,88v20.16a1.91,1.91,0,0,0,3.81,0V88a1.91,1.91,0,0,0-1.91-1.9" transform="translate(0)"/><path class="cls-3" d="M102.5,99.8a6.91,6.91,0,0,0-6.91-6.91h-3v0A8.08,8.08,0,0,0,84.84,101v5.4h-12c-2.83,0-4-1.24-4-4.14v-6a2,2,0,0,0-1.52-1.94A1.9,1.9,0,0,0,65,96.11v6.12c0,2.9-1.22,4.14-4.06,4.14H45.06V96.21a1.91,1.91,0,0,0-3.82,0V111a4.57,4.57,0,0,1-4.56,4.56H34.61a1.91,1.91,0,1,0,0,3.82h2.07c4.68.62,8.39-3.67,8.38-8.39v-.93H60.9a7.64,7.64,0,0,0,6.1-2.47c1.23,1.64,3.17,2.47,5.79,2.47l23.41,0a6.3,6.3,0,0,0,6.3-6.3Zm-3.69,3.69a2.88,2.88,0,0,1-2.88,2.88h-7.4V101a4.4,4.4,0,0,1,4.16-4.39v0h2.44a3.68,3.68,0,0,1,3.68,3.68Z" transform="translate(0)"/><path class="cls-3" d="M71.9,71.77h0a4.4,4.4,0,0,1-4.4-4.4V12.23a4.4,4.4,0,1,1,8.8,0V67.37a4.4,4.4,0,0,1-4.4,4.4" transform="translate(0)"/><path class="cls-3" d="M30.6,71.77h0a4.4,4.4,0,0,1-4.4-4.4V12.23a4.4,4.4,0,1,1,8.8,0V67.37a4.4,4.4,0,0,1-4.4,4.4" transform="translate(0)"/><path class="cls-3" d="M51.25,61.53h0a4.4,4.4,0,0,1-4.4-4.4V22.47a4.4,4.4,0,0,1,8.8,0V57.13a4.4,4.4,0,0,1-4.4,4.4" transform="translate(0)"/><path class="cls-4" d="M56.33,5.08A5.08,5.08,0,1,1,51.25,0a5.08,5.08,0,0,1,5.08,5.08" transform="translate(0)"/><path class="cls-5" d="M56.33,74.52a5.08,5.08,0,1,1-5.08-5.07,5.08,5.08,0,0,1,5.08,5.07" transform="translate(0)"/></g></g></g></svg>