<svg xmlns="http://www.w3.org/2000/svg" xmlns:xlink="http://www.w3.org/1999/xlink" viewBox="0 0 163.82 292.8"><defs><style>.cls-1{fill:none;}.cls-2{clip-path:url(#clip-path);}.cls-3{fill:#333;}.cls-4{fill:#ff8a03;}.cls-5{fill:#1ca6b8;}</style><clipPath id="clip-path"><rect class="cls-1" width="163.82" height="292.8"/></clipPath></defs><title>miral-logo-cms</title><g id="Layer_2" data-name="Layer 2"><g id="Layer_1-2" data-name="Layer 1"><g class="cls-2"><path class="cls-3" d="M30.63,202.37A3.4,3.4,0,0,0,27.75,204L17,220.93,6.28,204A3.41,3.41,0,0,0,0,205.77V237a2.78,2.78,0,1,0,5.55,0V213.24L16,229.49a1.12,1.12,0,0,0,.93.5,1.09,1.09,0,0,0,.92-.5l10.5-16.29V237a2.78,2.78,0,0,0,2.77,2.78h.1A2.78,2.78,0,0,0,34,237V205.77a3.4,3.4,0,0,0-3.4-3.4"/><path class="cls-3" d="M49.28,202.37a2.82,2.82,0,0,0-2.82,2.82V236.9a2.83,2.83,0,1,0,5.65,0V205.19a2.83,2.83,0,0,0-2.83-2.82"/><path class="cls-3" d="M118.65,204.56a3.63,3.63,0,0,0-6.66,0L98.45,235.94a2.71,2.71,0,1,0,5,2.14l3.28-7.67h17.07l3.24,7.66a2.71,2.71,0,0,0,2.5,1.66h.19a2.72,2.72,0,0,0,2.49-3.79ZM109,225l6.28-14.69L121.5,225Z"/><path class="cls-3" d="M79.74,202.37H63v34.54a2.83,2.83,0,0,0,5.65,0v-11h8.09l9,12.63a2.81,2.81,0,1,0,4.58-3.27l-7.12-9.91a11.69,11.69,0,0,0,8.14-11.16v-.12a11.68,11.68,0,0,0-11.63-11.71m-11.08,5.51H79.74a6.17,6.17,0,0,1,6.14,6.2v.12a6.17,6.17,0,0,1-6.14,6.2H68.66Z"/><path class="cls-3" d="M161.09,234.27H149.48a3.55,3.55,0,0,1-3.55-3.56l0-25.61a2.73,2.73,0,0,0-2.73-2.73H143a2.83,2.83,0,0,0-2.45,2.85v26.83a7.68,7.68,0,0,0,7.66,7.67h12.92a2.73,2.73,0,0,0,0-5.46"/><path class="cls-3" d="M100.69,181.78a3.72,3.72,0,1,0,3.69,3.69,3.73,3.73,0,0,0-3.69-3.69"/><path class="cls-3" d="M113.09,181.78a3.72,3.72,0,1,0,3.69,3.69,3.72,3.72,0,0,0-3.69-3.69"/><path class="cls-3" d="M28.89,137.65a3,3,0,0,0-3,3v31.15A10.14,10.14,0,0,1,16.91,182a7.72,7.72,0,0,1-1,.05,9.9,9.9,0,0,1-9.9-9.91v-7a3,3,0,0,0-6,0v6.64a16.29,16.29,0,0,0,15.34,16.31l.61,0a16,16,0,0,0,16-16V167.6h0V140.69a3,3,0,0,0-3-3"/><path class="cls-3" d="M48.91,137.65a3,3,0,0,0-3,3V172.9a3,3,0,0,0,6.08,0V140.69a3,3,0,0,0-3-3"/><path class="cls-3" d="M163.81,159.49a11,11,0,0,0-11-11H148v0a12.92,12.92,0,0,0-12.45,12.91V170H116.33c-4.52,0-6.44-2-6.44-6.62v-9.66a3.12,3.12,0,0,0-2.43-3.1,3.05,3.05,0,0,0-3.65,3v9.78c0,4.64-1.94,6.62-6.48,6.62H72V153.77a3.06,3.06,0,1,0-6.11,0v23.66a7.3,7.3,0,0,1-7.29,7.29h-3.3a3.06,3.06,0,1,0,0,6.11h3.3c7.48,1,13.41-5.86,13.4-13.4v-1.49H97.33c4.21,0,7.57-1.36,9.76-3.94,2,2.61,5.06,3.94,9.24,3.94l37.42,0a10.06,10.06,0,0,0,10.06-10.07Zm-5.89,5.91a4.61,4.61,0,0,1-4.6,4.61H141.48v-8.62a7,7,0,0,1,6.65-7v0H152a5.88,5.88,0,0,1,5.88,5.88Z"/><path class="cls-3" d="M114.91,114.71h0a7,7,0,0,1-7-7V19.54a7,7,0,1,1,14.06,0v88.14a7,7,0,0,1-7,7"/><path class="cls-3" d="M48.9,114.71h0a7,7,0,0,1-7-7V19.54a7,7,0,0,1,14.06,0v88.14a7,7,0,0,1-7,7"/><path class="cls-3" d="M81.91,98.33h0a7,7,0,0,1-7-7V35.92a7,7,0,0,1,14.06,0V91.3a7,7,0,0,1-7,7"/><path class="cls-4" d="M90,8.11A8.12,8.12,0,1,1,81.91,0,8.11,8.11,0,0,1,90,8.11"/><path class="cls-5" d="M90,119.1A8.12,8.12,0,1,1,81.91,111,8.11,8.11,0,0,1,90,119.1"/><path class="cls-3" d="M153.75,291.81a1,1,0,0,0,2,0v-7.33l5.94,7.69a1.27,1.27,0,0,0,1.05.61h.09a1,1,0,0,0,1-1v-9.7a1,1,0,0,0-1-1,1,1,0,0,0-1,1v7.1L156,281.69a1.29,1.29,0,0,0-1-.59h-.22a1,1,0,0,0-1,1Zm-5.11,0a1,1,0,0,0,2,0v-9.7a1,1,0,0,0-2,0Zm-14.44,0a1,1,0,0,0,1,1,1,1,0,0,0,1-1v-6.92l2.8,4.21a.95.95,0,0,0,1.7,0l2.82-4.24v6.93a1,1,0,0,0,1,1,1,1,0,0,0,1-1v-9.67a1,1,0,0,0-1-1h-.22a1,1,0,0,0-.92.53l-3.52,5.49-3.49-5.48a1.08,1.08,0,0,0-.94-.54h-.22a1,1,0,0,0-1,1Zm-10.87-.94V283h2.27a3.79,3.79,0,0,1,4,3.93v0a3.77,3.77,0,0,1-4,3.9Zm-2,.82a1,1,0,0,0,1,1h3.28a5.78,5.78,0,0,0,6.14-5.77v0c0-3.25-2.51-5.75-6.14-5.75h-3.28a1,1,0,0,0-1,1Zm-9.92-3.56,2-4.67,2,4.67Zm-3.63,3.73a.93.93,0,0,0,.94.94,1,1,0,0,0,.94-.65l1-2.22h5.61l1,2.16a1,1,0,0,0,1,.71,1,1,0,0,0,.95-1,.91.91,0,0,0-.11-.43l-4.29-9.57a1.27,1.27,0,0,0-1.21-.82h-.1a1.29,1.29,0,0,0-1.22.82l-4.29,9.57a1.11,1.11,0,0,0-.13.47"/><path class="cls-3" d="M92.19,290.94a3.89,3.89,0,0,1-3.87-4v0a3.85,3.85,0,0,1,3.84-4A3.91,3.91,0,0,1,96,286.9v0a3.84,3.84,0,0,1-3.85,4m0,1.86a5.85,5.85,0,0,0,6-5.9v0a6,6,0,0,0-11.93,0v0a5.8,5.8,0,0,0,6,5.87m-10.49-1.11a1,1,0,0,0,2,0v-9.58a1,1,0,1,0-2,0Zm-10.2-.1a1,1,0,0,0,1,1h6.16a.91.91,0,1,0,0-1.82H73.47v-8.67a1,1,0,1,0-2,0Zm-24.44.1a1,1,0,0,0,2,0V288H54a.92.92,0,0,0,0-1.83H49V283h5.65a.91.91,0,1,0,0-1.82H48a1,1,0,0,0-1,1Zm-7.76,0a1,1,0,0,0,2,0v-8.64h2.79a.93.93,0,0,0,0-1.85H36.5a.93.93,0,1,0,0,1.85h2.77Zm-12.53-4.84V283h2.92c1.48,0,2.36.67,2.36,1.89v0c0,1.16-.91,1.91-2.35,1.91Zm-2,4.84a1,1,0,0,0,2,0v-3.06h2.52L32,292.16a1.16,1.16,0,0,0,1,.52.94.94,0,0,0,1-.93,1.18,1.18,0,0,0-.32-.76l-2.19-2.75a3.39,3.39,0,0,0,2.6-3.41v0a3.45,3.45,0,0,0-1-2.46,4.58,4.58,0,0,0-3.29-1.14H25.75a1,1,0,0,0-1,1Zm-8.38-.75a3.9,3.9,0,0,1-3.88-4v0a3.86,3.86,0,0,1,3.85-4,3.9,3.9,0,0,1,3.87,4.06v0a3.84,3.84,0,0,1-3.84,4m0,1.86a5.85,5.85,0,0,0,6-5.9v0A5.8,5.8,0,0,0,16.36,281a5.85,5.85,0,0,0-6,5.9v0a5.79,5.79,0,0,0,5.95,5.87M2,287.13V283H4.33c1.5,0,2.47.7,2.47,2v0c0,1.19-1,2-2.47,2Zm-2,4.56a1,1,0,0,0,1,1,1,1,0,0,0,1-1v-2.75H4.27c2.51,0,4.56-1.34,4.56-3.9v0c0-2.3-1.66-3.81-4.33-3.81H1a1,1,0,0,0-1,1Z"/><path class="cls-5" d="M63.06,292.8a5.85,5.85,0,0,0,6-5.9v0a6,6,0,0,0-11.93,0v0a5.8,5.8,0,0,0,6,5.87"/></g></g></g></svg>