<svg width="456" height="64" viewBox="0 0 456 64" fill="none" xmlns="http://www.w3.org/2000/svg">
<path d="M0 33.1264V30.8736C0 22.6854 3.18853 14.8326 8.86414 9.04267C14.5398 3.25274 22.2375 0 30.2641 0L425.742 0C433.768 0.00169716 441.464 3.25519 447.138 9.04493C452.812 14.8347 456 22.6865 456 30.8736V33.1264C456.001 37.1805 455.219 41.195 453.699 44.9407C452.178 48.6865 449.95 52.09 447.14 54.9569C444.33 57.8239 440.994 60.0981 437.323 61.6498C433.651 63.2014 429.716 64 425.742 64H30.2641C22.2375 64 14.5398 60.7473 8.86414 54.9573C3.18853 49.1674 0 41.3146 0 33.1264Z" fill="#333333"/>
<path d="M153.285 49.3894H153.106C152.468 49.3895 151.856 49.1393 151.4 48.6925C150.945 48.2457 150.682 47.6378 150.669 46.9994V15.0594C150.669 14.4113 150.925 13.7897 151.382 13.3305C151.839 12.8713 152.458 12.612 153.106 12.6094H153.285C153.932 12.612 154.552 12.8713 155.009 13.3305C155.466 13.7897 155.722 14.4113 155.722 15.0594V46.9994C155.722 47.6465 155.465 48.2671 155.008 48.7247C154.551 49.1823 153.932 49.4394 153.285 49.4394" fill="white"/>
<path d="M129.568 49.3894H129.388C128.75 49.3895 128.138 49.1393 127.682 48.6925C127.227 48.2457 126.964 47.6378 126.951 46.9994V15.0594C126.951 14.4113 127.208 13.7897 127.664 13.3305C128.121 12.8713 128.741 12.612 129.388 12.6094H129.568C130.215 12.612 130.834 12.8713 131.291 13.3305C131.748 13.7897 132.004 14.4113 132.004 15.0594V46.9994C132.004 47.6465 131.747 48.2671 131.291 48.7247C130.834 49.1823 130.214 49.4394 129.568 49.4394" fill="white"/>
<path d="M141.472 43.4886H141.302C140.656 43.4886 140.036 43.2315 139.579 42.7739C139.122 42.3163 138.865 41.6957 138.865 41.0486V20.9986C138.865 20.3515 139.122 19.7308 139.579 19.2733C140.036 18.8157 140.656 18.5586 141.302 18.5586H141.472C142.109 18.5717 142.716 18.8345 143.162 19.2907C143.609 19.7469 143.858 20.36 143.858 20.9986V41.0986C143.846 41.7285 143.59 42.329 143.145 42.7744C142.7 43.2199 142.101 43.4758 141.472 43.4886" fill="white"/>
<path d="M144.248 10.9981C144.248 11.5756 144.077 12.1402 143.757 12.6204C143.436 13.1006 142.981 13.4748 142.448 13.6959C141.915 13.9169 141.329 13.9747 140.763 13.862C140.197 13.7493 139.678 13.4712 139.27 13.0629C138.862 12.6545 138.585 12.1342 138.472 11.5678C138.36 11.0014 138.417 10.4142 138.638 9.88069C138.859 9.34713 139.232 8.89109 139.712 8.57023C140.192 8.24938 140.755 8.07812 141.332 8.07812C142.105 8.07812 142.847 8.38577 143.394 8.93337C143.941 9.48098 144.248 10.2237 144.248 10.9981" fill="#FF8A03"/>
<path d="M144.248 50.9981C144.248 51.5756 144.077 52.1402 143.757 52.6204C143.436 53.1006 142.981 53.4748 142.448 53.6959C141.915 53.9169 141.329 53.9747 140.763 53.862C140.197 53.7493 139.678 53.4712 139.27 53.0629C138.862 52.6545 138.585 52.1342 138.472 51.5678C138.36 51.0014 138.417 50.4142 138.638 49.8807C138.859 49.3471 139.232 48.8911 139.712 48.5702C140.192 48.2494 140.755 48.0781 141.332 48.0781C142.105 48.0781 142.847 48.3858 143.394 48.9334C143.941 49.481 144.248 50.2237 144.248 50.9981" fill="#1CA6B8"/>
<path d="M44.0363 21C43.7291 21 43.427 21.078 43.1581 21.2266C42.8891 21.3752 42.6622 21.5897 42.4985 21.85L36.7464 30.96L30.9943 21.85C30.7804 21.5164 30.4642 21.2613 30.093 21.1232C29.7219 20.9851 29.3161 20.9714 28.9365 21.0841C28.557 21.1969 28.2242 21.4301 27.9884 21.7486C27.7526 22.067 27.6265 22.4535 27.6289 22.85V39.53C27.6289 39.9278 27.7868 40.3094 28.0677 40.5907C28.3486 40.872 28.7296 41.03 29.1269 41.03C29.5242 41.03 29.9052 40.872 30.1861 40.5907C30.467 40.3094 30.6248 39.9278 30.6248 39.53V26.81L36.2471 35.53C36.3001 35.6147 36.3737 35.6846 36.461 35.733C36.5484 35.7814 36.6466 35.8068 36.7464 35.8068C36.8462 35.8068 36.9444 35.7814 37.0317 35.733C37.1191 35.6846 37.1927 35.6147 37.2457 35.53L42.868 26.79V39.53C42.8731 39.9166 43.028 40.286 43.3 40.5603C43.5721 40.8346 43.94 40.9923 44.3259 41C44.7206 41 45.099 40.843 45.3781 40.5636C45.6571 40.2842 45.8139 39.9052 45.8139 39.51V22.8C45.8063 22.3284 45.6173 21.8779 45.2861 21.5426C44.9549 21.2072 44.5072 21.0128 44.0363 21" fill="white"/>
<path d="M54.0325 21C53.6317 21 53.2471 21.1588 52.9627 21.4417C52.6784 21.7246 52.5173 22.1086 52.5146 22.51V39.51C52.5729 39.8658 52.7554 40.1893 53.0298 40.4227C53.3042 40.6561 53.6526 40.7842 54.0126 40.7842C54.3726 40.7842 54.7209 40.6561 54.9953 40.4227C55.2697 40.1893 55.4523 39.8658 55.5105 39.51V22.51C55.5081 22.1154 55.3525 21.7373 55.0767 21.4555C54.8009 21.1737 54.4264 21.0104 54.0325 21" fill="white"/>
<path d="M91.1902 22.1501C91.0383 21.8056 90.789 21.5132 90.4732 21.3089C90.1573 21.1046 89.7887 20.9972 89.4127 21.0001C89.0347 21.0057 88.6661 21.1186 88.3497 21.3257C88.0332 21.5328 87.782 21.8256 87.6251 22.1701L80.3651 39.0001C80.2718 39.223 80.2348 39.4656 80.2574 39.7063C80.2801 39.9471 80.3617 40.1785 80.495 40.3801C80.6407 40.5973 80.8421 40.7714 81.0781 40.884C81.3141 40.9965 81.5759 41.0435 81.8362 41.02C82.0965 40.9965 82.3458 40.9034 82.5578 40.7503C82.7698 40.5973 82.9369 40.3899 83.0415 40.1501L84.799 36.0001H93.9364L95.6741 40.1201C95.7881 40.3807 95.9753 40.6026 96.2128 40.7588C96.4503 40.915 96.7281 40.9988 97.0122 41.0001H97.1121C97.3533 41.0027 97.5913 40.9446 97.8042 40.831C98.0171 40.7174 98.1981 40.552 98.3304 40.3501C98.4621 40.1476 98.5419 39.9158 98.5628 39.6751C98.5837 39.4344 98.5451 39.1922 98.4503 38.9701L91.1902 22.1501ZM86.0174 33.1501L89.3827 25.2701L92.7181 33.1501H86.0174Z" fill="white"/>
<path d="M70.3499 21H61.3623V39.51C61.4205 39.8658 61.6031 40.1893 61.8775 40.4227C62.1519 40.6561 62.5002 40.7842 62.8602 40.7842C63.2203 40.7842 63.5686 40.6561 63.843 40.4227C64.1173 40.1893 64.3 39.8658 64.3582 39.51V33.61H68.7022L73.5655 40.39C73.706 40.5847 73.8905 40.7434 74.104 40.8529C74.3175 40.9624 74.5539 41.0197 74.7938 41.02C75.0714 41.0205 75.3437 40.9444 75.5808 40.7999C75.8178 40.6553 76.0105 40.4481 76.1375 40.201C76.2645 39.9538 76.3209 39.6764 76.3006 39.3992C76.2802 39.122 76.1839 38.8559 76.0221 38.63L72.2074 33.32C73.4771 32.9141 74.5846 32.1136 75.3693 31.0347C76.154 29.9559 76.5751 28.6547 76.5714 27.32V27.25C76.5661 25.5975 75.9096 24.0138 74.7446 22.8434C73.5795 21.673 72.0002 21.0105 70.3499 21M64.4081 24H70.3499C71.2248 24.0053 72.062 24.3577 72.6779 24.9801C73.2937 25.6024 73.6381 26.4439 73.6354 27.32V27.39C73.6381 28.2661 73.2937 29.1076 72.6779 29.7299C72.062 30.3523 71.2248 30.7047 70.3499 30.71H64.4081V24Z" fill="white"/>
<path d="M113.819 38.09H107.708C107.458 38.0923 107.21 38.0448 106.979 37.9504C106.747 37.856 106.537 37.7165 106.36 37.54C106.007 37.1798 105.809 36.6948 105.81 36.19V22.44C105.805 22.058 105.651 21.6932 105.38 21.424C105.109 21.1548 104.744 21.0026 104.362 21H104.213C103.847 21.0489 103.511 21.2308 103.27 21.5109C103.029 21.7911 102.899 22.1502 102.904 22.52V36.92C102.912 38.0048 103.348 39.0425 104.117 39.8068C104.886 40.5711 105.925 41 107.009 41H113.819C114.187 40.9696 114.529 40.8021 114.778 40.5307C115.028 40.2593 115.166 39.9039 115.166 39.535C115.166 39.1661 115.028 38.8107 114.778 38.5393C114.529 38.2679 114.187 38.1004 113.819 38.07" fill="white"/>
<path d="M220.653 41.0006C220.256 40.9907 219.865 41.0995 219.53 41.3131C219.195 41.5267 218.931 41.8355 218.772 42.2C218.613 42.5644 218.567 42.9681 218.638 43.3593C218.709 43.7505 218.895 44.1115 219.173 44.3962C219.45 44.6809 219.806 44.8764 220.194 44.9577C220.583 45.0391 220.987 45.0025 221.355 44.8527C221.723 44.7029 222.038 44.4467 222.26 44.1168C222.481 43.7869 222.6 43.3983 222.6 43.0006C222.6 42.4787 222.397 41.9775 222.033 41.6038C221.669 41.2301 221.174 41.0137 220.653 41.0006Z" fill="white"/>
<path d="M227.203 41C226.808 41 226.422 41.1173 226.094 41.3371C225.765 41.5568 225.509 41.8692 225.358 42.2346C225.207 42.6001 225.167 43.0022 225.244 43.3902C225.321 43.7781 225.512 44.1345 225.791 44.4142C226.07 44.6939 226.426 44.8844 226.814 44.9616C227.201 45.0387 227.603 44.9991 227.968 44.8478C228.333 44.6964 228.644 44.44 228.864 44.1111C229.083 43.7822 229.201 43.3956 229.201 43C229.201 42.4696 228.99 41.9609 228.616 41.5858C228.241 41.2107 227.733 41 227.203 41Z" fill="white"/>
<path d="M182.675 17.6406C182.248 17.6406 181.839 17.8102 181.538 18.1122C181.236 18.4141 181.067 18.8236 181.067 19.2506V35.7506C181.081 37.0729 180.606 38.3537 179.734 39.3469C178.862 40.34 177.655 40.9753 176.343 41.1306H175.834C174.444 41.128 173.112 40.574 172.13 39.59C171.147 38.606 170.594 37.2722 170.591 35.8806V32.2006C170.591 31.7763 170.423 31.3693 170.123 31.0693C169.824 30.7692 169.417 30.6006 168.993 30.6006C168.57 30.6006 168.163 30.7692 167.864 31.0693C167.564 31.3693 167.396 31.7763 167.396 32.2006V35.7106C167.387 37.9162 168.223 40.0412 169.731 41.6484C171.239 43.2556 173.306 44.2227 175.504 44.3506H175.834C178.071 44.348 180.216 43.4569 181.798 41.8728C183.38 40.2886 184.27 38.1409 184.272 35.9006V33.5006V19.2506C184.272 18.8236 184.103 18.4141 183.801 18.1122C183.5 17.8102 183.091 17.6406 182.665 17.6406" fill="white"/>
<path d="M193.26 17.6406C192.835 17.6433 192.429 17.8141 192.13 18.1157C191.83 18.4174 191.662 18.8254 191.662 19.2506V36.3106C191.645 36.532 191.673 36.7547 191.746 36.9646C191.818 37.1744 191.934 37.367 192.084 37.5301C192.235 37.6932 192.417 37.8234 192.621 37.9124C192.824 38.0015 193.043 38.0474 193.265 38.0474C193.487 38.0474 193.706 38.0015 193.909 37.9124C194.113 37.8234 194.295 37.6932 194.446 37.5301C194.596 37.367 194.712 37.1744 194.784 36.9646C194.857 36.7547 194.885 36.532 194.868 36.3106V19.2506C194.868 18.8236 194.698 18.4141 194.397 18.1122C194.095 17.8102 193.686 17.6406 193.26 17.6406" fill="white"/>
<path d="M254.037 29.2094C254.037 28.4411 253.886 27.6804 253.592 26.9707C253.299 26.2609 252.868 25.616 252.326 25.0728C251.783 24.5296 251.139 24.0987 250.431 23.8047C249.722 23.5107 248.962 23.3594 248.195 23.3594H245.688C243.922 23.4241 242.25 24.1718 241.022 25.4454C239.795 26.7191 239.109 28.4195 239.107 30.1894V34.7594H228.921C226.535 34.7594 225.516 33.7094 225.516 31.2494V26.1494C225.523 25.7692 225.398 25.3984 225.164 25.0996C224.929 24.8008 224.598 24.5923 224.228 24.5094C223.994 24.4619 223.753 24.4671 223.522 24.5245C223.29 24.582 223.074 24.6902 222.89 24.8415C222.705 24.9927 222.557 25.1831 222.455 25.399C222.353 25.6148 222.3 25.8506 222.301 26.0894V31.2594C222.301 33.7194 221.302 34.7694 218.875 34.7694H205.484V26.1694C205.452 25.763 205.268 25.3836 204.969 25.1069C204.67 24.8302 204.278 24.6766 203.871 24.6766C203.464 24.6766 203.072 24.8302 202.773 25.1069C202.474 25.3836 202.29 25.763 202.258 26.1694V38.7094C202.256 39.734 201.847 40.7158 201.123 41.4394C200.398 42.163 199.417 42.5694 198.394 42.5694H196.656C196.433 42.5518 196.21 42.5806 195.999 42.6538C195.788 42.727 195.595 42.8431 195.431 42.9947C195.267 43.1464 195.136 43.3304 195.047 43.5351C194.957 43.7399 194.911 43.9609 194.911 44.1844C194.911 44.4078 194.957 44.6289 195.047 44.8336C195.136 45.0383 195.267 45.2223 195.431 45.374C195.595 45.5257 195.788 45.6418 195.999 45.715C196.21 45.7882 196.433 45.8169 196.656 45.7994H198.394C200.272 45.7994 202.074 45.0527 203.404 43.7234C204.733 42.394 205.481 40.5907 205.484 38.7094V37.9194H218.875C219.835 37.9778 220.797 37.8204 221.688 37.4587C222.58 37.0971 223.379 36.5404 224.028 35.8294C224.614 36.5485 225.365 37.1144 226.218 37.4784C227.07 37.8425 227.998 37.9938 228.921 37.9194H248.714C250.126 37.9194 251.48 37.3578 252.478 36.3583C253.476 35.3587 254.037 34.003 254.037 32.5894V29.2094ZM250.921 32.3394C250.921 32.9865 250.664 33.6071 250.207 34.0647C249.751 34.5223 249.131 34.7794 248.485 34.7794H242.223V30.2094C242.224 29.2572 242.589 28.3414 243.242 27.6498C243.896 26.9581 244.789 26.543 245.738 26.4894H247.805C248.632 26.4894 249.424 26.8181 250.009 27.4032C250.593 27.9883 250.921 28.7819 250.921 29.6094V32.3394Z" fill="white"/>
<path d="M403.371 34.7819C402.883 34.7795 402.4 34.679 401.951 34.4863C401.503 34.2936 401.098 34.0126 400.759 33.6601C400.421 33.3075 400.157 32.8906 399.983 32.434C399.809 31.9773 399.728 31.4903 399.746 31.0019V31.0019C399.724 30.5154 399.801 30.0295 399.972 29.5735C400.143 29.1176 400.404 28.701 400.74 28.3488C401.076 27.9965 401.48 27.716 401.926 27.5241C402.373 27.3321 402.855 27.2327 403.341 27.2319C403.83 27.2355 404.314 27.3376 404.763 27.532C405.213 27.7264 405.618 28.0092 405.956 28.3636C406.295 28.7181 406.558 29.1369 406.731 29.5952C406.905 30.0536 406.985 30.5421 406.966 31.0319C406.986 31.5171 406.908 32.0014 406.736 32.4556C406.565 32.9099 406.303 33.3246 405.967 33.675C405.631 34.0253 405.228 34.304 404.782 34.4942C404.336 34.6845 403.856 34.7823 403.371 34.7819M403.371 36.5219C404.103 36.5393 404.832 36.4091 405.513 36.1389C406.194 35.8687 406.814 35.464 407.336 34.949C407.857 34.434 408.27 33.8192 408.55 33.1411C408.829 32.463 408.97 31.7355 408.963 31.0019C408.963 29.522 408.376 28.1027 407.331 27.0562C406.286 26.0098 404.869 25.4219 403.391 25.4219C401.913 25.4219 400.496 26.0098 399.451 27.0562C398.406 28.1027 397.818 29.522 397.818 31.0019V31.0019C397.809 31.7314 397.946 32.4555 398.223 33.1305C398.499 33.8056 398.909 34.4178 399.428 34.9304C399.946 35.4431 400.563 35.8456 401.24 36.1139C401.918 36.3822 402.642 36.5108 403.371 36.4919M393.564 35.4919C393.564 35.7412 393.663 35.9803 393.839 36.1566C394.015 36.3328 394.254 36.4319 394.503 36.4319C394.752 36.4319 394.991 36.3328 395.167 36.1566C395.343 35.9803 395.442 35.7412 395.442 35.4919V26.4919C395.442 26.2426 395.343 26.0035 395.167 25.8272C394.991 25.6509 394.752 25.5519 394.503 25.5519C394.254 25.5519 394.015 25.6509 393.839 25.8272C393.663 26.0035 393.564 26.2426 393.564 26.4919V35.4919ZM384.037 35.4019C384.028 35.5306 384.045 35.66 384.088 35.7817C384.131 35.9034 384.199 36.0149 384.287 36.1089C384.375 36.203 384.482 36.2776 384.601 36.3281C384.719 36.3785 384.847 36.4036 384.976 36.4019H390.738C390.949 36.379 391.143 36.2791 391.285 36.1213C391.426 35.9635 391.505 35.7589 391.505 35.5469C391.505 35.3348 391.426 35.1302 391.285 34.9724C391.143 34.8146 390.949 34.7147 390.738 34.6919H385.905V26.5219C385.881 26.2906 385.772 26.0764 385.6 25.9206C385.427 25.7649 385.203 25.6787 384.971 25.6787C384.739 25.6787 384.515 25.7649 384.343 25.9206C384.17 26.0764 384.061 26.2906 384.037 26.5219V35.4019ZM361.169 35.4819C361.193 35.7132 361.302 35.9274 361.474 36.0831C361.646 36.2389 361.87 36.3251 362.103 36.3251C362.335 36.3251 362.559 36.2389 362.731 36.0831C362.904 35.9274 363.012 35.7132 363.036 35.4819V32.0019H367.64C367.851 31.979 368.045 31.8791 368.187 31.7213C368.328 31.5635 368.406 31.3589 368.406 31.1469C368.406 30.9348 368.328 30.7302 368.187 30.5724C368.045 30.4146 367.851 30.3147 367.64 30.2919H363.036V27.3719H368.319C368.439 27.3849 368.56 27.3725 368.675 27.3354C368.79 27.2984 368.895 27.2375 368.985 27.1569C369.075 27.0762 369.147 26.9776 369.196 26.8673C369.245 26.757 369.27 26.6376 369.27 26.5169C369.27 26.3961 369.245 26.2767 369.196 26.1665C369.147 26.0562 369.075 25.9575 368.985 25.8769C368.895 25.7962 368.79 25.7354 368.675 25.6983C368.56 25.6613 368.439 25.6489 368.319 25.6619H362.108C361.979 25.6601 361.851 25.6853 361.732 25.7357C361.614 25.7861 361.507 25.8608 361.418 25.9548C361.33 26.0489 361.262 26.1603 361.219 26.2821C361.176 26.4038 361.159 26.5331 361.169 26.6619V35.4819ZM353.919 35.4819C353.943 35.7157 354.053 35.9324 354.227 36.0899C354.401 36.2474 354.628 36.3345 354.863 36.3345C355.097 36.3345 355.324 36.2474 355.498 36.0899C355.672 35.9324 355.782 35.7157 355.806 35.4819V27.4019H358.413C358.643 27.4019 358.864 27.3102 359.027 27.1471C359.19 26.9839 359.282 26.7626 359.282 26.5319C359.282 26.3011 359.19 26.0799 359.027 25.9167C358.864 25.7535 358.643 25.6619 358.413 25.6619H351.333C351.102 25.6619 350.881 25.7535 350.718 25.9167C350.555 26.0799 350.464 26.3011 350.464 26.5319C350.464 26.7626 350.555 26.9839 350.718 27.1471C350.881 27.3102 351.102 27.4019 351.333 27.4019H353.919V35.4819ZM342.195 31.0019V27.3719H344.921C346.299 27.3719 347.128 28.0019 347.128 29.1419C347.128 30.2219 346.269 30.9219 344.931 30.9219L342.195 31.0019ZM340.318 35.5319C340.318 35.7812 340.417 36.0203 340.593 36.1966C340.769 36.3728 341.007 36.4719 341.256 36.4719C341.505 36.4719 341.744 36.3728 341.92 36.1966C342.096 36.0203 342.195 35.7812 342.195 35.5319V32.6219H344.552L347.138 35.9219C347.238 36.0739 347.375 36.1984 347.535 36.284C347.696 36.3696 347.875 36.4135 348.057 36.4119C348.173 36.4145 348.289 36.3941 348.397 36.3517C348.505 36.3092 348.604 36.2457 348.688 36.1648C348.771 36.0839 348.838 35.9872 348.884 35.8802C348.93 35.7733 348.955 35.6583 348.956 35.5419C348.954 35.4089 348.926 35.2776 348.872 35.1556C348.819 35.0337 348.742 34.9237 348.646 34.8319L346.649 32.2519C347.358 32.0815 347.986 31.6706 348.426 31.0891C348.867 30.5076 349.093 29.7913 349.066 29.0619V29.0619C349.086 28.2093 348.771 27.3828 348.187 26.7619C347.341 26.0156 346.237 25.6315 345.111 25.6919H341.306C341.173 25.683 341.039 25.7028 340.914 25.75C340.789 25.7971 340.675 25.8705 340.581 25.9651C340.486 26.0598 340.413 26.1736 340.366 26.299C340.319 26.4243 340.299 26.5583 340.308 26.6919L340.318 35.5319ZM332.498 34.8319C332.008 34.8271 331.523 34.7231 331.073 34.5261C330.624 34.3291 330.218 34.0432 329.881 33.6856C329.545 33.3279 329.284 32.9058 329.114 32.4447C328.944 31.9835 328.869 31.4928 328.893 31.0019V31.0019C328.872 30.5154 328.949 30.0295 329.12 29.5735C329.291 29.1176 329.552 28.701 329.888 28.3488C330.224 27.9965 330.627 27.716 331.074 27.5241C331.521 27.3321 332.002 27.2327 332.488 27.2319C332.975 27.2356 333.456 27.3368 333.902 27.5295C334.349 27.7221 334.753 28.0024 335.09 28.3537C335.427 28.7051 335.69 29.1204 335.864 29.5752C336.038 30.03 336.12 30.5151 336.104 31.0019V31.0019C336.125 31.4866 336.048 31.9707 335.878 32.4249C335.707 32.8791 335.447 33.294 335.112 33.6445C334.777 33.995 334.374 34.2738 333.928 34.4641C333.483 34.6545 333.003 34.7524 332.518 34.7519M332.518 36.4919C333.245 36.5039 333.967 36.3706 334.641 36.0998C335.316 35.829 335.929 35.4262 336.446 34.9149C336.963 34.4037 337.373 33.7942 337.652 33.1223C337.931 32.4504 338.074 31.7295 338.071 31.0019C338.071 29.522 337.484 28.1027 336.439 27.0562C335.394 26.0098 333.976 25.4219 332.498 25.4219C331.021 25.4219 329.603 26.0098 328.558 27.0562C327.513 28.1027 326.926 29.522 326.926 31.0019V31.0019C326.916 31.7323 327.054 32.4572 327.331 33.1329C327.609 33.8086 328.019 34.4213 328.539 34.9341C329.058 35.4469 329.676 35.8492 330.355 36.1169C331.033 36.3846 331.759 36.5122 332.488 36.4919M319.097 31.1819V27.3719H321.274C322.682 27.3719 323.581 28.0319 323.581 29.2819C323.581 30.3919 322.692 31.1819 321.274 31.1819H319.097ZM317.229 35.4819C317.253 35.7132 317.362 35.9274 317.535 36.0831C317.707 36.2389 317.931 36.3251 318.163 36.3251C318.395 36.3251 318.619 36.2389 318.792 36.0831C318.964 35.9274 319.073 35.7132 319.097 35.4819V32.9119H321.224C323.571 32.9119 325.488 31.6619 325.488 29.2619C325.488 27.1119 323.94 25.6919 321.494 25.6919H318.228C318.099 25.6901 317.971 25.7153 317.853 25.7657C317.734 25.8161 317.627 25.8908 317.539 25.9848C317.451 26.0789 317.383 26.1903 317.34 26.3121C317.297 26.4338 317.28 26.5631 317.289 26.6919L317.229 35.4819Z" fill="white"/>
<path d="M376.149 36.5219C376.881 36.5393 377.61 36.4091 378.291 36.1389C378.972 35.8687 379.592 35.464 380.114 34.949C380.636 34.434 381.048 33.8192 381.328 33.1411C381.608 32.463 381.748 31.7355 381.741 31.0019V31.0019C381.741 29.522 381.154 28.1027 380.109 27.0562C379.064 26.0098 377.647 25.4219 376.169 25.4219C374.691 25.4219 373.274 26.0098 372.229 27.0562C371.184 28.1027 370.597 29.522 370.597 31.0019C370.583 31.7339 370.717 32.4612 370.992 33.1398C371.267 33.8184 371.676 34.4342 372.195 34.95C372.714 35.4659 373.332 35.8712 374.011 36.1413C374.691 36.4115 375.418 36.5409 376.149 36.5219" fill="#FF8A03"/>
</svg>
