<svg xmlns="http://www.w3.org/2000/svg" xmlns:xlink="http://www.w3.org/1999/xlink" viewBox="0 0 726.85 100"><defs><style>.cls-1{fill:none;}.cls-2{clip-path:url(#clip-path);}.cls-3{fill:#333;}.cls-4{fill:#fff;}.cls-5{fill:#ff8a03;}.cls-6{fill:#1ca6b8;}</style><clipPath id="clip-path" transform="translate(0 0)"><rect class="cls-1" width="726.85" height="100"/></clipPath></defs><title>mrl-header-left-branding</title><g id="Layer_2" data-name="Layer 2"><g id="Layer_1-2" data-name="Layer 1"><g class="cls-2"><path class="cls-3" d="M0,51.76V48.24A48.24,48.24,0,0,1,48.24,0H678.62a48.24,48.24,0,0,1,48.23,48.24v3.52A48.23,48.23,0,0,1,678.62,100H48.24A48.24,48.24,0,0,1,0,51.76" transform="translate(0 0)"/><path class="cls-4" d="M395.83,68.39h-.18A2.44,2.44,0,0,1,393.21,66V34.06a2.45,2.45,0,0,1,2.44-2.45h.18a2.45,2.45,0,0,1,2.44,2.45V66a2.44,2.44,0,0,1-2.44,2.44" transform="translate(0 0)"/><path class="cls-4" d="M372.08,68.39h-.18A2.44,2.44,0,0,1,369.46,66V34.06a2.45,2.45,0,0,1,2.44-2.45h.18a2.45,2.45,0,0,1,2.44,2.45V66a2.44,2.44,0,0,1-2.44,2.44" transform="translate(0 0)"/><path class="cls-4" d="M384,62.49h-.17a2.44,2.44,0,0,1-2.44-2.44V40a2.44,2.44,0,0,1,2.44-2.44H384A2.44,2.44,0,0,1,386.39,40v20.1A2.44,2.44,0,0,1,384,62.49" transform="translate(0 0)"/><path class="cls-5" d="M386.78,30a2.92,2.92,0,1,1-2.92-2.92A2.92,2.92,0,0,1,386.78,30" transform="translate(0 0)"/><path class="cls-6" d="M386.78,70a2.92,2.92,0,1,1-2.92-2.92A2.92,2.92,0,0,1,386.78,70" transform="translate(0 0)"/><path class="cls-4" d="M286.43,40a1.82,1.82,0,0,0-1.54.85l-5.76,9.11-5.76-9.11a1.83,1.83,0,0,0-3.37,1V58.53a1.49,1.49,0,0,0,3,0V45.81l5.63,8.72a.59.59,0,0,0,1,0l5.63-8.74V58.53A1.49,1.49,0,0,0,286.72,60h0a1.49,1.49,0,0,0,1.49-1.49V41.8A1.83,1.83,0,0,0,286.43,40" transform="translate(0 0)"/><path class="cls-4" d="M296.44,40a1.52,1.52,0,0,0-1.52,1.51v17a1.52,1.52,0,0,0,3,0v-17A1.52,1.52,0,0,0,296.44,40" transform="translate(0 0)"/><path class="cls-4" d="M333.65,41.15A1.93,1.93,0,0,0,331.87,40a2,2,0,0,0-1.79,1.17L322.81,58a1.47,1.47,0,0,0,.13,1.38,1.46,1.46,0,0,0,2.55-.23L327.25,55h9.15l1.74,4.12a1.47,1.47,0,0,0,1.34.88h.1a1.44,1.44,0,0,0,1.22-.65,1.47,1.47,0,0,0,.12-1.38Zm-5.18,11,3.37-7.88,3.34,7.88Z" transform="translate(0 0)"/><path class="cls-4" d="M312.78,40h-9V58.51a1.52,1.52,0,0,0,3,0v-5.9h4.35L316,59.39a1.52,1.52,0,0,0,1.23.63,1.51,1.51,0,0,0,1.23-2.39l-3.82-5.31a6.28,6.28,0,0,0,4.37-6v-.07A6.27,6.27,0,0,0,312.78,40m-5.95,3h5.95a3.31,3.31,0,0,1,3.29,3.32v.07a3.31,3.31,0,0,1-3.29,3.32h-5.95Z" transform="translate(0 0)"/><path class="cls-4" d="M356.31,57.09h-6.12a1.89,1.89,0,0,1-1.35-.55,1.92,1.92,0,0,1-.55-1.35l0-13.75A1.46,1.46,0,0,0,346.84,40h-.15a1.51,1.51,0,0,0-1.31,1.52v14.4A4.11,4.11,0,0,0,349.49,60h6.82a1.47,1.47,0,0,0,0-2.93" transform="translate(0 0)"/><path class="cls-4" d="M463.29,60a2,2,0,1,0,1.95,2,2,2,0,0,0-1.95-2" transform="translate(0 0)"/><path class="cls-4" d="M469.85,60a2,2,0,1,0,2,2,2,2,0,0,0-2-2" transform="translate(0 0)"/><path class="cls-4" d="M425.26,36.64a1.61,1.61,0,0,0-1.61,1.61v16.5a5.36,5.36,0,0,1-4.73,5.38l-.51,0a5.26,5.26,0,0,1-5.25-5.25V51.2a1.6,1.6,0,0,0-3.2,0v3.51a8.62,8.62,0,0,0,8.12,8.64h.33a8.46,8.46,0,0,0,8.45-8.45V52.5h0V38.25a1.61,1.61,0,0,0-1.61-1.61" transform="translate(0 0)"/><path class="cls-4" d="M435.86,36.64a1.61,1.61,0,0,0-1.6,1.61V55.31a1.61,1.61,0,1,0,3.21,0V38.25a1.61,1.61,0,0,0-1.61-1.61" transform="translate(0 0)"/><path class="cls-4" d="M496.72,48.21a5.85,5.85,0,0,0-5.85-5.85h-2.51v0a6.84,6.84,0,0,0-6.59,6.83v4.57h-10.2c-2.39,0-3.41-1.05-3.41-3.51V45.15a1.65,1.65,0,0,0-1.29-1.64,1.61,1.61,0,0,0-1.93,1.58v5.17c0,2.46-1,3.51-3.43,3.51H448.1v-8.6a1.62,1.62,0,0,0-3.23,0V57.71A3.87,3.87,0,0,1,441,61.57h-1.74a1.62,1.62,0,1,0,0,3.23H441a7.1,7.1,0,0,0,7.1-7.09v-.79h13.41a6.46,6.46,0,0,0,5.16-2.09,5.73,5.73,0,0,0,4.9,2.09l19.82,0a5.33,5.33,0,0,0,5.33-5.33Zm-3.12,3.13a2.44,2.44,0,0,1-2.44,2.44h-6.27V49.21a3.73,3.73,0,0,1,3.52-3.72h2.07a3.12,3.12,0,0,1,3.12,3.12Z" transform="translate(0 0)"/><path class="cls-4" d="M646.26,53.78A3.65,3.65,0,0,1,642.63,50v0a3.61,3.61,0,0,1,3.6-3.77,3.66,3.66,0,0,1,3.63,3.8v0a3.6,3.6,0,0,1-3.6,3.75m0,1.74a5.47,5.47,0,0,0,5.6-5.52v0a5.58,5.58,0,0,0-11.16,0v0a5.42,5.42,0,0,0,5.56,5.49m-9.82-1a.94.94,0,0,0,1.88,0v-9a.94.94,0,0,0-1.88,0Zm-9.54-.09a.93.93,0,0,0,.94,1h5.77a.86.86,0,0,0,0-1.71h-4.84V45.52a.94.94,0,0,0-1.87,0ZM604,54.48a.94.94,0,0,0,1.87,0V51h4.61a.86.86,0,0,0,0-1.71h-4.61V46.37h5.29a.86.86,0,1,0,0-1.71h-6.22a.93.93,0,0,0-.94,1Zm-7.26,0a.95.95,0,0,0,1.89,0V46.4h2.61a.87.87,0,0,0,0-1.74h-7.09a.87.87,0,0,0,0,1.74h2.59ZM585,50V46.37h2.73c1.38,0,2.21.63,2.21,1.77v0c0,1.08-.86,1.78-2.2,1.78Zm-1.88,4.53a.94.94,0,0,0,1.88,0V51.62h2.36l2.59,3.3a1.09,1.09,0,0,0,.92.49.88.88,0,0,0,.9-.87,1,1,0,0,0-.31-.71l-2-2.58a3.16,3.16,0,0,0,2.42-3.19v0a3.24,3.24,0,0,0-.88-2.3,4.31,4.31,0,0,0-3.08-1.07h-3.81a.94.94,0,0,0-1,1Zm-7.83-.7A3.65,3.65,0,0,1,571.68,50v0a3.61,3.61,0,0,1,3.6-3.77A3.65,3.65,0,0,1,578.9,50v0a3.59,3.59,0,0,1-3.59,3.75m0,1.74A5.47,5.47,0,0,0,580.87,50v0a5.58,5.58,0,0,0-11.16,0v0a5.42,5.42,0,0,0,5.57,5.49m-13.41-5.31V46.37h2.18c1.41,0,2.31.66,2.31,1.91v0c0,1.11-.89,1.9-2.31,1.9ZM560,54.48a.94.94,0,0,0,1.87,0V51.91H564c2.35,0,4.27-1.25,4.27-3.65v0c0-2.15-1.55-3.57-4-3.57h-3.27a.93.93,0,0,0-.94,1Z" transform="translate(0 0)"/><path class="cls-5" d="M619,55.52A5.47,5.47,0,0,0,624.6,50v0a5.58,5.58,0,0,0-11.16,0v0A5.42,5.42,0,0,0,619,55.52" transform="translate(0 0)"/></g></g></g></svg>