<svg width="2370" height="1180" viewBox="0 0 2370 1180" fill="none" xmlns="http://www.w3.org/2000/svg">
<path d="M1504.37 716.34C1494.61 706.589 1486.87 695.01 1481.59 682.266C1476.31 669.521 1473.59 655.861 1473.59 642.065C1473.59 628.269 1476.31 614.609 1481.59 601.864C1486.87 589.12 1494.61 577.541 1504.37 567.79L1726.64 345.52C1746.34 325.822 1773.06 314.757 1800.91 314.758C1828.77 314.759 1855.49 325.826 1875.18 345.525C1894.88 365.224 1905.95 391.941 1905.95 419.799C1905.95 447.656 1894.88 474.372 1875.18 494.07L1652.91 716.34C1643.16 726.097 1631.58 733.838 1618.84 739.118C1606.09 744.399 1592.43 747.118 1578.64 747.118C1564.85 747.118 1551.19 744.399 1538.44 739.118C1525.7 733.838 1514.12 726.097 1504.37 716.34Z" fill="#FF8A03"/>
<path d="M1737.26 780.53C1727.5 770.779 1719.76 759.201 1714.48 746.457C1709.2 733.714 1706.48 720.055 1706.48 706.26C1706.48 692.466 1709.2 678.806 1714.48 666.063C1719.76 653.319 1727.5 641.741 1737.26 631.99L2189.94 179.31C2209.64 159.612 2236.36 148.547 2264.21 148.548C2292.07 148.549 2318.79 159.616 2338.49 179.315C2358.18 199.014 2369.25 225.731 2369.25 253.589C2369.25 281.446 2358.18 308.162 2338.48 327.86L1885.8 780.53C1876.05 790.287 1864.47 798.028 1851.73 803.309C1838.98 808.589 1825.32 811.308 1811.53 811.308C1797.74 811.308 1784.08 808.589 1771.33 803.309C1758.59 798.028 1747.01 790.287 1737.26 780.53Z" fill="#1CA6B8"/>
<path d="M1667.08 1148.67C1657.32 1138.92 1649.58 1127.34 1644.3 1114.6C1639.02 1101.85 1636.3 1088.19 1636.3 1074.4C1636.3 1060.6 1639.02 1046.94 1644.3 1034.19C1649.58 1021.45 1657.32 1009.87 1667.08 1000.12L2119.76 547.44C2139.46 527.741 2166.18 516.675 2194.04 516.676C2221.9 516.677 2248.62 527.745 2268.31 547.445C2288.01 567.145 2299.08 593.864 2299.08 621.724C2299.08 649.583 2288.01 676.301 2268.31 696L1815.63 1148.68C1805.88 1158.44 1794.3 1166.18 1781.56 1171.46C1768.81 1176.74 1755.15 1179.46 1741.35 1179.46C1727.56 1179.46 1713.9 1176.74 1701.15 1171.46C1688.41 1166.18 1676.83 1158.44 1667.08 1148.68" fill="#333333"/>
</svg>
