<svg width="2370" height="1180" viewBox="0 0 2370 1180" fill="none" xmlns="http://www.w3.org/2000/svg">
<path d="M865.63 716.34C875.39 706.589 883.13 695.01 888.41 682.266C893.69 669.521 896.41 655.861 896.41 642.065C896.41 628.269 893.69 614.609 888.41 601.864C883.13 589.12 875.39 577.541 865.63 567.79L643.36 345.52C623.66 325.822 596.94 314.757 569.09 314.758C541.23 314.759 514.51 325.826 494.82 345.525C475.12 365.224 464.05 391.941 464.05 419.799C464.05 447.656 475.12 474.372 494.82 494.07L717.09 716.34C726.84 726.097 738.42 733.838 751.16 739.118C763.91 744.399 777.57 747.118 791.36 747.118C805.15 747.118 818.81 744.399 831.56 739.118C844.3 733.838 855.88 726.097 865.63 716.34Z" fill="#FF8A03"/>
<path d="M632.74 780.531C642.5 770.78 650.24 759.202 655.52 746.458C660.8 733.715 663.52 720.056 663.52 706.261C663.52 692.467 660.8 678.807 655.52 666.064C650.24 653.32 642.5 641.742 632.74 631.991L180.06 179.311C160.36 159.613 133.64 148.548 105.79 148.549C77.9296 148.55 51.2095 159.617 31.5095 179.316C11.8195 199.015 0.749512 225.732 0.749512 253.59C0.749512 281.447 11.8195 308.163 31.5195 327.861L484.199 780.531C493.949 790.288 505.53 798.029 518.27 803.31C531.02 808.59 544.679 811.309 558.469 811.309C572.259 811.309 585.92 808.59 598.67 803.31C611.41 798.029 622.99 790.288 632.74 780.531Z" fill="#1CA6B8"/>
<path d="M702.919 1148.67C712.679 1138.92 720.419 1127.34 725.699 1114.6C730.979 1101.85 733.699 1088.19 733.699 1074.4C733.699 1060.6 730.979 1046.94 725.699 1034.19C720.419 1021.45 712.679 1009.87 702.919 1000.12L250.239 547.44C230.539 527.741 203.819 516.675 175.959 516.676C148.099 516.677 121.379 527.745 101.689 547.445C81.9892 567.145 70.9192 593.864 70.9192 621.724C70.9192 649.583 81.9892 676.301 101.689 696L554.369 1148.68C564.119 1158.44 575.699 1166.18 588.439 1171.46C601.189 1176.74 614.849 1179.46 628.649 1179.46C642.439 1179.46 656.099 1176.74 668.849 1171.46C681.589 1166.18 693.169 1158.44 702.919 1148.68" fill="#333333"/>
</svg>
