<svg xmlns="http://www.w3.org/2000/svg" xmlns:xlink="http://www.w3.org/1999/xlink" viewBox="0 0 1681.25 1179.43"><defs><style>.cls-1{fill:none;}.cls-2{clip-path:url(#clip-path);}.cls-3{fill:#1ca6b8;}.cls-4{fill:#ff8a03;}.cls-5{fill:#333;}</style><clipPath id="clip-path" transform="translate(0 0)"><rect class="cls-1" width="1681.25" height="1179.43"/></clipPath></defs><title>mrl-bg-right</title><g id="Layer_2" data-name="Layer 2"><g id="Layer_1-2" data-name="Layer 1"><g class="cls-2"><path class="cls-3" d="M153,580.55a153,153,0,1,0-153-153,153,153,0,0,0,153,153" transform="translate(0 0)"/><path class="cls-4" d="M816.37,716.34h0a105,105,0,0,1,0-148.55l222.27-222.27a105,105,0,0,1,148.54,148.55L964.91,716.34a105,105,0,0,1-148.54,0" transform="translate(0 0)"/><path class="cls-3" d="M1049.26,780.53h0a105,105,0,0,1,0-148.54l452.68-452.68a105,105,0,0,1,148.54,148.55L1197.8,780.53a105,105,0,0,1-148.54,0" transform="translate(0 0)"/><path class="cls-5" d="M979.08,1148.67h0a105,105,0,0,1,0-148.55l452.68-452.68A105,105,0,0,1,1580.31,696l-452.68,452.68a105,105,0,0,1-148.55,0" transform="translate(0 0)"/><path class="cls-4" d="M1398.29,0A119.3,119.3,0,1,1,1279,119.29,119.44,119.44,0,0,1,1398.29,0m0,234.5a115.21,115.21,0,1,0-115.2-115.21,115.34,115.34,0,0,0,115.2,115.21" transform="translate(0 0)"/><path class="cls-4" d="M1398.29,13.4A105.9,105.9,0,1,1,1292.4,119.3,106,106,0,0,1,1398.29,13.4m0,207.7a101.81,101.81,0,1,0-101.8-101.8,101.92,101.92,0,0,0,101.8,101.8" transform="translate(0 0)"/><path class="cls-4" d="M1398.29,26.79a92.51,92.51,0,1,1-92.5,92.5,92.6,92.6,0,0,1,92.5-92.5m0,180.91a88.41,88.41,0,1,0-88.4-88.41,88.51,88.51,0,0,0,88.4,88.41" transform="translate(0 0)"/><path class="cls-4" d="M1398.29,40.19a79.11,79.11,0,1,1-79.1,79.11,79.2,79.2,0,0,1,79.1-79.11m0,154.12a75,75,0,1,0-75-75,75.1,75.1,0,0,0,75,75" transform="translate(0 0)"/><path class="cls-4" d="M1398.29,53.59a65.71,65.71,0,1,1-65.7,65.71,65.79,65.79,0,0,1,65.7-65.71m0,127.32a61.62,61.62,0,1,0-61.61-61.61,61.68,61.68,0,0,0,61.61,61.61" transform="translate(0 0)"/><path class="cls-4" d="M1398.29,67A52.31,52.31,0,1,1,1346,119.3,52.36,52.36,0,0,1,1398.29,67m0,100.52a48.22,48.22,0,1,0-48.21-48.21,48.27,48.27,0,0,0,48.21,48.21" transform="translate(0 0)"/><path class="cls-4" d="M1398.29,80.39a38.91,38.91,0,1,1-38.91,38.91,39,39,0,0,1,38.91-38.91m0,73.72a34.82,34.82,0,1,0-34.81-34.81,34.86,34.86,0,0,0,34.81,34.81" transform="translate(0 0)"/><path class="cls-4" d="M1398.29,93.78a25.52,25.52,0,1,1-25.51,25.52,25.55,25.55,0,0,1,25.51-25.52m0,46.94a21.43,21.43,0,1,0-21.41-21.42,21.45,21.45,0,0,0,21.41,21.42" transform="translate(0 0)"/><path class="cls-4" d="M1398.29,107.18a12.12,12.12,0,1,1-12.11,12.12,12.13,12.13,0,0,1,12.11-12.12m0,20.14a8,8,0,1,0-8-8,8,8,0,0,0,8,8" transform="translate(0 0)"/></g></g></g></svg>