<svg xmlns="http://www.w3.org/2000/svg" xmlns:xlink="http://www.w3.org/1999/xlink" viewBox="0 0 218.62 109.3"><defs><style>.cls-1{fill:none;}.cls-2{clip-path:url(#clip-path);}.cls-3{fill:#f1881a;}.cls-4{fill:#fff;}</style><clipPath id="clip-path"><rect class="cls-1" width="218.62" height="109.3"/></clipPath></defs><title>orange-portfolio</title><g id="Layer_2" data-name="Layer 2"><g id="Layer_1-2" data-name="Layer 1"><g class="cls-2"><path class="cls-3" d="M0,109.3a109.31,109.31,0,0,1,218.62,0"/><path class="cls-4" d="M163.11,77a4.85,4.85,0,0,1-4.84-5v0a4.81,4.81,0,0,1,4.8-5,4.87,4.87,0,0,1,4.83,5.06v0a4.78,4.78,0,0,1-4.79,5m0,2.32a7.29,7.29,0,0,0,7.46-7.36v0a7.44,7.44,0,0,0-14.88,0v0a7.22,7.22,0,0,0,7.42,7.32M150,77.92a1.25,1.25,0,0,0,2.5,0V66a1.25,1.25,0,0,0-2.5,0Zm-12.73-.12a1.24,1.24,0,0,0,1.26,1.26h7.68a1.14,1.14,0,1,0,0-2.28h-6.44V66a1.25,1.25,0,0,0-2.5,0Zm-30.49.12a1.25,1.25,0,0,0,2.5,0V73.26h6.14a1.14,1.14,0,1,0,0-2.27h-6.14V67.11h7a1.14,1.14,0,0,0,0-2.28H108a1.24,1.24,0,0,0-1.26,1.26Zm-9.68,0a1.26,1.26,0,0,0,2.52,0V67.15h3.48a1.16,1.16,0,0,0,0-2.32H93.63a1.16,1.16,0,1,0,0,2.32h3.45Zm-15.63-6V67.11h3.64c1.85,0,3,.83,3,2.35v0c0,1.45-1.14,2.38-2.93,2.38Zm-2.5,6a1.25,1.25,0,0,0,2.5,0V74.1H84.6l3.46,4.41a1.41,1.41,0,0,0,1.22.65A1.18,1.18,0,0,0,90.48,78a1.44,1.44,0,0,0-.41-1l-2.72-3.44a4.21,4.21,0,0,0,3.23-4.25v0a4.31,4.31,0,0,0-1.18-3.07,5.77,5.77,0,0,0-4.11-1.42H80.21A1.24,1.24,0,0,0,79,66.09ZM68.5,77a4.86,4.86,0,0,1-4.84-5v0a4.82,4.82,0,0,1,4.8-5,4.88,4.88,0,0,1,4.84,5.06v0a4.79,4.79,0,0,1-4.8,5m0,2.32a7.29,7.29,0,0,0,7.46-7.36v0a7.44,7.44,0,0,0-14.88,0v0a7.22,7.22,0,0,0,7.42,7.32M50.59,72.23V67.11H53.5c1.87,0,3.07.87,3.07,2.54v0c0,1.48-1.18,2.54-3.07,2.54Zm-2.5,5.69a1.25,1.25,0,0,0,2.5,0V74.48h2.83c3.13,0,5.69-1.66,5.69-4.85v0c0-2.87-2.07-4.76-5.41-4.76H49.35a1.24,1.24,0,0,0-1.26,1.26Z"/><path class="cls-4" d="M126.76,79.3a7.29,7.29,0,0,0,7.46-7.36v0a7.44,7.44,0,0,0-14.88,0v0a7.22,7.22,0,0,0,7.42,7.32"/></g></g></g></svg>