<svg width="239" height="239" viewBox="0 0 239 239" fill="none" xmlns="http://www.w3.org/2000/svg">
<path d="M119.29 4.1927e-07C142.886 -0.00197738 165.953 6.99342 185.573 20.1015C205.194 33.2096 220.486 51.8416 229.517 73.6413C238.548 95.4409 240.911 119.429 236.308 142.572C231.705 165.715 220.343 186.973 203.658 203.658C186.973 220.343 165.715 231.705 142.572 236.308C119.429 240.911 95.4409 238.548 73.6412 229.517C51.8416 220.486 33.2097 205.194 20.1016 185.573C6.99347 165.953 -0.00197738 142.886 4.19268e-07 119.29C0.0396928 87.6645 12.6204 57.3457 34.983 34.9831C57.3456 12.6205 87.6645 0.0396928 119.29 4.1927e-07M119.29 234.5C142.077 234.502 164.353 227.747 183.3 215.088C202.248 202.43 217.016 184.438 225.737 163.386C234.459 142.334 236.742 119.169 232.298 96.8198C227.853 74.4706 216.881 53.9412 200.769 37.8278C184.657 21.7144 164.129 10.7407 141.78 6.29446C119.431 1.84825 96.2658 4.1292 75.2134 12.8489C54.1609 21.5686 36.167 36.3353 23.5071 55.2817C10.8472 74.2281 4.08997 96.5032 4.08997 119.29C4.12437 149.833 16.2722 179.116 37.8687 200.714C59.4651 222.313 88.7467 234.463 119.29 234.5" fill="#FF8A03"/>
<path d="M119.29 13.4004C140.235 13.3984 160.711 19.6077 178.128 31.2429C195.544 42.8781 209.119 59.4168 217.136 78.7673C225.153 98.1178 227.251 119.411 223.166 139.954C219.081 160.498 208.996 179.368 194.186 194.179C179.376 208.991 160.506 219.078 139.964 223.165C119.421 227.252 98.1273 225.155 78.776 217.14C59.4247 209.125 42.8848 195.552 31.2479 178.136C19.611 160.721 13.3999 140.246 13.3999 119.3C13.4264 91.2238 24.5908 64.3046 44.443 44.4506C64.2952 24.5965 91.2133 13.4295 119.29 13.4004M119.29 221.1C139.427 221.102 159.112 215.133 175.856 203.946C192.6 192.76 205.651 176.86 213.358 158.256C221.065 139.652 223.082 119.181 219.154 99.4307C215.226 79.6806 205.529 61.5388 191.29 47.2999C177.051 33.0609 158.91 23.3642 139.16 19.4362C119.409 15.5081 98.938 17.5251 80.3342 25.2321C61.7305 32.9391 45.8301 45.9899 34.6438 62.734C23.4575 79.4781 17.4879 99.1634 17.4899 119.3C17.5216 146.29 28.2571 172.164 47.3414 191.249C66.4258 210.333 92.3006 221.069 119.29 221.1" fill="#FF8A03"/>
<path d="M119.29 26.79C137.588 26.7881 155.475 32.2122 170.689 42.3766C185.904 52.541 197.763 66.989 204.766 83.8934C211.769 100.798 213.602 119.399 210.033 137.345C206.464 155.292 197.653 171.776 184.714 184.714C171.776 197.653 155.292 206.464 137.345 210.033C119.399 213.602 100.798 211.769 83.8933 204.766C66.9889 197.763 52.541 185.904 42.3766 170.69C32.2122 155.475 26.7881 137.588 26.79 119.29C26.8165 94.7656 36.5705 71.2533 53.9119 53.9119C71.2532 36.5705 94.7656 26.8165 119.29 26.79M119.29 207.7C136.776 207.702 153.87 202.519 168.411 192.805C182.951 183.092 194.284 169.285 200.977 153.13C207.67 136.975 209.423 119.199 206.012 102.048C202.602 84.8977 194.183 69.1436 181.819 56.7783C169.455 44.4129 153.702 35.9917 136.552 32.5795C119.401 29.1674 101.625 30.9176 85.4692 37.6089C69.3138 44.3001 55.5056 55.6319 45.7905 70.171C36.0755 84.7102 30.89 101.804 30.89 119.29C30.9165 142.728 40.2382 165.199 56.8104 181.773C73.3826 198.347 95.8521 207.671 119.29 207.7" fill="#FF8A03"/>
<path d="M119.29 40.1904C134.937 40.1885 150.233 44.8265 163.244 53.518C176.255 62.2095 186.396 74.5641 192.385 89.0194C198.374 103.475 199.942 119.381 196.891 134.728C193.84 150.074 186.306 164.171 175.243 175.236C164.179 186.301 150.083 193.836 134.737 196.89C119.391 199.943 103.484 198.377 89.0283 192.389C74.5723 186.402 62.2164 176.262 53.5232 163.253C44.83 150.243 40.1899 134.947 40.1899 119.3C40.2138 98.3282 48.5549 78.2216 63.3835 63.3911C78.2122 48.5605 98.3178 40.2169 119.29 40.1904M119.29 194.31C134.124 194.31 148.624 189.912 160.958 181.671C173.291 173.43 182.904 161.716 188.581 148.012C194.258 134.307 195.743 119.227 192.849 104.679C189.955 90.1301 182.812 76.7664 172.323 66.2774C161.834 55.7885 148.47 48.6454 133.922 45.7515C119.373 42.8576 104.293 44.3429 90.5886 50.0195C76.8842 55.696 65.1709 65.309 56.9298 77.6427C48.6887 89.9764 44.29 104.477 44.29 119.31C44.3165 139.194 52.2268 158.255 66.2863 172.314C80.3458 186.374 99.4069 194.284 119.29 194.31Z" fill="#FF8A03"/>
<path d="M119.29 53.5898C132.287 53.5879 144.992 57.44 155.799 64.6591C166.606 71.8782 175.03 82.14 180.005 94.1468C184.98 106.154 186.283 119.366 183.748 132.113C181.214 144.86 174.957 156.57 165.767 165.76C156.578 174.951 144.87 181.21 132.123 183.747C119.376 186.283 106.164 184.982 94.1561 180.009C82.1486 175.036 71.8854 166.614 64.6647 155.807C57.4439 145.001 53.5898 132.296 53.5898 119.3C53.611 101.881 60.5394 85.1809 72.8557 72.8628C85.172 60.5446 101.871 53.6137 119.29 53.5898M119.29 180.91C131.478 180.912 143.393 177.299 153.528 170.529C163.663 163.759 171.562 154.135 176.227 142.875C180.893 131.615 182.114 119.225 179.736 107.271C177.359 95.3168 171.49 84.3362 162.872 75.7179C154.253 67.0996 143.273 61.2307 131.319 58.8534C119.365 56.4761 106.974 57.6972 95.7142 62.3623C84.4542 67.0274 74.8307 74.927 68.0605 85.0618C61.2904 95.1967 57.678 107.112 57.6799 119.3C57.6985 135.634 64.1954 151.294 75.7455 162.844C87.2956 174.394 102.956 180.891 119.29 180.91" fill="#FF8A03"/>
<path d="M119.29 67C129.637 66.996 139.753 70.0609 148.358 75.8068C156.964 81.5527 163.671 89.7216 167.633 99.2803C171.595 108.839 172.634 119.358 170.617 129.507C168.6 139.655 163.618 148.978 156.302 156.295C148.986 163.613 139.665 168.596 129.516 170.615C119.368 172.634 108.849 171.597 99.2896 167.637C89.7302 163.677 81.56 156.971 75.8124 148.367C70.0648 139.763 66.998 129.647 67 119.3C67.0159 105.436 72.5297 92.1438 82.3323 82.3394C92.1348 72.535 105.426 67.0185 119.29 67ZM119.29 167.52C128.828 167.522 138.152 164.695 146.083 159.398C154.015 154.1 160.197 146.569 163.848 137.758C167.499 128.946 168.454 119.25 166.594 109.895C164.734 100.541 160.141 91.9476 153.397 85.2033C146.652 78.459 138.06 73.8663 128.705 72.0061C119.35 70.1458 109.654 71.1015 100.842 74.7524C92.0308 78.4033 84.5001 84.5854 79.2024 92.5166C73.9047 100.448 71.078 109.772 71.08 119.31C71.0958 132.091 76.1803 144.344 85.218 153.382C94.2557 162.42 106.509 167.504 119.29 167.52Z" fill="#FF8A03"/>
<path d="M119.29 80.3896C126.986 80.3896 134.508 82.6717 140.907 86.9472C147.306 91.2227 152.293 97.2996 155.238 104.409C158.183 111.519 158.954 119.343 157.452 126.891C155.951 134.438 152.245 141.372 146.803 146.813C141.362 152.255 134.429 155.961 126.881 157.462C119.333 158.963 111.51 158.193 104.4 155.248C97.2899 152.303 91.2129 147.316 86.9374 140.917C82.6619 134.518 80.3799 126.995 80.3799 119.3C80.4037 108.987 84.5107 99.1043 91.8026 91.8124C99.0945 84.5205 108.978 80.4134 119.29 80.3896M119.29 154.11C126.178 154.112 132.911 152.071 138.639 148.246C144.366 144.42 148.831 138.982 151.467 132.619C154.104 126.256 154.795 119.254 153.451 112.499C152.108 105.744 148.792 99.5385 143.921 94.6682C139.051 89.7979 132.846 86.4814 126.09 85.1382C119.335 83.795 112.333 84.4854 105.97 87.1221C99.6074 89.7588 94.1692 94.2233 90.3439 99.9509C86.5186 105.679 84.4779 112.412 84.4799 119.3C84.4931 128.528 88.1648 137.374 94.6901 143.899C101.215 150.425 110.062 154.096 119.29 154.11" fill="#FF8A03"/>
<path d="M119.29 93.7803C124.338 93.7783 129.273 95.2733 133.471 98.0763C137.669 100.879 140.941 104.864 142.875 109.527C144.808 114.19 145.314 119.322 144.331 124.273C143.347 129.224 140.918 133.772 137.349 137.342C133.78 140.912 129.233 143.344 124.282 144.329C119.332 145.315 114.2 144.81 109.536 142.879C104.872 140.947 100.886 137.676 98.0815 133.479C95.2769 129.283 93.78 124.348 93.78 119.3C93.788 112.536 96.4777 106.051 101.26 101.267C106.042 96.4833 112.526 93.7909 119.29 93.7803M119.29 140.72C123.53 140.724 127.675 139.471 131.202 137.118C134.729 134.765 137.479 131.419 139.104 127.503C140.729 123.587 141.155 119.277 140.33 115.118C139.504 110.959 137.464 107.139 134.467 104.141C131.47 101.142 127.65 99.0997 123.492 98.2723C119.334 97.4449 115.024 97.8696 111.107 99.4925C107.19 101.115 103.842 103.864 101.488 107.39C99.1336 110.915 97.8779 115.061 97.8799 119.3C97.8878 124.977 100.146 130.419 104.159 134.434C108.172 138.449 113.613 140.71 119.29 140.72Z" fill="#FF8A03"/>
<path d="M119.29 107.18C121.688 107.178 124.032 107.887 126.026 109.217C128.021 110.548 129.576 112.44 130.495 114.655C131.413 116.869 131.655 119.306 131.188 121.658C130.722 124.01 129.568 126.17 127.874 127.866C126.179 129.562 124.02 130.718 121.668 131.186C119.317 131.655 116.88 131.415 114.664 130.498C112.449 129.581 110.556 128.028 109.223 126.034C107.891 124.041 107.18 121.697 107.18 119.3C107.183 116.088 108.459 113.008 110.729 110.736C112.999 108.464 116.078 107.185 119.29 107.18M119.29 127.32C120.872 127.32 122.419 126.85 123.735 125.971C125.05 125.092 126.076 123.843 126.681 122.381C127.287 120.919 127.445 119.311 127.136 117.759C126.828 116.207 126.066 114.782 124.947 113.663C123.828 112.544 122.403 111.782 120.851 111.473C119.299 111.165 117.69 111.323 116.229 111.929C114.767 112.534 113.517 113.56 112.638 114.875C111.759 116.191 111.29 117.737 111.29 119.32C111.29 121.441 112.133 123.476 113.633 124.977C115.133 126.477 117.168 127.32 119.29 127.32Z" fill="#FF8A03"/>
</svg>
