<svg width="35" height="35" viewBox="0 0 35 35" fill="none" xmlns="http://www.w3.org/2000/svg">
<circle cx="17.5" cy="17.5" r="17.5" fill="#4A4A49"/>
<path d="M17.8949 22.1193C17.2926 22.1193 16.7557 22.0085 16.2841 21.7869C15.8153 21.5653 15.4432 21.2599 15.1676 20.8707C14.892 20.4815 14.7486 20.0355 14.7372 19.5327H16.527C16.5469 19.8707 16.6889 20.1449 16.9531 20.3551C17.2173 20.5653 17.5312 20.6705 17.8949 20.6705C18.1847 20.6705 18.4403 20.6065 18.6619 20.4787C18.8864 20.348 19.0611 20.1676 19.1861 19.9375C19.3139 19.7045 19.3778 19.4375 19.3778 19.1364C19.3778 18.8295 19.3125 18.5597 19.1818 18.3267C19.054 18.0937 18.8764 17.9119 18.6491 17.7812C18.4219 17.6506 18.1619 17.5838 17.8693 17.581C17.6136 17.581 17.3651 17.6335 17.1236 17.7386C16.8849 17.8437 16.6989 17.9872 16.5653 18.169L14.9247 17.875L15.3381 13.2727H20.6733V14.7812H16.8594L16.6335 16.9673H16.6847C16.8381 16.7514 17.0696 16.5724 17.3793 16.4304C17.6889 16.2884 18.0355 16.2173 18.419 16.2173C18.9446 16.2173 19.4134 16.3409 19.8253 16.5881C20.2372 16.8352 20.5625 17.1747 20.8011 17.6065C21.0398 18.0355 21.1577 18.5298 21.1548 19.0895C21.1577 19.6776 21.0213 20.2003 20.7457 20.6577C20.473 21.1122 20.0909 21.4702 19.5994 21.7315C19.1108 21.9901 18.5426 22.1193 17.8949 22.1193Z" fill="white"/>
</svg>
